{"glyphs":{"0":{"ha":857,"x_min":0,"x_max":0,"o":"m 428 -8 b 622 56 506 -8 570 13 b 738 231 674 98 713 157 b 776 489 764 306 776 392 b 739 744 776 585 764 670 b 624 917 714 817 675 875 b 429 981 572 959 507 981 b 233 917 350 981 285 959 b 118 743 181 875 143 817 b 81 488 93 669 81 584 b 118 230 81 390 93 304 b 233 55 143 155 181 97 b 428 -8 285 13 350 -8 z m 429 39 b 206 161 329 39 255 80 b 133 489 158 243 133 352 b 165 721 133 577 144 654 b 262 877 185 788 218 840 b 429 933 306 915 362 933 b 651 813 529 933 603 893 b 724 488 700 732 724 624 b 693 253 724 399 713 321 b 597 96 673 186 641 134 b 429 39 553 58 497 39 z "},"1":{"ha":422,"x_min":0,"x_max":0,"o":"m 242 0 l 293 0 l 293 976 l 243 976 l 243 915 b 227 876 243 897 238 884 b 188 864 216 868 203 864 l 38 864 l 38 817 l 176 817 b 219 818 190 817 205 817 b 260 826 234 819 248 822 l 242 853 z "},"2":{"ha":758,"x_min":0,"x_max":0,"o":"m 64 0 l 682 0 l 682 47 l 108 43 l 106 28 l 443 324 l 475 353 b 590 473 523 396 562 436 b 653 583 619 509 640 546 b 672 703 666 619 672 659 b 636 856 672 763 660 814 b 538 949 612 897 579 928 b 396 981 496 970 449 981 b 173 898 304 981 230 953 b 68 667 116 843 81 766 l 121 658 b 206 861 132 745 160 813 b 394 933 252 909 315 933 b 558 874 461 933 516 914 b 622 704 601 835 622 778 b 601 592 622 664 615 627 b 538 489 586 556 565 522 b 428 375 510 456 473 418 b 417 367 424 372 421 369 b 407 357 414 364 411 361 l 64 53 z "},"3":{"ha":788,"x_min":0,"x_max":0,"o":"m 376 -8 b 552 23 444 -8 503 2 b 666 116 602 44 640 75 b 706 268 692 157 706 208 b 608 476 706 364 673 434 b 321 536 544 518 448 538 l 326 519 l 707 908 l 708 972 l 121 972 l 121 925 l 676 925 l 669 942 l 278 539 l 288 493 l 304 493 b 568 445 422 493 510 477 b 656 269 626 413 656 355 b 580 97 656 194 630 136 b 376 39 529 58 462 39 b 189 97 300 39 238 58 b 106 250 140 136 112 187 l 54 235 b 105 108 61 187 78 144 b 216 22 132 71 169 43 b 376 -8 263 2 316 -8 z "},"4":{"ha":811,"x_min":0,"x_max":0,"o":"m 560 0 l 610 0 l 610 235 l 763 235 l 763 282 l 610 282 l 610 607 l 560 607 l 560 282 l 78 282 l 101 257 b 251 427 164 313 214 369 b 333 644 287 485 315 557 b 360 972 351 730 360 840 l 307 972 b 280 662 307 850 298 747 b 197 443 262 577 234 504 b 47 274 159 382 109 325 l 47 235 l 560 235 z "},"5":{"ha":810,"x_min":0,"x_max":0,"o":"m 404 -8 b 579 28 471 -8 529 4 b 695 136 629 53 668 89 b 736 306 722 183 736 240 b 649 532 736 403 707 478 b 421 613 591 586 515 613 b 268 583 368 613 317 603 b 150 496 219 563 180 534 l 167 476 l 190 951 l 172 925 l 678 925 l 678 972 l 142 972 l 118 458 l 163 446 b 272 533 190 482 227 511 b 414 565 316 554 364 565 b 611 500 495 565 561 544 b 686 307 661 456 686 392 b 651 160 686 250 675 201 b 553 69 628 120 595 90 b 404 39 510 49 461 39 b 217 97 328 39 266 58 b 133 250 168 136 140 187 l 82 235 b 182 58 91 162 125 103 b 404 -8 239 14 313 -8 z "},"6":{"ha":833,"x_min":0,"x_max":0,"o":"m 439 -8 b 604 28 502 -8 557 4 b 714 135 651 53 688 88 b 753 299 740 181 753 236 b 713 464 753 362 740 417 b 605 572 687 511 651 547 b 454 610 559 597 509 610 b 290 570 393 610 338 597 b 175 462 241 544 203 508 b 133 311 147 416 133 366 l 151 307 b 143 374 147 328 144 350 b 142 440 142 397 142 419 l 142 451 l 142 463 b 178 718 143 563 155 648 b 279 878 201 788 235 842 b 442 933 324 915 378 933 b 584 888 498 933 546 918 b 674 744 622 857 652 809 l 676 736 l 679 728 l 728 749 b 620 924 706 827 671 886 b 442 981 570 962 510 981 b 252 916 368 981 304 959 b 133 735 200 873 160 813 b 92 464 105 657 92 567 b 177 119 92 319 120 203 b 439 -8 234 34 321 -8 z m 442 36 b 306 67 393 36 347 47 b 206 156 264 88 231 118 b 169 290 182 195 169 239 b 203 425 169 338 181 383 b 299 525 226 467 258 500 b 443 563 341 550 388 563 b 574 533 491 563 535 553 b 668 444 614 513 645 483 b 703 303 691 404 703 357 b 669 163 703 250 692 203 b 576 69 647 122 616 91 b 442 36 537 47 492 36 z "},"7":{"ha":706,"x_min":0,"x_max":0,"o":"m 235 0 l 290 0 b 327 331 288 107 301 218 b 451 658 353 445 395 554 b 663 931 508 763 578 854 l 663 972 l 43 972 l 43 925 l 631 925 l 619 950 b 404 672 533 871 462 778 b 276 338 347 565 304 453 b 235 0 249 223 235 110 z "},"8":{"ha":822,"x_min":0,"x_max":0,"o":"m 413 -8 b 583 22 477 -8 534 2 b 699 111 632 41 671 71 b 740 257 726 151 740 200 b 674 438 740 330 718 390 b 485 521 630 485 567 513 l 486 508 b 610 553 536 515 577 530 b 680 638 642 577 666 605 b 701 740 694 670 701 704 b 665 870 701 791 689 834 b 564 952 641 906 607 933 b 411 981 520 971 469 981 b 259 952 354 981 303 971 b 157 869 215 933 181 906 b 121 740 133 833 121 790 b 143 638 121 704 128 670 b 214 553 158 605 181 577 b 338 508 246 530 288 515 l 340 522 b 197 478 284 517 236 502 b 110 385 158 454 129 423 b 82 258 91 348 82 306 b 124 111 82 200 96 151 b 240 22 151 71 190 41 b 413 -8 290 2 348 -8 z m 411 38 b 208 97 324 38 256 57 b 135 260 159 137 135 191 b 167 383 135 307 145 348 b 261 463 188 417 219 444 b 411 492 303 482 353 492 b 615 429 499 492 567 471 b 688 260 663 388 688 331 b 655 142 688 214 677 175 b 560 65 633 108 602 83 b 411 38 519 47 469 38 z m 411 539 b 235 594 335 539 277 557 b 174 736 194 631 174 679 b 239 882 174 799 195 848 b 411 933 282 916 340 933 b 584 882 483 933 541 916 b 649 736 627 848 649 799 b 587 594 649 679 628 631 b 411 539 546 557 487 539 z "},"9":{"ha":818,"x_min":0,"x_max":0,"o":"m 392 -8 b 583 56 470 -8 534 13 b 690 232 632 99 668 158 b 722 489 711 306 722 392 b 642 860 722 656 695 779 b 389 981 588 940 504 981 b 228 943 328 981 274 968 b 122 837 183 918 147 883 b 83 674 96 791 83 737 b 122 512 83 611 96 557 b 228 410 148 467 184 433 b 381 376 273 388 324 376 b 530 410 437 376 487 388 b 632 502 573 432 607 463 b 676 636 657 541 672 586 l 647 665 b 663 606 655 648 660 628 b 669 525 666 584 669 557 l 669 512 l 669 499 b 644 256 669 404 661 323 b 557 97 627 188 598 135 b 394 39 516 58 462 39 b 248 86 337 39 288 55 b 160 231 208 118 178 166 l 156 244 l 101 235 b 209 49 119 149 155 87 b 392 -8 263 11 324 -8 z m 389 424 b 258 456 340 424 296 434 b 168 544 219 477 189 506 b 136 675 147 582 136 626 b 168 809 136 725 147 770 b 258 901 189 848 219 879 b 390 933 297 922 341 933 b 522 902 439 933 483 923 b 612 815 560 881 590 852 b 644 689 634 778 644 736 b 613 550 644 636 634 590 b 523 457 591 510 561 479 b 389 424 484 435 440 424 z "},"\u0000":{"ha":917,"x_min":0,"x_max":0,"o":""},"\r":{"ha":483,"x_min":0,"x_max":0,"o":""}," ":{"ha":368,"x_min":0,"x_max":0,"o":""},"!":{"ha":311,"x_min":0,"x_max":0,"o":"m 135 228 l 178 228 l 185 519 l 185 978 l 129 978 l 129 519 z m 114 0 l 197 0 l 197 90 l 114 90 z "},"\"":{"ha":522,"x_min":0,"x_max":0,"o":"m 324 678 l 375 678 l 375 1003 l 322 1003 z m 149 678 l 200 678 l 200 1003 l 147 1003 z "},"#":{"ha":1043,"x_min":0,"x_max":0,"o":"m 201 0 l 250 0 l 425 972 l 376 972 z m 51 236 l 908 236 l 908 279 l 51 279 z m 610 0 l 657 0 l 832 972 l 785 972 z m 133 682 l 990 682 l 990 725 l 133 725 z "},"$":{"ha":894,"x_min":0,"x_max":0,"o":"m 460 -8 b 627 22 525 -8 581 2 b 731 111 673 43 708 72 b 767 253 755 150 767 197 b 703 419 767 324 745 380 b 494 513 660 459 591 490 l 394 536 b 247 608 330 551 281 575 b 197 736 214 641 197 683 b 226 844 197 779 207 815 b 308 911 245 874 272 896 b 435 933 343 926 386 933 b 615 883 513 933 573 917 b 688 732 656 850 680 800 l 739 739 b 694 872 733 792 718 836 b 592 953 669 908 635 935 b 436 981 549 972 497 981 b 283 951 378 981 327 971 b 183 867 240 932 206 904 b 147 733 159 830 147 785 b 208 574 147 668 167 614 b 379 486 248 533 305 504 l 481 463 b 662 385 565 443 625 417 b 717 250 698 352 717 307 b 651 94 717 182 695 130 b 463 39 607 57 544 39 b 272 92 381 39 317 57 b 171 244 226 128 192 179 l 122 225 b 186 100 137 176 158 134 b 296 20 214 66 250 39 b 460 -8 341 1 396 -8 z m 424 -115 l 474 -115 l 474 26 l 424 28 z m 424 939 l 474 939 l 474 1088 l 424 1088 z "},"%":{"ha":1306,"x_min":0,"x_max":0,"o":"m 342 0 l 399 0 l 965 972 l 910 972 z m 346 474 b 467 506 391 474 431 484 b 549 597 502 528 529 558 b 578 729 568 636 578 680 b 549 860 578 778 568 822 b 467 951 529 899 502 929 b 346 983 431 972 391 983 b 224 951 300 983 260 972 b 142 860 189 929 161 899 b 113 729 122 822 113 778 b 142 597 113 680 122 636 b 225 506 162 558 190 528 b 346 474 260 484 300 474 z m 346 518 b 211 578 290 518 245 538 b 160 729 177 618 160 668 b 183 837 160 769 167 805 b 248 912 198 869 220 894 b 346 939 276 930 309 939 b 479 879 400 939 445 919 b 531 729 513 839 531 789 b 507 621 531 689 523 653 b 442 545 491 588 469 563 b 346 518 414 527 382 518 z m 960 -11 b 1081 22 1005 -11 1046 0 b 1164 112 1117 43 1144 73 b 1193 243 1183 150 1193 194 b 1164 375 1193 292 1183 336 b 1081 466 1144 414 1117 444 b 960 499 1046 488 1005 499 b 839 466 914 499 874 488 b 757 375 804 444 776 414 b 728 243 738 336 728 292 b 757 112 728 194 738 150 b 839 22 776 73 804 43 b 960 -11 874 0 914 -11 z m 960 33 b 826 93 905 33 861 53 b 775 243 792 133 775 183 b 799 351 775 283 783 319 b 864 427 814 384 836 409 b 960 454 892 445 924 454 b 1094 394 1015 454 1060 434 b 1146 243 1129 355 1146 304 b 1123 135 1146 203 1138 167 b 1058 60 1108 103 1086 78 b 960 33 1029 42 997 33 z "},"&":{"ha":872,"x_min":0,"x_max":0,"o":"m 354 -8 b 553 43 430 -8 497 9 b 696 180 610 77 658 123 b 788 376 734 237 764 302 l 743 394 b 648 200 717 318 685 253 b 518 80 610 147 567 107 b 356 39 469 53 415 39 b 175 94 283 39 223 57 b 103 247 127 131 103 182 b 131 351 103 287 112 322 b 200 425 149 381 172 406 b 299 482 228 444 261 463 b 306 487 300 484 303 485 b 314 490 308 488 311 489 b 329 498 319 493 324 496 b 346 506 335 500 340 503 b 463 576 391 529 430 552 b 544 661 496 599 523 628 b 576 776 566 694 576 733 b 515 925 576 838 556 888 b 358 981 473 962 421 981 b 243 956 318 981 279 972 b 155 878 207 939 178 913 b 121 749 132 844 121 800 b 153 618 121 703 131 660 b 263 489 174 576 211 533 l 822 0 l 901 0 l 307 517 b 294 528 302 520 298 524 l 282 540 b 197 644 241 578 213 613 b 174 746 181 676 174 710 b 230 887 174 809 192 856 b 360 933 267 918 311 933 b 477 891 407 933 446 919 b 524 779 508 863 524 825 b 497 686 524 745 515 714 b 427 611 480 658 456 633 b 321 546 398 589 363 567 b 303 538 315 543 309 540 b 286 529 297 535 292 532 b 277 525 283 527 280 526 b 268 521 274 524 271 523 b 151 447 222 498 183 473 b 77 356 120 420 95 390 b 50 240 59 321 50 283 b 92 104 50 187 64 141 b 202 20 119 67 156 39 b 354 -8 248 1 299 -8 z "},"'":{"ha":347,"x_min":0,"x_max":0,"o":"m 149 678 l 200 678 l 200 1003 l 147 1003 z "},"(":{"ha":463,"x_min":0,"x_max":0,"o":"m 353 -236 l 414 -236 l 401 -223 l 388 -210 b 269 -60 345 -167 305 -117 b 178 142 232 -2 202 65 b 142 392 154 219 142 302 b 177 640 142 481 153 563 b 268 840 201 716 231 783 b 388 990 305 898 345 948 l 401 1003 l 414 1017 l 353 1017 b 229 869 311 980 270 930 b 128 653 188 807 155 735 b 88 392 101 572 88 484 b 128 128 88 298 101 210 b 228 -88 155 45 188 -27 b 353 -236 269 -150 310 -199 z "},")":{"ha":463,"x_min":0,"x_max":0,"o":"m 110 1017 l 49 1017 l 62 1003 l 75 990 b 194 840 118 948 157 898 b 285 639 230 783 261 716 b 321 389 309 562 321 479 b 285 141 321 300 309 217 b 194 -60 262 65 231 -2 b 75 -210 157 -117 118 -167 l 62 -223 l 49 -236 l 110 -236 b 233 -88 151 -199 193 -150 b 335 127 274 -27 308 45 b 375 389 362 209 375 296 b 335 653 375 482 362 570 b 234 869 308 735 274 807 b 110 1017 194 930 152 980 z "},"*":{"ha":578,"x_min":0,"x_max":0,"o":"m 183 581 l 296 739 l 406 581 l 440 606 l 328 761 l 493 814 l 485 851 l 317 796 l 317 972 l 274 972 l 275 796 l 107 850 l 94 814 l 264 761 l 151 606 z "},"+":{"ha":942,"x_min":0,"x_max":0,"o":"m 443 174 l 496 174 l 496 439 l 760 439 l 760 486 l 496 486 l 496 754 l 443 754 l 443 486 l 181 486 l 181 439 l 443 439 z "},",":{"ha":285,"x_min":0,"x_max":0,"o":"m 60 -117 l 75 -157 b 155 -105 110 -146 137 -128 b 182 0 173 -81 182 -46 l 138 0 b 117 -81 139 -36 132 -63 b 60 -117 101 -98 82 -110 z m 97 0 l 182 0 l 182 90 l 97 90 z "},"-":{"ha":697,"x_min":0,"x_max":0,"o":"m 122 357 l 575 357 l 575 404 l 122 404 z "},".":{"ha":253,"x_min":0,"x_max":0,"o":"m 82 0 l 171 0 l 171 90 l 82 90 z "},"/":{"ha":675,"x_min":0,"x_max":0,"o":"m 24 -236 l 72 -236 l 651 1114 l 601 1114 z "},":":{"ha":279,"x_min":0,"x_max":0,"o":"m 100 0 l 189 0 l 189 90 l 100 90 z m 100 618 l 189 618 l 189 708 l 100 708 z "},";":{"ha":339,"x_min":0,"x_max":0,"o":"m 93 618 l 182 618 l 182 708 l 93 708 z m 60 -117 l 75 -157 b 155 -105 110 -146 137 -128 b 182 0 173 -81 182 -46 l 138 0 b 117 -81 139 -36 132 -63 b 60 -117 101 -98 82 -110 z m 97 0 l 182 0 l 182 90 l 97 90 z "},"<":{"ha":944,"x_min":0,"x_max":0,"o":"m 786 186 l 786 231 l 149 472 l 149 456 l 786 697 l 786 742 l 113 483 l 113 444 z "},"=":{"ha":939,"x_min":0,"x_max":0,"o":"m 225 550 l 713 550 l 713 596 l 225 596 z m 225 324 l 713 324 l 713 369 l 225 369 z "},">":{"ha":944,"x_min":0,"x_max":0,"o":"m 158 186 l 832 444 l 832 483 l 158 742 l 158 697 l 796 456 l 796 472 l 158 231 z "},"?":{"ha":593,"x_min":0,"x_max":0,"o":"m 235 325 l 235 228 l 285 228 l 285 318 b 315 426 285 362 295 398 b 407 521 336 455 366 487 b 478 587 437 545 460 567 b 524 660 497 607 512 631 b 543 760 537 688 543 722 b 476 926 543 834 521 889 b 310 981 432 962 376 981 b 150 929 254 981 201 963 b 26 761 99 895 58 839 l 81 750 b 180 890 104 815 137 862 b 308 933 223 919 266 933 b 438 890 358 933 402 919 b 493 757 475 862 493 817 b 476 672 493 725 487 696 b 434 608 464 647 450 626 b 367 546 418 591 395 570 b 297 483 338 522 315 501 b 253 416 280 465 265 442 b 235 325 241 390 235 359 z m 217 0 l 306 0 l 306 90 l 217 90 z "},"@":{"ha":1315,"x_min":0,"x_max":0,"o":"m 615 -156 b 790 -137 676 -156 735 -149 b 960 -78 846 -124 902 -105 l 940 -29 b 778 -89 888 -56 834 -76 b 608 -108 723 -102 667 -108 b 351 -53 509 -108 424 -90 b 185 108 279 -16 224 38 b 128 361 147 179 128 263 b 201 653 128 472 152 569 b 408 847 249 736 318 801 b 721 915 497 892 601 915 b 1077 803 873 915 991 878 b 1206 488 1163 728 1206 623 b 1177 320 1206 425 1196 369 b 1097 207 1158 272 1131 234 b 975 167 1062 180 1021 167 b 888 199 934 167 905 177 b 874 294 871 220 866 252 l 939 678 l 883 678 l 846 461 l 863 481 b 797 629 861 544 839 593 b 628 683 756 665 699 683 b 494 646 578 683 533 671 b 402 541 454 621 424 586 b 369 386 380 496 369 444 b 435 195 369 306 391 242 b 617 125 479 148 540 125 b 754 165 670 125 716 138 b 840 283 792 192 821 231 l 828 288 b 851 165 819 234 826 193 b 969 122 875 136 915 122 b 1122 168 1027 122 1078 138 b 1223 297 1166 199 1199 242 b 1258 489 1247 353 1258 417 b 1193 742 1258 587 1237 672 b 1006 906 1150 813 1087 868 b 719 963 925 944 830 963 b 381 888 591 963 478 938 b 155 675 283 838 208 767 b 75 358 102 583 75 478 b 140 82 75 251 97 159 b 326 -94 183 5 245 -54 b 615 -156 408 -135 504 -156 z m 617 172 b 473 228 556 172 509 191 b 419 386 437 266 419 319 b 478 568 419 462 439 523 b 636 636 517 613 569 636 b 779 581 695 636 743 618 b 833 422 815 544 833 491 b 775 240 833 346 814 286 b 617 172 736 195 683 172 z "},"A":{"ha":969,"x_min":0,"x_max":0,"o":"m 40 0 l 94 0 l 483 932 l 485 932 l 875 0 l 928 0 l 517 978 l 453 978 z m 192 311 l 778 311 l 764 358 l 206 358 z "},"B":{"ha":936,"x_min":0,"x_max":0,"o":"m 150 0 l 558 0 b 704 31 613 0 662 10 b 804 119 747 51 780 80 b 840 254 828 157 840 202 b 810 381 840 302 830 345 b 731 468 791 418 764 447 b 624 504 698 489 663 501 l 628 486 b 722 534 664 496 695 512 b 785 615 749 556 770 583 b 807 725 800 648 807 684 b 770 858 807 777 795 821 b 669 943 746 895 712 924 b 528 972 627 963 580 972 l 150 972 z m 551 47 l 200 47 l 200 471 l 553 471 b 731 408 632 471 692 450 b 790 258 771 367 790 317 b 758 145 790 215 780 177 b 672 72 737 113 708 89 b 551 47 636 56 596 47 z m 542 518 l 200 518 l 200 925 l 526 925 b 641 901 568 925 606 917 b 725 830 676 884 704 861 b 757 718 746 799 757 762 b 731 615 757 679 748 645 b 657 544 714 584 689 561 b 542 518 625 527 586 518 z "},"C":{"ha":1040,"x_min":0,"x_max":0,"o":"m 533 -8 b 803 74 645 -8 735 19 b 942 315 872 129 918 210 l 893 324 b 769 110 870 228 829 157 b 532 39 710 63 631 39 b 323 93 453 39 384 57 b 181 249 262 129 215 181 b 129 488 146 316 129 396 b 181 724 129 577 146 656 b 323 879 215 791 262 843 b 532 933 384 915 453 933 b 765 866 630 933 708 911 b 883 661 823 821 862 753 l 932 669 b 858 840 917 737 893 794 b 725 945 824 887 780 922 b 533 981 670 969 606 981 b 299 920 446 981 368 960 b 138 747 230 880 176 822 b 79 486 99 672 79 585 b 137 225 79 387 98 300 b 297 52 175 150 229 92 b 533 -8 366 12 444 -8 z "},"D":{"ha":1044,"x_min":0,"x_max":0,"o":"m 150 0 l 493 0 b 737 64 588 0 669 21 b 892 239 805 106 857 165 b 946 488 928 313 946 396 b 892 734 946 578 928 660 b 736 908 857 808 805 866 b 493 972 668 951 587 972 l 150 972 z m 482 47 l 200 47 l 200 925 l 483 925 b 704 868 569 925 642 906 b 847 712 766 830 814 778 b 896 488 879 646 896 571 b 848 261 896 403 880 328 b 706 104 816 194 769 142 b 482 47 644 66 569 47 z "},"E":{"ha":872,"x_min":0,"x_max":0,"o":"m 150 0 l 768 0 l 768 47 l 200 47 l 200 450 l 719 450 l 719 497 l 200 497 l 200 925 l 761 925 l 761 972 l 150 972 z "},"F":{"ha":779,"x_min":0,"x_max":0,"o":"m 150 0 l 200 0 l 200 454 l 646 454 l 646 501 l 200 501 l 200 925 l 731 925 l 731 972 l 150 972 z "},"G":{"ha":1078,"x_min":0,"x_max":0,"o":"m 558 -8 b 787 56 646 -8 722 13 b 928 238 851 99 898 160 l 922 246 l 922 0 l 972 0 l 972 465 l 572 465 l 572 418 l 943 418 l 921 440 l 921 430 l 921 421 l 921 411 l 921 403 b 874 221 921 337 905 276 b 743 88 842 165 799 121 b 557 39 688 55 625 39 b 336 92 471 39 397 57 b 197 246 275 128 228 179 b 149 485 165 313 149 392 b 200 724 149 576 166 656 b 344 881 234 792 282 844 b 554 933 405 917 475 934 b 788 866 652 933 730 911 b 906 661 845 821 884 753 l 957 669 b 882 842 942 738 917 795 b 747 946 847 888 802 923 b 553 981 691 969 627 981 b 319 920 466 981 388 960 b 157 747 250 880 196 822 b 99 485 118 672 99 585 b 154 217 99 380 117 291 b 313 49 191 144 244 88 b 558 -8 381 11 463 -8 z "},"H":{"ha":1013,"x_min":0,"x_max":0,"o":"m 150 0 l 200 0 l 200 461 l 813 461 l 813 0 l 863 0 l 863 972 l 813 972 l 813 508 l 200 508 l 200 972 l 150 972 z "},"I":{"ha":356,"x_min":0,"x_max":0,"o":"m 153 0 l 203 0 l 203 972 l 153 972 z "},"J":{"ha":722,"x_min":0,"x_max":0,"o":"m 333 -8 b 463 25 381 -8 424 3 b 558 126 503 47 534 81 b 593 292 581 172 593 227 l 593 972 l 543 972 l 543 286 b 513 146 543 230 533 183 b 435 65 493 109 467 82 b 332 39 402 47 368 39 b 174 101 261 39 208 59 b 110 256 139 142 118 194 l 64 238 b 142 62 70 167 96 109 b 333 -8 187 15 251 -8 z "},"K":{"ha":926,"x_min":0,"x_max":0,"o":"m 150 0 l 200 0 l 200 329 l 185 289 l 836 972 l 772 972 l 185 361 l 200 353 l 200 972 l 150 972 z m 811 0 l 871 0 l 479 624 l 443 586 z "},"L":{"ha":740,"x_min":0,"x_max":0,"o":"m 150 0 l 704 0 l 704 47 l 203 47 l 203 972 l 150 972 z "},"M":{"ha":1219,"x_min":0,"x_max":0,"o":"m 150 0 l 200 0 l 200 444 l 200 489 b 193 894 200 626 198 761 l 194 894 l 590 83 l 628 83 l 1028 894 l 1029 894 b 1019 444 1023 684 1019 534 l 1019 0 l 1069 0 l 1069 972 l 1011 972 l 611 154 l 608 154 l 211 972 l 150 972 z "},"N":{"ha":1022,"x_min":0,"x_max":0,"o":"m 150 0 l 200 0 l 200 446 l 200 482 l 200 517 b 199 705 200 581 200 643 b 196 893 198 766 197 829 l 199 893 l 822 0 l 872 0 l 872 972 l 822 972 l 822 379 b 824 172 822 288 823 219 l 826 81 l 824 79 l 200 972 l 150 972 z "},"O":{"ha":1113,"x_min":0,"x_max":0,"o":"m 557 -8 b 796 53 647 -8 726 12 b 957 227 865 95 919 153 b 1014 483 995 302 1014 387 b 957 742 1014 581 995 667 b 796 918 919 818 865 876 b 557 981 726 960 647 981 b 317 918 466 981 386 960 b 156 742 247 876 194 818 b 99 483 118 667 99 581 b 156 227 99 387 118 302 b 317 53 194 153 247 95 b 557 -8 386 12 466 -8 z m 557 39 b 343 94 476 39 405 57 b 199 251 281 131 233 184 b 149 483 166 318 149 395 b 200 719 149 572 166 651 b 344 877 234 787 282 840 b 557 933 405 915 476 933 b 770 877 638 933 709 915 b 913 719 832 840 879 787 b 964 483 947 651 964 572 b 913 251 964 395 947 318 b 770 94 879 184 832 131 b 557 39 709 57 638 39 z "},"P":{"ha":833,"x_min":0,"x_max":0,"o":"m 150 0 l 200 0 l 200 444 l 436 444 b 613 476 506 444 566 455 b 720 566 661 497 697 527 b 756 708 744 605 756 653 b 720 851 756 764 744 811 b 613 941 697 890 661 920 b 436 972 566 962 506 972 l 150 972 z m 426 492 l 200 492 l 200 925 l 426 925 b 641 868 526 925 598 906 b 706 708 684 830 706 777 b 640 549 706 640 684 587 b 426 492 597 511 525 492 z "},"Q":{"ha":1129,"x_min":0,"x_max":0,"o":"m 992 -62 l 1058 -62 l 685 353 l 649 319 z m 557 -8 b 796 53 647 -8 726 12 b 957 227 865 95 919 153 b 1014 483 995 302 1014 387 b 957 742 1014 581 995 667 b 796 918 919 818 865 876 b 557 981 726 960 647 981 b 317 918 466 981 386 960 b 156 742 247 876 194 818 b 99 483 118 667 99 581 b 156 227 99 387 118 302 b 317 53 194 153 247 95 b 557 -8 386 12 466 -8 z m 557 39 b 343 94 476 39 405 57 b 199 251 281 131 233 184 b 149 483 166 318 149 395 b 200 719 149 572 166 651 b 344 877 234 787 282 840 b 557 933 405 915 476 933 b 770 877 638 933 709 915 b 913 719 832 840 879 787 b 964 483 947 651 964 572 b 913 251 964 395 947 318 b 770 94 879 184 832 131 b 557 39 709 57 638 39 z "},"R":{"ha":890,"x_min":0,"x_max":0,"o":"m 150 0 l 200 0 l 200 429 l 461 429 b 610 391 523 429 573 416 b 679 267 647 366 670 324 l 724 0 l 778 0 l 729 274 b 670 399 720 325 700 366 b 529 461 640 431 593 452 l 524 438 b 672 485 584 444 633 460 b 757 580 711 511 739 542 b 783 703 775 617 783 658 b 703 897 783 782 756 847 b 469 972 649 947 571 972 l 150 972 z m 460 476 l 200 476 l 200 925 l 460 925 b 663 867 549 925 616 906 b 733 703 710 829 733 774 b 702 581 733 656 723 615 b 609 503 681 547 650 522 b 460 476 568 485 518 476 z "},"S":{"ha":825,"x_min":0,"x_max":0,"o":"m 425 -8 b 592 22 491 -8 547 2 b 697 111 638 43 673 72 b 732 253 720 150 732 197 b 668 419 732 324 711 380 b 460 513 625 459 556 490 l 360 536 b 213 608 295 551 246 575 b 163 736 179 641 163 683 b 191 844 163 779 172 815 b 273 911 210 874 237 896 b 400 933 309 926 351 933 b 580 883 479 933 539 917 b 653 732 621 850 645 800 l 704 739 b 615 919 696 819 666 879 b 401 981 564 960 493 981 b 249 951 343 981 292 971 b 148 867 205 932 172 904 b 113 733 124 830 113 785 b 173 574 113 668 133 614 b 344 486 213 533 270 504 l 446 463 b 627 385 530 443 591 417 b 682 250 664 352 682 307 b 616 94 682 182 660 130 b 428 39 572 57 509 39 b 237 92 346 39 283 57 b 136 244 191 128 157 179 l 88 225 b 203 52 111 150 149 92 b 425 -8 256 12 331 -8 z "},"T":{"ha":831,"x_min":0,"x_max":0,"o":"m 390 0 l 440 0 l 440 925 l 794 925 l 794 972 l 36 972 l 36 925 l 390 925 z "},"U":{"ha":979,"x_min":0,"x_max":0,"o":"m 490 -8 b 674 35 558 -8 619 6 b 803 163 728 63 771 106 b 850 371 834 220 850 289 l 850 972 l 797 972 l 797 381 b 714 128 797 272 769 188 b 490 39 658 69 584 39 b 328 78 429 39 375 52 b 220 195 282 105 246 144 b 182 381 195 247 182 308 l 182 972 l 129 972 l 129 371 b 176 165 129 290 145 222 b 305 35 208 108 251 65 b 490 -8 359 6 421 -8 z "},"V":{"ha":936,"x_min":0,"x_max":0,"o":"m 438 0 l 500 0 l 878 972 l 824 972 l 465 44 l 471 44 l 113 972 l 58 972 z "},"W":{"ha":1417,"x_min":0,"x_max":0,"o":"m 344 0 l 417 0 l 708 907 l 711 907 l 1001 0 l 1074 0 l 1371 972 l 1322 972 l 1039 56 l 1036 56 l 744 972 l 678 972 l 383 56 l 381 56 l 101 972 l 46 972 z "},"X":{"ha":851,"x_min":0,"x_max":0,"o":"m 22 0 l 88 0 l 439 460 l 404 475 l 767 0 l 831 0 l 438 518 l 446 464 l 828 972 l 764 972 l 414 501 l 439 500 l 85 972 l 21 972 l 403 463 l 407 497 z "},"Y":{"ha":826,"x_min":0,"x_max":0,"o":"m 399 413 l 428 413 l 776 972 l 715 972 l 401 461 l 426 461 l 111 972 l 50 972 z m 390 0 l 440 0 l 440 468 l 390 468 z "},"Z":{"ha":815,"x_min":0,"x_max":0,"o":"m 40 0 l 765 0 l 765 47 l 94 47 l 96 33 l 765 931 l 765 972 l 58 972 l 58 925 l 710 925 l 708 938 l 40 42 z "},"[":{"ha":388,"x_min":0,"x_max":0,"o":"m 146 -236 l 332 -236 l 332 -189 l 196 -189 l 196 969 l 332 969 l 332 1017 l 146 1017 z "},"\\":{"ha":669,"x_min":0,"x_max":0,"o":"m 603 -236 l 646 -236 l 68 1114 l 24 1114 z "},"]":{"ha":388,"x_min":0,"x_max":0,"o":"m 243 1017 l 57 1017 l 57 969 l 193 969 l 193 -189 l 57 -189 l 57 -236 l 243 -236 z "},"^":{"ha":750,"x_min":0,"x_max":0,"o":"m 97 513 l 158 513 l 385 958 l 365 958 l 593 513 l 653 513 l 410 972 l 342 972 z "},"_":{"ha":579,"x_min":0,"x_max":0,"o":"m -14 -178 l 593 -178 l 593 -139 l -14 -139 z "},"`":{"ha":196,"x_min":0,"x_max":0,"o":"m 115 833 l 154 833 l 90 1042 l 42 1042 z "},"a":{"ha":724,"x_min":0,"x_max":0,"o":"m 275 -8 b 464 47 345 -8 408 10 b 578 194 519 84 557 133 l 564 199 l 564 0 l 614 0 l 614 478 b 584 608 614 529 604 572 b 499 689 564 643 536 670 b 371 717 463 707 420 717 b 201 663 304 717 247 699 b 103 515 154 626 121 577 l 151 504 b 232 626 168 556 195 597 b 371 669 269 655 315 669 b 515 617 434 669 482 652 b 564 469 547 581 564 532 l 564 403 l 267 364 b 116 306 203 356 153 336 b 61 174 79 276 61 232 b 121 38 61 114 81 69 b 275 -8 161 7 212 -8 z m 279 39 b 160 74 232 39 192 50 b 111 176 127 97 111 131 b 153 273 111 219 125 251 b 274 317 181 295 221 309 l 564 356 l 564 314 b 524 174 564 263 550 216 b 418 75 497 132 462 99 b 279 39 375 51 328 39 z "},"b":{"ha":856,"x_min":0,"x_max":0,"o":"m 458 -8 b 630 36 525 -8 582 6 b 739 163 678 66 714 108 b 776 353 764 217 776 281 b 737 550 776 430 763 495 b 625 674 710 605 673 646 b 457 717 577 703 521 717 b 259 652 379 717 313 695 b 151 478 205 609 169 551 l 172 467 l 172 1003 l 122 1003 l 122 0 l 172 0 l 172 235 l 150 235 b 258 56 167 158 203 98 b 458 -8 313 13 380 -8 z m 450 39 b 245 124 362 39 294 67 b 172 354 197 181 172 258 b 207 524 172 420 184 477 b 304 633 230 572 263 608 b 450 669 346 657 394 669 b 653 584 537 669 605 641 b 726 354 702 527 726 450 b 692 184 726 288 715 232 b 596 76 670 136 638 100 b 450 39 554 51 506 39 z "},"c":{"ha":763,"x_min":0,"x_max":0,"o":"m 394 -8 b 594 53 475 -8 542 12 b 699 235 647 94 682 154 l 649 242 b 562 91 633 176 604 126 b 396 39 520 56 464 39 b 202 124 315 39 251 67 b 129 356 153 181 129 258 b 164 522 129 419 141 475 b 263 631 187 569 220 606 b 410 669 305 657 354 669 b 563 621 473 669 524 653 b 640 478 603 588 628 541 l 693 486 b 642 609 684 533 667 574 b 547 689 618 644 586 670 b 410 717 507 707 462 717 b 236 673 344 717 286 702 b 120 547 186 644 147 602 b 79 354 93 491 79 427 b 118 163 79 281 92 217 b 228 36 144 108 181 66 b 394 -8 276 6 331 -8 z "},"d":{"ha":844,"x_min":0,"x_max":0,"o":"m 404 -8 b 599 54 482 -8 547 13 b 701 224 652 96 686 152 l 683 242 l 683 0 l 733 0 l 733 1003 l 683 1003 l 683 474 l 700 493 b 595 658 683 563 648 618 b 404 717 542 697 478 717 b 228 672 336 717 277 702 b 117 546 180 643 143 600 b 79 356 92 491 79 428 b 117 165 79 283 92 220 b 228 37 143 109 180 67 b 404 -8 277 7 336 -8 z m 406 39 b 202 124 319 39 251 67 b 129 354 153 181 129 258 b 163 524 129 420 141 477 b 260 633 186 572 218 608 b 406 669 301 657 350 669 b 610 584 494 669 562 641 b 683 354 659 527 683 450 b 649 184 683 288 672 232 b 551 76 625 136 593 100 b 406 39 510 51 461 39 z "},"e":{"ha":775,"x_min":0,"x_max":0,"o":"m 403 -10 b 592 48 481 -10 544 9 b 699 199 639 86 675 137 l 650 215 b 557 83 629 158 598 114 b 401 38 516 53 464 38 b 203 118 318 38 252 64 b 129 346 154 172 129 248 b 166 522 129 414 141 473 b 265 633 191 571 223 608 b 401 669 306 657 351 669 b 531 635 450 669 494 658 b 617 539 569 612 597 580 b 647 403 637 498 647 453 b 644 354 647 377 646 361 l 660 401 l 110 401 l 122 354 l 694 354 b 697 374 695 361 696 367 b 697 393 697 380 697 387 b 660 563 697 457 685 513 b 557 676 636 612 601 650 b 403 717 513 703 461 717 b 242 673 344 717 291 702 b 124 548 193 644 153 602 b 79 357 94 494 79 430 b 121 153 79 276 93 209 b 235 31 149 98 187 57 b 403 -10 284 4 340 -10 z "},"f":{"ha":425,"x_min":0,"x_max":0,"o":"m 151 0 l 201 0 l 201 661 l 399 661 l 399 708 l 201 708 l 201 879 b 218 938 201 907 207 927 b 274 956 229 950 248 956 l 399 956 l 399 1003 l 317 1003 b 191 965 259 1003 217 990 b 151 844 165 940 151 900 l 151 708 l 26 708 l 26 661 l 151 661 z "},"g":{"ha":844,"x_min":0,"x_max":0,"o":"m 408 -278 b 647 -185 510 -278 590 -247 b 733 79 705 -123 733 -35 l 733 708 l 683 708 l 683 467 l 703 483 b 649 609 694 532 677 574 b 545 689 622 644 587 670 b 404 717 503 707 456 717 b 231 675 338 717 280 703 b 119 554 183 647 145 607 b 79 368 92 501 79 439 b 119 183 79 297 92 235 b 232 62 145 130 183 90 b 404 19 281 34 338 19 b 543 46 455 19 501 28 b 647 124 585 63 619 90 b 703 250 675 159 694 201 l 683 263 l 683 76 b 610 -152 683 -24 659 -100 b 411 -231 562 -204 495 -231 b 264 -201 356 -231 307 -221 b 161 -106 220 -181 186 -149 l 118 -132 b 231 -239 141 -177 179 -213 b 408 -278 284 -265 343 -278 z m 407 67 b 202 151 319 67 251 95 b 129 368 153 207 129 279 b 161 524 129 426 140 478 b 256 631 182 569 214 605 b 407 669 298 656 349 669 b 610 586 494 669 562 642 b 683 368 659 531 683 458 b 651 213 683 310 673 258 b 557 106 630 167 599 131 b 407 67 515 80 465 67 z "},"h":{"ha":806,"x_min":0,"x_max":0,"o":"m 122 0 l 172 0 l 172 407 b 201 531 172 450 182 491 b 287 631 220 572 248 605 b 428 669 325 656 372 669 b 592 613 497 669 552 650 b 651 431 631 575 651 514 l 651 0 l 701 0 l 701 447 b 631 645 701 531 678 597 b 433 717 584 693 519 717 b 267 669 367 717 311 701 b 167 557 223 638 190 600 l 172 544 l 172 1003 l 122 1003 z "},"i":{"ha":272,"x_min":0,"x_max":0,"o":"m 111 0 l 161 0 l 161 708 l 111 708 z m 111 858 l 161 858 l 161 1003 l 111 1003 z "},"j":{"ha":292,"x_min":0,"x_max":0,"o":"m -24 -235 l 17 -235 b 129 -197 64 -235 101 -222 b 171 -72 157 -171 171 -130 l 171 708 l 121 708 l 121 -92 b 101 -165 121 -125 114 -149 b 36 -187 87 -180 66 -187 l -24 -187 z m 122 858 l 172 858 l 172 1003 l 122 1003 z "},"k":{"ha":672,"x_min":0,"x_max":0,"o":"m 122 0 l 172 0 l 172 239 l 642 708 l 572 708 l 172 303 l 169 304 b 172 387 170 330 171 358 b 172 472 172 416 172 444 l 172 522 l 172 549 l 172 1003 l 122 1003 z m 576 0 l 639 0 l 326 421 l 290 388 z "},"l":{"ha":318,"x_min":0,"x_max":0,"o":"m 228 0 l 279 0 l 279 47 l 204 47 b 169 82 181 47 169 59 l 169 1003 l 119 1003 l 119 103 b 145 24 119 67 128 41 b 228 0 162 8 190 0 z "},"m":{"ha":1279,"x_min":0,"x_max":0,"o":"m 111 0 l 161 0 l 161 397 b 227 597 161 481 183 548 b 407 669 271 645 331 669 b 556 617 465 669 515 652 b 618 465 597 583 618 532 l 618 0 l 668 0 l 668 397 b 734 597 668 481 690 548 b 914 669 778 645 838 669 b 1017 647 951 669 985 662 b 1095 579 1049 632 1075 610 b 1125 465 1115 549 1125 511 l 1125 0 l 1175 0 l 1175 474 b 1140 606 1175 525 1163 570 b 1047 689 1116 643 1085 670 b 925 717 1009 707 969 717 b 741 665 852 717 791 700 b 644 518 691 631 659 582 l 664 514 b 619 627 659 559 644 597 b 526 694 594 657 563 680 b 410 717 489 709 450 717 b 244 670 349 717 293 701 b 149 536 194 639 163 594 l 161 536 l 161 708 l 111 708 z "},"n":{"ha":794,"x_min":0,"x_max":0,"o":"m 111 0 l 161 0 l 161 393 b 190 522 161 437 171 479 b 276 627 209 564 237 599 b 417 669 314 655 361 669 b 581 609 486 669 541 649 b 640 417 620 569 640 505 l 640 0 l 690 0 l 690 433 b 620 642 690 522 667 592 b 422 717 573 692 507 717 b 283 683 369 717 322 706 b 190 602 244 661 213 634 b 142 507 167 570 151 538 l 161 471 l 161 708 l 111 708 z "},"o":{"ha":825,"x_min":0,"x_max":0,"o":"m 413 -8 b 584 35 476 -8 534 6 b 703 162 634 65 674 107 b 746 354 731 217 746 281 b 703 544 746 426 731 490 b 584 672 674 599 634 641 b 413 717 534 702 476 717 b 241 673 349 717 291 702 b 122 547 191 644 151 602 b 79 354 94 491 79 427 b 122 162 79 281 94 217 b 241 35 151 107 191 65 b 413 -8 291 6 349 -8 z m 413 39 b 266 76 358 39 309 51 b 165 184 223 100 189 136 b 129 354 141 232 129 288 b 165 524 129 420 141 477 b 266 633 189 572 223 608 b 413 669 309 657 358 669 b 559 633 467 669 516 657 b 660 524 602 608 636 572 b 696 354 684 477 696 420 b 660 184 696 288 684 232 b 559 76 636 136 602 100 b 413 39 516 51 467 39 z "},"p":{"ha":844,"x_min":0,"x_max":0,"o":"m 111 -278 l 161 -278 l 161 236 l 139 235 b 247 56 156 158 191 98 b 447 -8 302 13 369 -8 b 619 37 514 -8 571 7 b 728 163 666 67 703 109 b 765 354 753 217 765 281 b 726 550 765 430 752 495 b 614 674 699 605 662 646 b 446 717 566 703 510 717 b 248 652 368 717 302 695 b 140 478 194 609 158 551 l 161 468 l 161 708 l 111 708 z m 438 39 b 234 124 350 39 283 67 b 161 354 185 181 161 258 b 196 524 161 420 173 477 b 293 633 219 572 251 608 b 439 669 335 657 383 669 b 642 584 526 669 594 641 b 715 354 691 527 715 450 b 681 184 715 288 704 232 b 583 76 657 136 625 100 b 438 39 542 51 493 39 z "},"q":{"ha":856,"x_min":0,"x_max":0,"o":"m 683 -278 l 733 -278 l 733 708 l 683 708 l 683 474 l 700 493 b 595 658 683 563 648 618 b 404 717 542 697 478 717 b 228 672 336 717 277 702 b 117 546 180 643 143 600 b 79 356 92 491 79 428 b 117 165 79 283 92 220 b 228 37 143 109 180 67 b 404 -8 277 7 336 -8 b 599 54 482 -8 547 13 b 701 224 652 96 686 152 l 683 242 z m 406 39 b 202 124 319 39 251 67 b 129 354 153 181 129 258 b 163 524 129 420 141 477 b 260 633 186 572 218 608 b 406 669 301 657 350 669 b 610 584 494 669 562 641 b 683 354 659 527 683 450 b 649 184 683 288 672 232 b 551 76 625 136 593 100 b 406 39 510 51 461 39 z "},"r":{"ha":429,"x_min":0,"x_max":0,"o":"m 111 0 l 161 0 l 161 522 b 194 622 161 563 172 596 b 297 661 216 648 250 661 l 400 661 l 400 708 l 333 708 b 197 669 275 708 230 695 b 133 557 165 642 144 605 l 161 538 l 161 708 l 111 708 z "},"s":{"ha":638,"x_min":0,"x_max":0,"o":"m 328 -8 b 460 13 380 -8 424 -1 b 544 78 497 28 525 49 b 574 183 564 106 574 142 b 557 268 574 216 568 244 b 501 331 546 292 527 313 b 392 372 474 348 438 362 l 279 396 b 169 441 229 407 193 422 b 135 533 146 460 135 491 b 183 633 135 575 151 608 b 315 669 216 657 260 669 b 449 631 375 669 419 656 b 494 519 478 605 494 568 l 546 528 b 483 667 543 587 522 633 b 317 717 443 700 388 717 b 192 694 269 717 227 709 b 113 629 158 678 131 657 b 85 532 94 601 85 569 b 131 409 85 478 100 437 b 261 350 162 381 206 361 l 375 326 b 383 324 378 325 381 325 b 392 322 386 324 389 323 b 493 273 439 311 473 295 b 524 182 513 251 524 221 b 472 75 524 135 506 99 b 326 39 438 51 389 39 b 177 76 265 39 216 51 b 108 192 139 101 116 140 l 60 181 b 141 40 67 119 94 73 b 328 -8 188 8 250 -8 z "},"t":{"ha":407,"x_min":0,"x_max":0,"o":"m 318 0 l 372 0 l 372 47 l 275 47 b 219 65 249 47 231 53 b 203 124 208 76 203 96 l 203 663 l 369 661 l 369 708 l 203 707 l 203 914 l 156 914 l 156 753 b 146 716 156 734 152 722 b 110 707 139 710 127 707 l 24 708 l 24 661 l 153 663 l 153 144 b 192 32 153 91 166 53 b 318 0 218 11 260 0 z "},"u":{"ha":779,"x_min":0,"x_max":0,"o":"m 369 -8 b 555 54 444 -8 505 13 b 639 218 604 96 632 150 l 618 219 l 618 0 l 668 0 l 668 708 l 618 708 l 618 315 b 589 171 618 261 608 213 b 506 74 569 129 542 97 b 382 39 469 50 428 39 b 216 102 313 39 257 60 b 154 283 175 144 154 205 l 154 708 l 104 708 l 104 283 b 137 125 104 221 115 169 b 229 26 159 81 189 48 b 369 -8 269 3 316 -8 z "},"v":{"ha":669,"x_min":0,"x_max":0,"o":"m 303 0 l 369 0 l 640 708 l 590 708 l 519 529 l 338 53 l 335 53 l 153 529 l 83 708 l 29 708 z "},"w":{"ha":1032,"x_min":0,"x_max":0,"o":"m 256 0 l 318 0 l 515 639 l 517 639 l 714 0 l 778 0 l 1007 708 l 957 708 l 750 57 l 747 57 l 546 708 l 490 708 l 286 57 l 285 57 l 79 708 l 25 708 z "},"x":{"ha":686,"x_min":0,"x_max":0,"o":"m 42 0 l 103 0 l 360 342 l 328 343 l 583 0 l 644 0 l 361 379 l 363 342 l 638 708 l 578 708 l 331 379 l 350 381 l 107 708 l 46 708 l 321 336 l 324 374 z "},"y":{"ha":715,"x_min":0,"x_max":0,"o":"m 74 -278 l 110 -278 b 209 -268 151 -278 184 -275 b 274 -226 234 -262 255 -248 b 329 -128 293 -205 312 -172 l 654 708 l 603 708 l 353 64 l 351 64 l 82 708 l 28 708 l 335 -17 l 333 13 l 271 -150 b 244 -199 263 -171 254 -188 b 210 -224 235 -211 224 -219 b 157 -231 197 -228 179 -231 l 74 -231 z "},"z":{"ha":610,"x_min":0,"x_max":0,"o":"m 29 0 l 579 0 l 579 47 l 83 47 l 78 29 l 579 660 l 579 708 l 39 708 l 39 661 l 536 661 l 532 679 l 29 47 z "},"{":{"ha":418,"x_min":0,"x_max":0,"o":"m 332 -236 l 363 -236 l 363 -189 l 335 -189 b 231 -160 288 -189 253 -179 b 201 -62 209 -141 200 -109 l 215 265 b 207 331 216 290 213 312 b 172 375 200 349 189 364 b 107 392 156 386 134 392 l 107 389 b 172 406 134 389 156 394 b 207 450 189 417 200 431 b 215 515 213 469 216 490 l 201 843 b 231 941 200 889 209 922 b 335 969 253 960 288 969 l 363 969 l 363 1017 l 332 1017 b 190 974 265 1017 218 1003 b 151 843 161 946 149 902 l 165 515 b 144 438 167 482 160 456 b 72 411 129 420 105 411 l 54 411 l 54 369 l 72 369 b 144 342 105 369 129 360 b 165 265 160 324 167 299 l 151 -62 b 190 -194 149 -122 161 -166 b 332 -236 218 -222 265 -236 z "},"|":{"ha":310,"x_min":0,"x_max":0,"o":"m 133 -228 l 176 -228 l 176 1089 l 133 1089 z "},"}":{"ha":418,"x_min":0,"x_max":0,"o":"m 86 1017 l 56 1017 l 56 969 l 83 969 b 187 941 131 969 165 960 b 217 843 209 922 219 889 l 203 515 b 211 450 202 490 205 469 b 246 406 218 431 229 417 b 311 389 263 394 284 389 l 311 392 b 246 375 284 392 263 386 b 211 331 229 364 218 349 b 203 265 205 312 202 290 l 217 -62 b 187 -160 219 -109 209 -141 b 83 -189 165 -179 131 -189 l 56 -189 l 56 -236 l 86 -236 b 228 -194 153 -236 200 -222 b 267 -62 257 -166 269 -122 l 253 265 b 274 342 251 299 258 324 b 346 369 289 360 313 369 l 364 369 l 364 411 l 346 411 b 274 438 313 411 289 420 b 253 515 258 456 251 482 l 267 843 b 228 974 269 902 257 946 b 86 1017 200 1003 153 1017 z "},"~":{"ha":783,"x_min":0,"x_max":0,"o":"m 171 431 l 206 431 b 221 472 206 448 211 462 b 272 488 231 482 248 488 b 327 479 291 488 309 485 b 389 456 345 474 366 466 b 457 431 417 444 439 436 b 513 422 475 425 493 422 b 585 446 543 422 567 430 b 614 521 603 462 613 487 l 579 521 b 563 479 579 503 574 489 b 510 464 551 469 534 464 b 456 472 491 464 473 467 b 394 496 439 478 419 486 b 328 521 369 507 347 515 b 272 529 310 526 292 529 b 199 506 242 529 217 521 b 171 431 181 490 172 465 z "},"¡":{"ha":289,"x_min":0,"x_max":0,"o":"m 163 499 l 119 499 l 113 207 l 113 -251 l 168 -251 l 168 207 z m 183 726 l 100 726 l 100 636 l 183 636 z "},"¢":{"ha":742,"x_min":0,"x_max":0,"o":"m 406 -8 l 453 -8 l 453 119 l 406 119 z m 406 824 l 453 825 l 453 953 l 406 953 z m 419 110 b 619 171 500 110 567 130 b 724 353 672 212 707 272 l 674 360 b 587 209 658 294 629 244 b 421 157 545 174 489 157 b 227 242 340 157 276 185 b 154 474 178 299 154 376 b 189 640 154 538 166 593 b 288 749 212 688 245 724 b 435 788 330 775 379 788 b 588 739 498 788 549 771 b 665 596 628 706 653 659 l 718 604 b 667 727 709 651 692 692 b 572 807 643 762 611 788 b 435 835 532 825 487 835 b 261 791 369 835 311 820 b 145 665 211 762 172 720 b 104 472 118 609 104 545 b 143 281 104 399 117 335 b 253 154 169 226 206 184 b 419 110 301 125 356 110 z "},"£":{"ha":785,"x_min":0,"x_max":0,"o":"m 111 44 l 111 0 l 722 0 l 722 47 l 158 47 l 158 29 b 231 61 179 31 203 42 b 303 147 258 81 283 109 b 335 285 324 185 335 231 b 322 389 335 324 330 358 b 283 497 313 419 300 456 b 247 604 267 540 254 575 b 235 700 239 633 235 665 b 294 872 235 774 254 831 b 460 933 333 913 388 933 b 599 886 519 933 566 918 b 675 747 633 855 658 808 l 724 757 b 669 880 711 806 693 847 b 583 955 646 913 617 938 b 461 981 548 972 507 981 b 319 949 408 981 361 970 b 219 856 277 928 243 897 b 182 701 194 814 182 763 b 194 598 182 663 186 629 b 232 490 203 567 215 531 b 269 383 249 448 261 412 b 282 285 278 353 282 321 b 229 115 282 210 264 153 b 111 44 194 77 155 54 z m 97 432 l 606 432 l 606 479 l 97 479 z "},"¤":{"ha":1004,"x_min":0,"x_max":0,"o":"m 497 143 b 663 182 557 143 613 156 b 785 297 714 208 754 246 b 831 483 815 348 831 410 b 785 669 831 556 815 619 b 663 785 754 720 714 759 b 497 824 613 811 557 824 b 331 785 437 824 382 811 b 210 669 281 759 240 720 b 164 483 179 619 164 556 b 210 297 164 410 179 348 b 331 182 240 246 281 208 b 497 143 382 156 437 143 z m 117 99 l 260 249 l 225 281 l 82 133 z m 225 688 l 260 719 l 117 868 l 82 835 z m 497 190 b 358 224 447 190 401 201 b 253 323 315 246 280 279 b 214 483 227 367 214 420 b 253 644 214 546 227 600 b 358 743 280 688 315 721 b 497 776 401 765 447 776 b 637 743 547 776 594 765 b 741 644 680 721 715 688 b 781 483 767 600 781 546 b 741 323 781 420 767 367 b 637 224 715 279 680 246 b 497 190 594 201 547 190 z m 875 99 l 910 133 l 767 281 l 732 249 z m 767 688 l 910 835 l 875 868 l 732 719 z "},"¥":{"ha":926,"x_min":0,"x_max":0,"o":"m 450 372 l 476 372 l 853 972 l 797 972 l 454 424 l 475 424 l 133 972 l 74 972 z m 438 0 l 488 0 l 489 425 l 439 425 z m 172 244 l 754 244 l 754 289 l 172 289 z m 172 383 l 754 383 l 754 428 l 172 428 z "},"§":{"ha":800,"x_min":0,"x_max":0,"o":"m 549 131 l 594 108 b 693 221 638 145 671 183 b 726 343 715 259 726 300 b 690 450 726 385 714 420 b 595 524 665 480 634 504 b 463 576 557 543 513 561 b 438 584 454 579 446 582 b 413 592 429 586 421 589 b 284 636 357 608 314 623 b 210 689 254 649 229 667 b 181 778 190 711 181 741 b 235 891 181 829 199 866 b 383 928 272 916 321 928 b 572 870 466 928 528 909 b 638 700 615 832 637 775 l 689 708 b 649 856 688 767 675 816 b 541 945 623 895 587 925 b 381 975 495 965 442 975 b 244 951 327 975 281 967 b 159 883 206 936 178 913 b 131 778 140 854 131 819 b 168 661 131 730 143 691 b 261 593 193 631 224 609 b 413 542 298 577 349 560 b 428 537 417 540 422 538 b 444 532 433 535 439 534 b 617 457 519 510 577 485 b 676 340 656 429 676 390 b 644 228 676 299 666 261 b 549 131 623 196 591 163 z m 418 -237 b 555 -214 472 -237 517 -230 b 640 -146 592 -198 621 -175 b 668 -40 659 -116 668 -81 b 631 76 668 8 656 47 b 538 144 606 106 575 129 b 386 196 500 160 450 177 b 371 201 381 198 376 199 b 354 206 365 202 360 204 b 182 281 279 228 222 253 b 122 397 142 308 122 347 b 154 509 122 439 133 476 b 250 607 175 542 207 575 l 204 629 b 106 517 161 592 128 555 b 72 394 83 479 72 438 b 109 288 72 353 84 317 b 203 214 134 258 165 233 b 336 161 242 194 286 177 l 386 146 b 515 101 442 129 484 114 b 589 49 545 88 569 71 b 618 -40 608 26 618 -3 b 563 -153 618 -91 600 -129 b 415 -190 527 -178 477 -190 b 227 -133 333 -190 270 -171 b 161 38 184 -94 162 -37 l 110 29 b 150 -118 111 -29 124 -78 b 258 -208 176 -158 212 -188 b 418 -237 303 -228 357 -237 z "},"¨":{"ha":386,"x_min":0,"x_max":0,"o":"m 294 819 l 344 819 l 344 965 l 294 965 z m 42 819 l 92 819 l 92 965 l 42 965 z "},"©":{"ha":1151,"x_min":0,"x_max":0,"o":"m 581 -11 b 838 52 676 -11 762 10 b 1017 229 913 94 973 153 b 1082 486 1060 305 1082 391 b 1017 743 1082 581 1060 667 b 838 920 974 819 915 878 b 581 983 762 962 676 983 b 322 920 485 983 399 962 b 142 743 245 878 185 819 b 76 486 98 667 76 581 b 142 230 76 391 98 305 b 323 53 186 154 247 95 b 581 -11 399 10 485 -11 z m 581 35 b 348 92 494 35 417 54 b 185 251 279 130 225 183 b 126 485 146 320 126 398 b 185 719 126 572 146 650 b 348 880 225 788 279 841 b 581 938 417 918 494 938 b 811 880 666 938 743 918 b 973 719 880 841 934 788 b 1032 485 1012 650 1032 572 b 974 251 1032 398 1013 320 b 813 92 935 183 881 130 b 581 35 744 54 667 35 z m 588 204 b 742 252 650 204 701 220 b 824 394 784 284 811 331 l 785 399 b 717 282 773 348 750 309 b 589 242 684 255 642 242 b 438 308 526 242 475 264 b 381 488 400 353 381 413 b 408 617 381 538 390 581 b 485 702 426 654 451 682 b 600 732 518 722 556 732 b 719 694 649 732 689 719 b 779 583 750 669 770 632 l 819 589 b 747 722 809 645 785 690 b 600 769 709 753 660 769 b 464 735 548 769 503 758 b 374 636 425 712 395 679 b 342 486 352 594 342 544 b 409 281 342 401 364 333 b 588 204 454 230 513 204 z "},"ª":{"ha":675,"x_min":0,"x_max":0,"o":"m 267 479 b 404 517 318 479 363 492 b 488 619 445 543 473 577 l 478 624 l 478 485 l 513 485 l 513 817 b 463 940 513 869 496 910 b 329 983 430 969 386 983 b 193 941 273 983 227 969 b 132 825 159 913 138 874 l 167 818 b 218 915 172 859 189 891 b 332 950 247 938 285 950 b 440 914 379 950 415 938 b 478 811 465 890 478 856 l 478 757 l 260 738 b 150 699 213 734 177 721 b 110 606 123 678 110 646 b 153 512 110 565 124 534 b 267 479 183 490 220 479 z m 111 299 l 513 299 l 513 333 l 111 333 z m 269 513 b 181 536 234 513 205 520 b 144 607 156 552 144 575 b 176 676 144 637 155 659 b 264 706 197 692 226 702 l 478 725 l 478 703 b 449 606 478 668 468 635 b 371 538 429 577 403 554 b 269 513 338 521 305 513 z "},"«":{"ha":603,"x_min":0,"x_max":0,"o":"m 483 125 l 531 125 l 354 382 l 354 340 l 531 597 l 482 597 l 318 361 z m 236 125 l 285 125 l 107 382 l 107 340 l 285 597 l 235 597 l 72 361 z "},"®":{"ha":1156,"x_min":0,"x_max":0,"o":"m 581 -11 b 838 52 676 -11 762 10 b 1017 229 913 94 973 153 b 1082 486 1060 305 1082 391 b 1017 743 1082 581 1060 667 b 838 920 974 819 915 878 b 581 983 762 962 676 983 b 322 920 485 983 399 962 b 142 743 245 878 185 819 b 76 486 98 667 76 581 b 142 230 76 391 98 305 b 323 53 186 154 247 95 b 581 -11 399 10 485 -11 z m 581 35 b 348 92 494 35 417 54 b 185 251 279 130 225 183 b 126 485 146 320 126 398 b 185 719 126 572 146 650 b 348 880 225 788 279 841 b 581 938 417 918 494 938 b 812 881 666 938 743 919 b 974 720 881 843 935 789 b 1032 485 1013 651 1032 573 b 974 251 1032 398 1013 320 b 813 92 935 183 881 130 b 581 35 744 54 667 35 z m 415 211 l 465 211 l 465 444 l 604 444 b 721 357 673 444 712 415 l 746 211 l 799 211 l 769 369 b 734 441 764 401 752 425 b 658 472 716 457 691 468 l 657 457 b 765 508 705 463 741 480 b 801 610 789 537 801 571 b 753 725 801 657 785 695 b 614 769 720 755 674 769 l 415 769 z m 607 493 l 465 493 l 465 722 l 607 722 b 713 692 653 722 688 712 b 749 608 737 672 749 644 b 712 524 749 572 736 544 b 607 493 687 503 652 493 z "},"¯":{"ha":482,"x_min":0,"x_max":0,"o":"m 42 890 l 440 890 l 440 938 l 42 938 z "},"°":{"ha":581,"x_min":0,"x_max":0,"o":"m 290 564 b 401 590 331 564 368 572 b 478 663 434 607 459 631 b 506 774 496 694 506 731 b 445 926 506 838 485 888 b 290 982 405 963 353 982 b 180 956 250 982 213 973 b 103 883 147 939 121 915 b 75 774 84 852 75 815 b 136 622 75 711 95 660 b 290 564 177 583 228 564 z m 290 608 b 172 653 242 608 203 623 b 125 774 141 684 125 724 b 147 861 125 807 132 836 b 206 918 161 886 181 905 b 290 938 231 931 259 938 b 408 892 338 938 377 922 b 456 774 440 862 456 823 b 433 688 456 741 448 713 b 374 629 419 663 399 643 b 290 608 349 615 321 608 z "},"±":{"ha":942,"x_min":0,"x_max":0,"o":"m 446 210 l 493 210 l 493 444 l 754 444 l 754 492 l 493 492 l 493 726 l 446 726 l 446 492 l 185 492 l 185 444 l 446 444 z m 185 89 l 754 89 l 754 136 l 185 136 z "},"´":{"ha":236,"x_min":0,"x_max":0,"o":"m 42 819 l 89 819 l 194 1028 l 136 1028 z "},"¶":{"ha":881,"x_min":0,"x_max":0,"o":"m 494 0 l 544 0 l 544 925 l 681 925 l 681 0 l 731 0 l 731 972 l 419 972 b 242 934 350 972 291 959 b 130 826 193 909 155 873 b 92 667 104 780 92 727 b 130 507 92 606 104 553 b 242 399 155 461 193 425 b 419 361 291 374 350 361 l 494 361 z m 429 408 b 216 481 337 408 266 433 b 142 667 166 530 142 592 b 174 798 142 715 153 759 b 272 891 196 837 228 868 b 429 925 315 914 367 925 l 494 925 l 494 408 z "},"·":{"ha":274,"x_min":0,"x_max":0,"o":"m 138 376 b 166 386 150 376 159 380 b 176 414 173 393 176 402 b 166 441 176 425 173 434 b 138 451 159 448 150 451 b 109 441 125 451 116 448 b 99 414 102 434 99 425 b 109 386 99 402 102 393 b 138 376 116 380 125 376 z "},"¸":{"ha":303,"x_min":0,"x_max":0,"o":"m 111 -296 b 222 -267 158 -296 195 -286 b 261 -186 248 -247 261 -220 b 218 -103 261 -151 247 -123 b 99 -72 189 -82 150 -72 l 110 -100 l 143 15 l 101 15 l 67 -106 b 183 -124 120 -106 159 -112 b 219 -185 207 -137 219 -157 b 192 -239 219 -209 210 -227 b 110 -257 174 -251 147 -257 b 42 -253 87 -257 64 -256 l 42 -292 b 111 -296 66 -294 89 -296 z "},"º":{"ha":711,"x_min":0,"x_max":0,"o":"m 356 474 b 485 504 405 474 448 484 b 572 592 522 525 551 554 b 603 726 592 630 603 675 b 535 913 603 804 580 866 b 356 982 491 959 431 982 b 224 951 306 982 262 972 b 137 861 187 930 158 900 b 106 726 116 822 106 777 b 174 542 106 650 128 588 b 356 474 220 497 281 474 z m 125 289 l 586 289 l 586 336 l 125 336 z m 356 521 b 209 576 294 521 245 539 b 156 728 173 613 156 664 b 181 838 156 769 164 806 b 251 910 197 869 221 893 b 356 935 281 926 316 935 b 499 878 416 935 464 916 b 553 726 535 841 553 790 b 529 617 553 685 545 648 b 461 546 513 586 491 563 b 356 521 431 529 396 521 z "},"»":{"ha":603,"x_min":0,"x_max":0,"o":"m 318 125 l 367 125 l 531 361 l 368 597 l 318 597 l 496 340 l 496 382 z m 72 125 l 121 125 l 285 361 l 121 597 l 72 597 l 249 340 l 249 382 z "},"¿":{"ha":586,"x_min":0,"x_max":0,"o":"m 354 397 l 354 494 l 304 494 l 304 404 b 274 296 304 361 294 325 b 182 201 253 267 223 236 b 110 135 152 177 128 155 b 65 63 92 116 77 91 b 46 -37 52 34 46 0 b 113 -203 46 -112 68 -167 b 279 -258 157 -240 213 -258 b 439 -207 335 -258 388 -241 b 563 -39 490 -173 531 -117 l 508 -28 b 409 -168 485 -93 452 -139 b 281 -211 366 -197 323 -211 b 151 -168 231 -211 187 -197 b 96 -35 114 -139 96 -95 b 113 51 96 -2 102 26 b 155 114 125 75 139 96 b 222 176 171 131 194 152 b 292 240 251 200 274 222 b 336 306 309 258 324 280 b 354 397 348 333 354 363 z m 372 722 l 283 722 l 283 632 l 372 632 z "},"À":{"ha":969,"x_min":0,"x_max":0,"o":"m 40 0 l 94 0 l 483 932 l 485 932 l 875 0 l 928 0 l 517 978 l 453 978 z m 192 311 l 778 311 l 764 358 l 206 358 z m 485 1083 l 524 1083 l 460 1292 l 411 1292 z "},"Á":{"ha":969,"x_min":0,"x_max":0,"o":"m 40 0 l 94 0 l 483 932 l 485 932 l 875 0 l 928 0 l 517 978 l 453 978 z m 192 311 l 778 311 l 764 358 l 206 358 z m 461 1083 l 508 1083 l 614 1292 l 556 1292 z "},"Â":{"ha":969,"x_min":0,"x_max":0,"o":"m 40 0 l 94 0 l 483 932 l 485 932 l 875 0 l 928 0 l 517 978 l 453 978 z m 192 311 l 778 311 l 764 358 l 206 358 z m 289 1075 l 344 1075 l 499 1217 l 471 1217 l 625 1075 l 682 1075 l 513 1231 l 457 1231 z "},"Ã":{"ha":969,"x_min":0,"x_max":0,"o":"m 40 0 l 94 0 l 483 932 l 485 932 l 875 0 l 928 0 l 517 978 l 453 978 z m 192 311 l 778 311 l 764 358 l 206 358 z m 311 1126 l 349 1126 b 359 1178 349 1149 352 1166 b 393 1197 366 1191 377 1197 b 433 1189 407 1197 420 1194 b 481 1165 446 1183 462 1175 b 532 1140 501 1154 518 1146 b 576 1132 546 1135 561 1132 b 635 1160 600 1132 620 1141 b 657 1244 650 1178 657 1206 l 619 1244 b 608 1192 619 1222 616 1205 b 574 1174 601 1180 589 1174 b 533 1182 560 1174 546 1176 b 488 1206 520 1188 505 1195 b 436 1231 466 1217 449 1225 b 393 1239 423 1236 409 1239 b 333 1212 368 1239 348 1230 b 311 1126 319 1194 311 1165 z "},"Ä":{"ha":969,"x_min":0,"x_max":0,"o":"m 40 0 l 94 0 l 483 932 l 485 932 l 875 0 l 928 0 l 517 978 l 453 978 z m 192 311 l 778 311 l 764 358 l 206 358 z m 586 1121 l 636 1121 l 636 1267 l 586 1267 z m 333 1121 l 383 1121 l 383 1267 l 333 1267 z "},"Å":{"ha":969,"x_min":0,"x_max":0,"o":"m 40 0 l 94 0 l 483 932 l 485 932 l 875 0 l 928 0 l 517 978 l 453 978 z m 192 311 l 778 311 l 764 358 l 206 358 z m 485 1093 b 552 1108 510 1093 532 1098 b 599 1150 572 1117 588 1131 b 617 1215 611 1169 617 1190 b 580 1306 617 1254 604 1284 b 485 1338 555 1327 524 1338 b 390 1306 446 1338 414 1327 b 353 1215 365 1284 353 1254 b 390 1126 353 1177 365 1147 b 485 1093 414 1104 446 1093 z m 483 1126 b 419 1150 457 1126 436 1134 b 393 1215 402 1166 393 1188 b 419 1281 393 1243 402 1265 b 483 1304 436 1296 457 1304 b 550 1281 510 1304 532 1296 b 576 1215 568 1265 576 1243 b 550 1150 576 1188 568 1166 b 483 1126 532 1134 510 1126 z "},"Æ":{"ha":1346,"x_min":0,"x_max":0,"o":"m -18 0 l 36 0 l 618 929 l 624 929 l 624 333 l 231 333 l 201 286 l 624 286 l 624 0 l 1242 0 l 1242 47 l 674 47 l 674 450 l 1193 450 l 1193 497 l 674 497 l 674 925 l 1235 925 l 1235 972 l 586 972 z "},"Ç":{"ha":1040,"x_min":0,"x_max":0,"o":"m 533 -8 b 803 74 645 -8 735 19 b 942 315 872 129 918 210 l 893 324 b 769 110 870 228 829 157 b 532 39 710 63 631 39 b 323 93 453 39 384 57 b 181 249 262 129 215 181 b 129 488 146 316 129 396 b 181 724 129 577 146 656 b 323 879 215 791 262 843 b 532 933 384 915 453 933 b 765 866 630 933 708 911 b 883 661 823 821 862 753 l 932 669 b 858 840 917 737 893 794 b 725 945 824 887 780 922 b 533 981 670 969 606 981 b 299 920 446 981 368 960 b 138 747 230 880 176 822 b 79 486 99 672 79 585 b 137 225 79 387 98 300 b 297 52 175 150 229 92 b 533 -8 366 12 444 -8 z m 513 -296 b 623 -267 560 -296 597 -286 b 663 -186 649 -247 663 -220 b 619 -103 663 -151 648 -123 b 500 -72 591 -82 551 -72 l 511 -100 l 544 15 l 503 15 l 468 -106 b 585 -124 522 -106 561 -112 b 621 -185 609 -137 621 -157 b 594 -239 621 -209 612 -227 b 511 -257 576 -251 548 -257 b 443 -253 488 -257 465 -256 l 443 -292 b 513 -296 467 -294 490 -296 z "},"È":{"ha":872,"x_min":0,"x_max":0,"o":"m 150 0 l 768 0 l 768 47 l 200 47 l 200 450 l 719 450 l 719 497 l 200 497 l 200 925 l 761 925 l 761 972 l 150 972 z m 465 1083 l 504 1083 l 440 1292 l 392 1292 z "},"É":{"ha":872,"x_min":0,"x_max":0,"o":"m 150 0 l 768 0 l 768 47 l 200 47 l 200 450 l 719 450 l 719 497 l 200 497 l 200 925 l 761 925 l 761 972 l 150 972 z m 442 1083 l 489 1083 l 594 1292 l 536 1292 z "},"Ê":{"ha":872,"x_min":0,"x_max":0,"o":"m 150 0 l 768 0 l 768 47 l 200 47 l 200 450 l 719 450 l 719 497 l 200 497 l 200 925 l 761 925 l 761 972 l 150 972 z m 269 1075 l 325 1075 l 479 1217 l 451 1217 l 606 1075 l 663 1075 l 493 1231 l 438 1231 z "},"Ë":{"ha":872,"x_min":0,"x_max":0,"o":"m 150 0 l 768 0 l 768 47 l 200 47 l 200 450 l 719 450 l 719 497 l 200 497 l 200 925 l 761 925 l 761 972 l 150 972 z m 567 1121 l 617 1121 l 617 1267 l 567 1267 z m 314 1121 l 364 1121 l 364 1267 l 314 1267 z "},"Ì":{"ha":356,"x_min":0,"x_max":0,"o":"m 153 0 l 203 0 l 203 972 l 153 972 z m 178 1083 l 217 1083 l 153 1292 l 104 1292 z "},"Í":{"ha":356,"x_min":0,"x_max":0,"o":"m 153 0 l 203 0 l 203 972 l 153 972 z m 154 1083 l 201 1083 l 307 1292 l 249 1292 z "},"Î":{"ha":356,"x_min":0,"x_max":0,"o":"m 153 0 l 203 0 l 203 972 l 153 972 z m -18 1075 l 38 1075 l 192 1217 l 164 1217 l 318 1075 l 375 1075 l 206 1231 l 150 1231 z "},"Ï":{"ha":356,"x_min":0,"x_max":0,"o":"m 153 0 l 203 0 l 203 972 l 153 972 z m 279 1121 l 329 1121 l 329 1267 l 279 1267 z m 26 1121 l 76 1121 l 76 1267 l 26 1267 z "},"Ð":{"ha":1042,"x_min":0,"x_max":0,"o":"m 6 464 l 469 464 l 469 511 l 6 511 z m 147 0 l 490 0 b 734 64 585 0 666 21 b 890 239 802 106 854 165 b 943 488 925 313 943 396 b 890 734 943 578 925 660 b 733 908 854 808 802 866 b 490 972 665 951 584 972 l 147 972 z m 197 47 l 197 925 l 481 925 b 701 868 566 925 639 906 b 844 712 763 830 811 778 b 893 488 877 646 893 571 b 845 261 893 403 877 328 b 703 104 813 194 766 142 b 479 47 641 66 566 47 z "},"Ñ":{"ha":1022,"x_min":0,"x_max":0,"o":"m 150 0 l 200 0 l 200 446 l 200 482 l 200 517 b 199 705 200 581 200 643 b 196 893 198 766 197 829 l 199 893 l 822 0 l 872 0 l 872 972 l 822 972 l 822 379 b 824 172 822 288 823 219 l 826 81 l 824 79 l 200 972 l 150 972 z m 356 1126 l 393 1126 b 403 1178 393 1149 397 1166 b 438 1197 410 1191 422 1197 b 478 1189 451 1197 465 1194 b 525 1165 491 1183 506 1175 b 576 1140 545 1154 563 1146 b 621 1132 590 1135 605 1132 b 679 1160 645 1132 664 1141 b 701 1244 694 1178 701 1206 l 664 1244 b 653 1192 664 1222 660 1205 b 618 1174 645 1180 634 1174 b 578 1182 604 1174 591 1176 b 532 1206 565 1188 550 1195 b 481 1231 511 1217 494 1225 b 438 1239 468 1236 453 1239 b 378 1212 413 1239 393 1230 b 356 1126 363 1194 356 1165 z "},"Ò":{"ha":1113,"x_min":0,"x_max":0,"o":"m 557 -8 b 796 53 647 -8 726 12 b 957 227 865 95 919 153 b 1014 483 995 302 1014 387 b 957 742 1014 581 995 667 b 796 918 919 818 865 876 b 557 981 726 960 647 981 b 317 918 466 981 386 960 b 156 742 247 876 194 818 b 99 483 118 667 99 581 b 156 227 99 387 118 302 b 317 53 194 153 247 95 b 557 -8 386 12 466 -8 z m 557 39 b 343 94 476 39 405 57 b 199 251 281 131 233 184 b 149 483 166 318 149 395 b 200 719 149 572 166 651 b 344 877 234 787 282 840 b 557 933 405 915 476 933 b 770 877 638 933 709 915 b 913 719 832 840 879 787 b 964 483 947 651 964 572 b 913 251 964 395 947 318 b 770 94 879 184 832 131 b 557 39 709 57 638 39 z m 557 1083 l 596 1083 l 532 1292 l 483 1292 z "},"Ó":{"ha":1113,"x_min":0,"x_max":0,"o":"m 557 -8 b 796 53 647 -8 726 12 b 957 227 865 95 919 153 b 1014 483 995 302 1014 387 b 957 742 1014 581 995 667 b 796 918 919 818 865 876 b 557 981 726 960 647 981 b 317 918 466 981 386 960 b 156 742 247 876 194 818 b 99 483 118 667 99 581 b 156 227 99 387 118 302 b 317 53 194 153 247 95 b 557 -8 386 12 466 -8 z m 557 39 b 343 94 476 39 405 57 b 199 251 281 131 233 184 b 149 483 166 318 149 395 b 200 719 149 572 166 651 b 344 877 234 787 282 840 b 557 933 405 915 476 933 b 770 877 638 933 709 915 b 913 719 832 840 879 787 b 964 483 947 651 964 572 b 913 251 964 395 947 318 b 770 94 879 184 832 131 b 557 39 709 57 638 39 z m 533 1083 l 581 1083 l 686 1292 l 628 1292 z "},"Ô":{"ha":1113,"x_min":0,"x_max":0,"o":"m 557 -8 b 796 53 647 -8 726 12 b 957 227 865 95 919 153 b 1014 483 995 302 1014 387 b 957 742 1014 581 995 667 b 796 918 919 818 865 876 b 557 981 726 960 647 981 b 317 918 466 981 386 960 b 156 742 247 876 194 818 b 99 483 118 667 99 581 b 156 227 99 387 118 302 b 317 53 194 153 247 95 b 557 -8 386 12 466 -8 z m 557 39 b 343 94 476 39 405 57 b 199 251 281 131 233 184 b 149 483 166 318 149 395 b 200 719 149 572 166 651 b 344 877 234 787 282 840 b 557 933 405 915 476 933 b 770 877 638 933 709 915 b 913 719 832 840 879 787 b 964 483 947 651 964 572 b 913 251 964 395 947 318 b 770 94 879 184 832 131 b 557 39 709 57 638 39 z m 361 1075 l 417 1075 l 571 1217 l 543 1217 l 697 1075 l 754 1075 l 585 1231 l 529 1231 z "},"Õ":{"ha":1113,"x_min":0,"x_max":0,"o":"m 557 -8 b 796 53 647 -8 726 12 b 957 227 865 95 919 153 b 1014 483 995 302 1014 387 b 957 742 1014 581 995 667 b 796 918 919 818 865 876 b 557 981 726 960 647 981 b 317 918 466 981 386 960 b 156 742 247 876 194 818 b 99 483 118 667 99 581 b 156 227 99 387 118 302 b 317 53 194 153 247 95 b 557 -8 386 12 466 -8 z m 557 39 b 343 94 476 39 405 57 b 199 251 281 131 233 184 b 149 483 166 318 149 395 b 200 719 149 572 166 651 b 344 877 234 787 282 840 b 557 933 405 915 476 933 b 770 877 638 933 709 915 b 913 719 832 840 879 787 b 964 483 947 651 964 572 b 913 251 964 395 947 318 b 770 94 879 184 832 131 b 557 39 709 57 638 39 z m 383 1126 l 421 1126 b 431 1178 421 1149 424 1166 b 465 1197 438 1191 450 1197 b 506 1189 479 1197 493 1194 b 553 1165 519 1183 534 1175 b 604 1140 573 1154 590 1146 b 649 1132 618 1135 633 1132 b 707 1160 673 1132 692 1141 b 729 1244 722 1178 729 1206 l 692 1244 b 681 1192 692 1222 688 1205 b 646 1174 673 1180 662 1174 b 606 1182 632 1174 619 1176 b 560 1206 593 1188 577 1195 b 508 1231 538 1217 521 1225 b 465 1239 495 1236 481 1239 b 406 1212 440 1239 420 1230 b 383 1126 391 1194 383 1165 z "},"Ö":{"ha":1113,"x_min":0,"x_max":0,"o":"m 557 -8 b 796 53 647 -8 726 12 b 957 227 865 95 919 153 b 1014 483 995 302 1014 387 b 957 742 1014 581 995 667 b 796 918 919 818 865 876 b 557 981 726 960 647 981 b 317 918 466 981 386 960 b 156 742 247 876 194 818 b 99 483 118 667 99 581 b 156 227 99 387 118 302 b 317 53 194 153 247 95 b 557 -8 386 12 466 -8 z m 557 39 b 343 94 476 39 405 57 b 199 251 281 131 233 184 b 149 483 166 318 149 395 b 200 719 149 572 166 651 b 344 877 234 787 282 840 b 557 933 405 915 476 933 b 770 877 638 933 709 915 b 913 719 832 840 879 787 b 964 483 947 651 964 572 b 913 251 964 395 947 318 b 770 94 879 184 832 131 b 557 39 709 57 638 39 z m 658 1121 l 708 1121 l 708 1267 l 658 1267 z m 406 1121 l 456 1121 l 456 1267 l 406 1267 z "},"×":{"ha":936,"x_min":0,"x_max":0,"o":"m 243 200 l 468 426 l 692 201 l 728 238 l 503 463 l 726 688 l 690 724 l 468 497 l 244 724 l 208 688 l 433 463 l 208 238 z "},"Ø":{"ha":1113,"x_min":0,"x_max":0,"o":"m 168 69 l 981 871 l 946 904 l 135 106 z m 557 -8 b 796 53 647 -8 726 12 b 957 227 865 95 919 153 b 1014 483 995 302 1014 387 b 957 742 1014 581 995 667 b 796 918 919 818 865 876 b 557 981 726 960 647 981 b 317 918 466 981 386 960 b 156 742 247 876 194 818 b 99 483 118 667 99 581 b 156 227 99 387 118 302 b 317 53 194 153 247 95 b 557 -8 386 12 466 -8 z m 557 39 b 343 94 476 39 405 57 b 199 251 281 131 233 184 b 149 483 166 318 149 395 b 200 719 149 572 166 651 b 344 877 234 787 282 840 b 557 933 405 915 476 933 b 770 877 638 933 709 915 b 913 719 832 840 879 787 b 964 483 947 651 964 572 b 913 251 964 395 947 318 b 770 94 879 184 832 131 b 557 39 709 57 638 39 z "},"Ù":{"ha":979,"x_min":0,"x_max":0,"o":"m 490 -8 b 674 35 558 -8 619 6 b 803 163 728 63 771 106 b 850 371 834 220 850 289 l 850 972 l 797 972 l 797 381 b 714 128 797 272 769 188 b 490 39 658 69 584 39 b 328 78 429 39 375 52 b 220 195 282 105 246 144 b 182 381 195 247 182 308 l 182 972 l 129 972 l 129 371 b 176 165 129 290 145 222 b 305 35 208 108 251 65 b 490 -8 359 6 421 -8 z m 490 1083 l 529 1083 l 465 1292 l 417 1292 z "},"Ú":{"ha":979,"x_min":0,"x_max":0,"o":"m 490 -8 b 674 35 558 -8 619 6 b 803 163 728 63 771 106 b 850 371 834 220 850 289 l 850 972 l 797 972 l 797 381 b 714 128 797 272 769 188 b 490 39 658 69 584 39 b 328 78 429 39 375 52 b 220 195 282 105 246 144 b 182 381 195 247 182 308 l 182 972 l 129 972 l 129 371 b 176 165 129 290 145 222 b 305 35 208 108 251 65 b 490 -8 359 6 421 -8 z m 467 1083 l 514 1083 l 619 1292 l 561 1292 z "},"Û":{"ha":979,"x_min":0,"x_max":0,"o":"m 490 -8 b 674 35 558 -8 619 6 b 803 163 728 63 771 106 b 850 371 834 220 850 289 l 850 972 l 797 972 l 797 381 b 714 128 797 272 769 188 b 490 39 658 69 584 39 b 328 78 429 39 375 52 b 220 195 282 105 246 144 b 182 381 195 247 182 308 l 182 972 l 129 972 l 129 371 b 176 165 129 290 145 222 b 305 35 208 108 251 65 b 490 -8 359 6 421 -8 z m 294 1075 l 350 1075 l 504 1217 l 476 1217 l 631 1075 l 688 1075 l 518 1231 l 463 1231 z "},"Ü":{"ha":979,"x_min":0,"x_max":0,"o":"m 490 -8 b 674 35 558 -8 619 6 b 803 163 728 63 771 106 b 850 371 834 220 850 289 l 850 972 l 797 972 l 797 381 b 714 128 797 272 769 188 b 490 39 658 69 584 39 b 328 78 429 39 375 52 b 220 195 282 105 246 144 b 182 381 195 247 182 308 l 182 972 l 129 972 l 129 371 b 176 165 129 290 145 222 b 305 35 208 108 251 65 b 490 -8 359 6 421 -8 z m 592 1121 l 642 1121 l 642 1267 l 592 1267 z m 339 1121 l 389 1121 l 389 1267 l 339 1267 z "},"Ý":{"ha":826,"x_min":0,"x_max":0,"o":"m 399 413 l 428 413 l 776 972 l 715 972 l 401 461 l 426 461 l 111 972 l 50 972 z m 390 0 l 440 0 l 440 468 l 390 468 z m 390 1083 l 438 1083 l 543 1292 l 485 1292 z "},"Þ":{"ha":926,"x_min":0,"x_max":0,"o":"m 150 0 l 200 0 l 200 232 l 492 232 b 676 263 567 232 628 242 b 781 352 723 283 758 313 b 814 496 803 391 814 439 b 781 640 814 552 803 600 b 676 729 758 679 723 709 b 492 760 628 750 567 760 l 200 760 l 200 972 l 150 972 z m 482 279 l 200 279 l 200 713 l 482 713 b 701 657 588 713 660 694 b 761 496 741 620 761 566 b 700 335 761 425 741 372 b 482 279 659 298 587 279 z "},"ß":{"ha":806,"x_min":0,"x_max":0,"o":"m 111 686 l 111 0 l 161 0 l 161 679 b 228 893 161 769 183 840 b 418 972 272 946 336 972 b 599 912 495 972 555 952 b 664 751 642 872 664 818 b 603 600 664 689 644 639 b 435 542 562 561 506 542 l 349 542 l 349 494 l 446 494 b 588 463 503 494 551 484 b 671 379 626 441 653 413 b 697 271 688 345 697 309 b 625 108 697 202 673 148 b 444 47 577 67 517 47 l 349 47 l 349 0 l 451 0 b 604 32 509 0 560 11 b 709 124 649 53 684 84 b 747 267 734 165 747 212 b 692 434 747 333 729 389 b 554 521 656 479 610 508 b 671 611 603 540 642 570 b 714 757 700 652 714 700 b 679 894 714 809 702 855 b 578 987 656 934 622 965 b 424 1019 534 1009 483 1019 b 203 944 338 1019 265 994 b 111 686 142 893 111 807 z "},"à":{"ha":724,"x_min":0,"x_max":0,"o":"m 275 -8 b 464 47 345 -8 408 10 b 578 194 519 84 557 133 l 564 199 l 564 0 l 614 0 l 614 478 b 584 608 614 529 604 572 b 499 689 564 643 536 670 b 371 717 463 707 420 717 b 201 663 304 717 247 699 b 103 515 154 626 121 577 l 151 504 b 232 626 168 556 195 597 b 371 669 269 655 315 669 b 515 617 434 669 482 652 b 564 469 547 581 564 532 l 564 403 l 267 364 b 116 306 203 356 153 336 b 61 174 79 276 61 232 b 121 38 61 114 81 69 b 275 -8 161 7 212 -8 z m 279 39 b 160 74 232 39 192 50 b 111 176 127 97 111 131 b 153 273 111 219 125 251 b 274 317 181 295 221 309 l 564 356 l 564 314 b 524 174 564 263 550 216 b 418 75 497 132 462 99 b 279 39 375 51 328 39 z m 382 819 l 421 819 l 357 1028 l 308 1028 z "},"á":{"ha":724,"x_min":0,"x_max":0,"o":"m 275 -8 b 464 47 345 -8 408 10 b 578 194 519 84 557 133 l 564 199 l 564 0 l 614 0 l 614 478 b 584 608 614 529 604 572 b 499 689 564 643 536 670 b 371 717 463 707 420 717 b 201 663 304 717 247 699 b 103 515 154 626 121 577 l 151 504 b 232 626 168 556 195 597 b 371 669 269 655 315 669 b 515 617 434 669 482 652 b 564 469 547 581 564 532 l 564 403 l 267 364 b 116 306 203 356 153 336 b 61 174 79 276 61 232 b 121 38 61 114 81 69 b 275 -8 161 7 212 -8 z m 279 39 b 160 74 232 39 192 50 b 111 176 127 97 111 131 b 153 273 111 219 125 251 b 274 317 181 295 221 309 l 564 356 l 564 314 b 524 174 564 263 550 216 b 418 75 497 132 462 99 b 279 39 375 51 328 39 z m 356 819 l 403 819 l 508 1028 l 450 1028 z "},"â":{"ha":724,"x_min":0,"x_max":0,"o":"m 275 -8 b 464 47 345 -8 408 10 b 578 194 519 84 557 133 l 564 199 l 564 0 l 614 0 l 614 478 b 584 608 614 529 604 572 b 499 689 564 643 536 670 b 371 717 463 707 420 717 b 201 663 304 717 247 699 b 103 515 154 626 121 577 l 151 504 b 232 626 168 556 195 597 b 371 669 269 655 315 669 b 515 617 434 669 482 652 b 564 469 547 581 564 532 l 564 403 l 267 364 b 116 306 203 356 153 336 b 61 174 79 276 61 232 b 121 38 61 114 81 69 b 275 -8 161 7 212 -8 z m 279 39 b 160 74 232 39 192 50 b 111 176 127 97 111 131 b 153 273 111 219 125 251 b 274 317 181 295 221 309 l 564 356 l 564 314 b 524 174 564 263 550 216 b 418 75 497 132 462 99 b 279 39 375 51 328 39 z m 207 819 l 257 819 l 393 1018 l 374 1018 l 510 819 l 561 819 l 408 1028 l 358 1028 z "},"ã":{"ha":724,"x_min":0,"x_max":0,"o":"m 275 -8 b 464 47 345 -8 408 10 b 578 194 519 84 557 133 l 564 199 l 564 0 l 614 0 l 614 478 b 584 608 614 529 604 572 b 499 689 564 643 536 670 b 371 717 463 707 420 717 b 201 663 304 717 247 699 b 103 515 154 626 121 577 l 151 504 b 232 626 168 556 195 597 b 371 669 269 655 315 669 b 515 617 434 669 482 652 b 564 469 547 581 564 532 l 564 403 l 267 364 b 116 306 203 356 153 336 b 61 174 79 276 61 232 b 121 38 61 114 81 69 b 275 -8 161 7 212 -8 z m 279 39 b 160 74 232 39 192 50 b 111 176 127 97 111 131 b 153 273 111 219 125 251 b 274 317 181 295 221 309 l 564 356 l 564 314 b 524 174 564 263 550 216 b 418 75 497 132 462 99 b 279 39 375 51 328 39 z m 208 863 l 246 863 b 256 915 246 885 249 902 b 290 933 263 927 275 933 b 331 925 304 933 318 931 b 378 901 344 919 359 912 b 429 876 398 890 415 882 b 474 868 443 871 458 868 b 532 896 498 868 517 877 b 554 981 547 914 554 943 l 517 981 b 506 928 517 958 513 941 b 471 910 498 916 487 910 b 431 918 457 910 444 913 b 385 942 418 924 402 931 b 333 967 363 953 346 961 b 290 975 320 972 306 975 b 231 948 265 975 245 966 b 208 863 216 930 208 901 z "},"ä":{"ha":724,"x_min":0,"x_max":0,"o":"m 275 -8 b 464 47 345 -8 408 10 b 578 194 519 84 557 133 l 564 199 l 564 0 l 614 0 l 614 478 b 584 608 614 529 604 572 b 499 689 564 643 536 670 b 371 717 463 707 420 717 b 201 663 304 717 247 699 b 103 515 154 626 121 577 l 151 504 b 232 626 168 556 195 597 b 371 669 269 655 315 669 b 515 617 434 669 482 652 b 564 469 547 581 564 532 l 564 403 l 267 364 b 116 306 203 356 153 336 b 61 174 79 276 61 232 b 121 38 61 114 81 69 b 275 -8 161 7 212 -8 z m 279 39 b 160 74 232 39 192 50 b 111 176 127 97 111 131 b 153 273 111 219 125 251 b 274 317 181 295 221 309 l 564 356 l 564 314 b 524 174 564 263 550 216 b 418 75 497 132 462 99 b 279 39 375 51 328 39 z m 483 819 l 533 819 l 533 965 l 483 965 z m 231 819 l 281 819 l 281 965 l 231 965 z "},"å":{"ha":724,"x_min":0,"x_max":0,"o":"m 275 -8 b 464 47 345 -8 408 10 b 578 194 519 84 557 133 l 564 199 l 564 0 l 614 0 l 614 478 b 584 608 614 529 604 572 b 499 689 564 643 536 670 b 371 717 463 707 420 717 b 201 663 304 717 247 699 b 103 515 154 626 121 577 l 151 504 b 232 626 168 556 195 597 b 371 669 269 655 315 669 b 515 617 434 669 482 652 b 564 469 547 581 564 532 l 564 403 l 267 364 b 116 306 203 356 153 336 b 61 174 79 276 61 232 b 121 38 61 114 81 69 b 275 -8 161 7 212 -8 z m 279 39 b 160 74 232 39 192 50 b 111 176 127 97 111 131 b 153 273 111 219 125 251 b 274 317 181 295 221 309 l 564 356 l 564 314 b 524 174 564 263 550 216 b 418 75 497 132 462 99 b 279 39 375 51 328 39 z m 382 829 b 449 844 407 829 429 834 b 497 886 469 853 485 868 b 514 951 508 905 514 926 b 477 1042 514 990 502 1020 b 382 1074 453 1063 421 1074 b 287 1042 343 1074 311 1063 b 250 951 262 1020 250 990 b 287 862 250 913 262 884 b 382 829 311 840 343 829 z m 381 863 b 316 886 355 863 333 870 b 290 951 299 902 290 924 b 316 1017 290 979 299 1001 b 381 1040 333 1032 355 1040 b 447 1017 407 1040 430 1032 b 474 951 465 1001 474 979 b 447 886 474 924 465 902 b 381 863 430 870 407 863 z "},"æ":{"ha":1307,"x_min":0,"x_max":0,"o":"m 286 -8 b 435 24 338 -8 388 2 b 556 113 482 45 522 75 b 626 247 590 152 613 196 l 642 229 l 642 478 b 609 608 642 529 631 572 b 517 689 587 643 556 670 b 378 717 477 707 431 717 b 182 656 297 717 232 696 b 93 490 132 615 102 560 l 143 479 b 216 618 150 538 175 584 b 381 669 257 652 312 669 b 538 617 449 669 501 652 b 592 469 574 581 592 532 l 592 392 l 276 364 b 119 309 211 358 158 340 b 61 174 81 278 61 233 b 124 38 61 114 82 69 b 286 -8 165 7 219 -8 z m 290 39 b 163 74 240 39 198 50 b 111 176 128 97 111 131 b 156 276 111 219 126 252 b 283 318 186 299 229 313 l 592 346 l 592 314 b 549 174 592 263 578 216 b 438 75 521 132 484 99 b 290 39 391 51 342 39 z m 935 -10 b 1124 48 1013 -10 1076 9 b 1231 199 1171 86 1206 137 l 1182 215 b 1089 83 1161 158 1130 114 b 933 38 1048 53 996 38 b 735 118 850 38 784 64 b 661 346 686 172 661 248 b 698 522 661 414 673 473 b 797 633 722 571 755 608 b 933 669 838 657 883 669 b 1063 635 982 669 1026 658 b 1149 539 1101 612 1129 580 b 1179 403 1169 498 1179 453 b 1176 354 1179 377 1178 361 l 1192 401 l 642 401 l 654 354 l 1226 354 b 1228 374 1227 361 1228 367 b 1229 393 1229 380 1229 387 b 1192 563 1229 457 1217 513 b 1089 676 1168 612 1133 650 b 935 717 1044 703 993 717 b 774 673 876 717 823 702 b 656 548 725 644 685 602 b 611 357 626 494 611 430 b 653 153 611 276 625 209 b 767 31 681 98 719 57 b 935 -10 816 4 872 -10 z "},"ç":{"ha":763,"x_min":0,"x_max":0,"o":"m 394 -8 b 594 53 475 -8 542 12 b 699 235 647 94 682 154 l 649 242 b 562 91 633 176 604 126 b 396 39 520 56 464 39 b 202 124 315 39 251 67 b 129 356 153 181 129 258 b 164 522 129 419 141 475 b 263 631 187 569 220 606 b 410 669 305 657 354 669 b 563 621 473 669 524 653 b 640 478 603 588 628 541 l 693 486 b 642 609 684 533 667 574 b 547 689 618 644 586 670 b 410 717 507 707 462 717 b 236 673 344 717 286 702 b 120 547 186 644 147 602 b 79 354 93 491 79 427 b 118 163 79 281 92 217 b 228 36 144 108 181 66 b 394 -8 276 6 331 -8 z m 383 -296 b 494 -267 431 -296 467 -286 b 533 -186 520 -247 533 -220 b 490 -103 533 -151 519 -123 b 371 -72 462 -82 422 -72 l 382 -100 l 415 15 l 374 15 l 339 -106 b 456 -124 393 -106 431 -112 b 492 -185 480 -137 492 -157 b 465 -239 492 -209 483 -227 b 382 -257 447 -251 419 -257 b 314 -253 359 -257 336 -256 l 314 -292 b 383 -296 338 -294 361 -296 z "},"è":{"ha":775,"x_min":0,"x_max":0,"o":"m 403 -10 b 592 48 481 -10 544 9 b 699 199 639 86 675 137 l 650 215 b 557 83 629 158 598 114 b 401 38 516 53 464 38 b 203 118 318 38 252 64 b 129 346 154 172 129 248 b 166 522 129 414 141 473 b 265 633 191 571 223 608 b 401 669 306 657 351 669 b 531 635 450 669 494 658 b 617 539 569 612 597 580 b 647 403 637 498 647 453 b 644 354 647 377 646 361 l 660 401 l 110 401 l 122 354 l 694 354 b 697 374 695 361 696 367 b 697 393 697 380 697 387 b 660 563 697 457 685 513 b 557 676 636 612 601 650 b 403 717 513 703 461 717 b 242 673 344 717 291 702 b 124 548 193 644 153 602 b 79 357 94 494 79 430 b 121 153 79 276 93 209 b 235 31 149 98 187 57 b 403 -10 284 4 340 -10 z m 393 819 l 432 819 l 368 1028 l 319 1028 z "},"é":{"ha":775,"x_min":0,"x_max":0,"o":"m 403 -10 b 592 48 481 -10 544 9 b 699 199 639 86 675 137 l 650 215 b 557 83 629 158 598 114 b 401 38 516 53 464 38 b 203 118 318 38 252 64 b 129 346 154 172 129 248 b 166 522 129 414 141 473 b 265 633 191 571 223 608 b 401 669 306 657 351 669 b 531 635 450 669 494 658 b 617 539 569 612 597 580 b 647 403 637 498 647 453 b 644 354 647 377 646 361 l 660 401 l 110 401 l 122 354 l 694 354 b 697 374 695 361 696 367 b 697 393 697 380 697 387 b 660 563 697 457 685 513 b 557 676 636 612 601 650 b 403 717 513 703 461 717 b 242 673 344 717 291 702 b 124 548 193 644 153 602 b 79 357 94 494 79 430 b 121 153 79 276 93 209 b 235 31 149 98 187 57 b 403 -10 284 4 340 -10 z m 367 819 l 414 819 l 519 1028 l 461 1028 z "},"ê":{"ha":775,"x_min":0,"x_max":0,"o":"m 403 -10 b 592 48 481 -10 544 9 b 699 199 639 86 675 137 l 650 215 b 557 83 629 158 598 114 b 401 38 516 53 464 38 b 203 118 318 38 252 64 b 129 346 154 172 129 248 b 166 522 129 414 141 473 b 265 633 191 571 223 608 b 401 669 306 657 351 669 b 531 635 450 669 494 658 b 617 539 569 612 597 580 b 647 403 637 498 647 453 b 644 354 647 377 646 361 l 660 401 l 110 401 l 122 354 l 694 354 b 697 374 695 361 696 367 b 697 393 697 380 697 387 b 660 563 697 457 685 513 b 557 676 636 612 601 650 b 403 717 513 703 461 717 b 242 673 344 717 291 702 b 124 548 193 644 153 602 b 79 357 94 494 79 430 b 121 153 79 276 93 209 b 235 31 149 98 187 57 b 403 -10 284 4 340 -10 z m 218 819 l 268 819 l 404 1018 l 385 1018 l 521 819 l 572 819 l 419 1028 l 369 1028 z "},"ë":{"ha":775,"x_min":0,"x_max":0,"o":"m 403 -10 b 592 48 481 -10 544 9 b 699 199 639 86 675 137 l 650 215 b 557 83 629 158 598 114 b 401 38 516 53 464 38 b 203 118 318 38 252 64 b 129 346 154 172 129 248 b 166 522 129 414 141 473 b 265 633 191 571 223 608 b 401 669 306 657 351 669 b 531 635 450 669 494 658 b 617 539 569 612 597 580 b 647 403 637 498 647 453 b 644 354 647 377 646 361 l 660 401 l 110 401 l 122 354 l 694 354 b 697 374 695 361 696 367 b 697 393 697 380 697 387 b 660 563 697 457 685 513 b 557 676 636 612 601 650 b 403 717 513 703 461 717 b 242 673 344 717 291 702 b 124 548 193 644 153 602 b 79 357 94 494 79 430 b 121 153 79 276 93 209 b 235 31 149 98 187 57 b 403 -10 284 4 340 -10 z m 494 819 l 544 819 l 544 965 l 494 965 z m 242 819 l 292 819 l 292 965 l 242 965 z "},"ì":{"ha":269,"x_min":0,"x_max":0,"o":"m 111 0 l 158 0 l 158 708 l 111 708 z m 135 819 l 174 819 l 110 1028 l 61 1028 z "},"í":{"ha":269,"x_min":0,"x_max":0,"o":"m 111 0 l 158 0 l 158 708 l 111 708 z m 108 819 l 156 819 l 261 1028 l 203 1028 z "},"î":{"ha":269,"x_min":0,"x_max":0,"o":"m 111 0 l 158 0 l 158 708 l 111 708 z m -40 819 l 10 819 l 146 1018 l 126 1018 l 263 819 l 314 819 l 161 1028 l 111 1028 z "},"ï":{"ha":269,"x_min":0,"x_max":0,"o":"m 111 0 l 158 0 l 158 708 l 111 708 z m 236 819 l 286 819 l 286 965 l 236 965 z m -17 819 l 33 819 l 33 965 l -17 965 z "},"ð":{"ha":754,"x_min":0,"x_max":0,"o":"m 399 -8 b 572 36 466 -8 524 6 b 683 161 620 66 657 107 b 721 350 708 215 721 278 b 696 491 721 395 713 442 b 628 625 679 540 656 584 l 364 1003 l 303 1003 l 592 599 l 597 604 b 510 663 575 629 546 649 b 397 685 475 678 437 685 b 219 642 328 685 269 670 b 107 521 170 613 133 573 b 68 339 81 469 68 408 b 109 151 68 266 82 203 b 224 33 136 100 175 60 b 399 -8 274 5 332 -8 z m 399 39 b 247 76 340 39 290 51 b 151 181 205 100 172 135 b 118 339 129 226 118 279 b 153 501 118 402 130 456 b 251 603 176 546 209 580 b 399 638 293 626 342 638 b 545 601 455 638 504 625 b 639 497 586 576 618 541 b 671 339 660 452 671 399 b 638 177 671 276 660 222 b 542 74 615 132 584 98 b 399 39 501 51 453 39 z m 178 856 l 610 856 l 610 897 l 178 897 z "},"ñ":{"ha":794,"x_min":0,"x_max":0,"o":"m 111 0 l 161 0 l 161 393 b 190 522 161 437 171 479 b 276 627 209 564 237 599 b 417 669 314 655 361 669 b 581 609 486 669 541 649 b 640 417 620 569 640 505 l 640 0 l 690 0 l 690 433 b 620 642 690 522 667 592 b 422 717 573 692 507 717 b 283 683 369 717 322 706 b 190 602 244 661 213 634 b 142 507 167 570 151 538 l 161 471 l 161 708 l 111 708 z m 219 863 l 257 863 b 267 915 257 885 260 902 b 301 933 274 927 286 933 b 342 925 315 933 329 931 b 389 901 355 919 370 912 b 440 876 409 890 426 882 b 485 868 454 871 469 868 b 543 896 509 868 528 877 b 565 981 558 914 565 943 l 528 981 b 517 928 528 958 524 941 b 482 910 509 916 498 910 b 442 918 468 910 455 913 b 396 942 429 924 413 931 b 344 967 375 953 357 961 b 301 975 331 972 317 975 b 242 948 276 975 256 966 b 219 863 227 930 219 901 z "},"ò":{"ha":825,"x_min":0,"x_max":0,"o":"m 413 -8 b 584 35 476 -8 534 6 b 703 162 634 65 674 107 b 746 354 731 217 746 281 b 703 544 746 426 731 490 b 584 672 674 599 634 641 b 413 717 534 702 476 717 b 241 673 349 717 291 702 b 122 547 191 644 151 602 b 79 354 94 491 79 427 b 122 162 79 281 94 217 b 241 35 151 107 191 65 b 413 -8 291 6 349 -8 z m 413 39 b 266 76 358 39 309 51 b 165 184 223 100 189 136 b 129 354 141 232 129 288 b 165 524 129 420 141 477 b 266 633 189 572 223 608 b 413 669 309 657 358 669 b 559 633 467 669 516 657 b 660 524 602 608 636 572 b 696 354 684 477 696 420 b 660 184 696 288 684 232 b 559 76 636 136 602 100 b 413 39 516 51 467 39 z m 413 819 l 451 819 l 388 1028 l 339 1028 z "},"ó":{"ha":825,"x_min":0,"x_max":0,"o":"m 413 -8 b 584 35 476 -8 534 6 b 703 162 634 65 674 107 b 746 354 731 217 746 281 b 703 544 746 426 731 490 b 584 672 674 599 634 641 b 413 717 534 702 476 717 b 241 673 349 717 291 702 b 122 547 191 644 151 602 b 79 354 94 491 79 427 b 122 162 79 281 94 217 b 241 35 151 107 191 65 b 413 -8 291 6 349 -8 z m 413 39 b 266 76 358 39 309 51 b 165 184 223 100 189 136 b 129 354 141 232 129 288 b 165 524 129 420 141 477 b 266 633 189 572 223 608 b 413 669 309 657 358 669 b 559 633 467 669 516 657 b 660 524 602 608 636 572 b 696 354 684 477 696 420 b 660 184 696 288 684 232 b 559 76 636 136 602 100 b 413 39 516 51 467 39 z m 386 819 l 433 819 l 539 1028 l 481 1028 z "},"ô":{"ha":825,"x_min":0,"x_max":0,"o":"m 413 -8 b 584 35 476 -8 534 6 b 703 162 634 65 674 107 b 746 354 731 217 746 281 b 703 544 746 426 731 490 b 584 672 674 599 634 641 b 413 717 534 702 476 717 b 241 673 349 717 291 702 b 122 547 191 644 151 602 b 79 354 94 491 79 427 b 122 162 79 281 94 217 b 241 35 151 107 191 65 b 413 -8 291 6 349 -8 z m 413 39 b 266 76 358 39 309 51 b 165 184 223 100 189 136 b 129 354 141 232 129 288 b 165 524 129 420 141 477 b 266 633 189 572 223 608 b 413 669 309 657 358 669 b 559 633 467 669 516 657 b 660 524 602 608 636 572 b 696 354 684 477 696 420 b 660 184 696 288 684 232 b 559 76 636 136 602 100 b 413 39 516 51 467 39 z m 238 819 l 288 819 l 424 1018 l 404 1018 l 540 819 l 592 819 l 439 1028 l 389 1028 z "},"õ":{"ha":825,"x_min":0,"x_max":0,"o":"m 413 -8 b 584 35 476 -8 534 6 b 703 162 634 65 674 107 b 746 354 731 217 746 281 b 703 544 746 426 731 490 b 584 672 674 599 634 641 b 413 717 534 702 476 717 b 241 673 349 717 291 702 b 122 547 191 644 151 602 b 79 354 94 491 79 427 b 122 162 79 281 94 217 b 241 35 151 107 191 65 b 413 -8 291 6 349 -8 z m 413 39 b 266 76 358 39 309 51 b 165 184 223 100 189 136 b 129 354 141 232 129 288 b 165 524 129 420 141 477 b 266 633 189 572 223 608 b 413 669 309 657 358 669 b 559 633 467 669 516 657 b 660 524 602 608 636 572 b 696 354 684 477 696 420 b 660 184 696 288 684 232 b 559 76 636 136 602 100 b 413 39 516 51 467 39 z m 239 863 l 276 863 b 287 915 276 885 280 902 b 321 933 294 927 305 933 b 361 925 335 933 348 931 b 408 901 374 919 390 912 b 460 876 429 890 446 882 b 504 868 474 871 488 868 b 563 896 528 868 548 877 b 585 981 577 914 585 943 l 547 981 b 536 928 547 958 544 941 b 501 910 529 916 517 910 b 461 918 488 910 474 913 b 415 942 448 924 433 931 b 364 967 394 953 377 961 b 321 975 351 972 337 975 b 261 948 296 975 276 966 b 239 863 246 930 239 901 z "},"ö":{"ha":825,"x_min":0,"x_max":0,"o":"m 413 -8 b 584 35 476 -8 534 6 b 703 162 634 65 674 107 b 746 354 731 217 746 281 b 703 544 746 426 731 490 b 584 672 674 599 634 641 b 413 717 534 702 476 717 b 241 673 349 717 291 702 b 122 547 191 644 151 602 b 79 354 94 491 79 427 b 122 162 79 281 94 217 b 241 35 151 107 191 65 b 413 -8 291 6 349 -8 z m 413 39 b 266 76 358 39 309 51 b 165 184 223 100 189 136 b 129 354 141 232 129 288 b 165 524 129 420 141 477 b 266 633 189 572 223 608 b 413 669 309 657 358 669 b 559 633 467 669 516 657 b 660 524 602 608 636 572 b 696 354 684 477 696 420 b 660 184 696 288 684 232 b 559 76 636 136 602 100 b 413 39 516 51 467 39 z m 514 819 l 564 819 l 564 965 l 514 965 z m 261 819 l 311 819 l 311 965 l 261 965 z "},"÷":{"ha":940,"x_min":0,"x_max":0,"o":"m 186 439 l 756 439 l 756 485 l 186 485 z m 472 194 b 501 206 484 194 494 198 b 513 235 509 213 513 223 b 502 263 513 246 509 255 b 472 274 495 270 485 274 b 442 263 459 274 449 270 b 432 235 435 255 432 246 b 442 206 432 223 435 213 b 472 194 449 198 459 194 z m 472 657 b 501 668 484 657 494 661 b 513 697 509 675 513 685 b 502 725 513 708 509 718 b 472 736 495 732 485 736 b 442 725 459 736 449 732 b 432 697 435 718 432 708 b 442 668 432 685 435 675 b 472 657 449 661 459 657 z "},"ø":{"ha":851,"x_min":0,"x_max":0,"o":"m 107 14 l 761 661 l 733 690 l 79 43 z m 439 -8 b 610 35 503 -8 560 6 b 729 162 661 65 700 107 b 772 354 758 217 772 281 b 729 544 772 426 758 490 b 610 672 700 599 661 641 b 439 717 560 702 503 717 b 267 673 375 717 318 702 b 149 547 217 644 177 602 b 106 354 120 491 106 427 b 149 162 106 281 120 217 b 267 35 177 107 217 65 b 439 -8 318 6 375 -8 z m 439 39 b 292 76 384 39 335 51 b 192 184 249 100 216 136 b 156 354 168 232 156 288 b 192 524 156 420 168 477 b 292 633 216 572 249 608 b 439 669 335 657 384 669 b 585 633 494 669 542 657 b 686 524 628 608 662 572 b 722 354 710 477 722 420 b 686 184 722 288 710 232 b 585 76 662 136 628 100 b 439 39 542 51 494 39 z "},"ù":{"ha":779,"x_min":0,"x_max":0,"o":"m 369 -8 b 555 54 444 -8 505 13 b 639 218 604 96 632 150 l 618 219 l 618 0 l 668 0 l 668 708 l 618 708 l 618 315 b 589 171 618 261 608 213 b 506 74 569 129 542 97 b 382 39 469 50 428 39 b 216 102 313 39 257 60 b 154 283 175 144 154 205 l 154 708 l 104 708 l 104 283 b 137 125 104 221 115 169 b 229 26 159 81 189 48 b 369 -8 269 3 316 -8 z m 390 819 l 429 819 l 365 1028 l 317 1028 z "},"ú":{"ha":779,"x_min":0,"x_max":0,"o":"m 369 -8 b 555 54 444 -8 505 13 b 639 218 604 96 632 150 l 618 219 l 618 0 l 668 0 l 668 708 l 618 708 l 618 315 b 589 171 618 261 608 213 b 506 74 569 129 542 97 b 382 39 469 50 428 39 b 216 102 313 39 257 60 b 154 283 175 144 154 205 l 154 708 l 104 708 l 104 283 b 137 125 104 221 115 169 b 229 26 159 81 189 48 b 369 -8 269 3 316 -8 z m 364 819 l 411 819 l 517 1028 l 458 1028 z "},"û":{"ha":779,"x_min":0,"x_max":0,"o":"m 369 -8 b 555 54 444 -8 505 13 b 639 218 604 96 632 150 l 618 219 l 618 0 l 668 0 l 668 708 l 618 708 l 618 315 b 589 171 618 261 608 213 b 506 74 569 129 542 97 b 382 39 469 50 428 39 b 216 102 313 39 257 60 b 154 283 175 144 154 205 l 154 708 l 104 708 l 104 283 b 137 125 104 221 115 169 b 229 26 159 81 189 48 b 369 -8 269 3 316 -8 z m 215 819 l 265 819 l 401 1018 l 382 1018 l 518 819 l 569 819 l 417 1028 l 367 1028 z "},"ü":{"ha":779,"x_min":0,"x_max":0,"o":"m 369 -8 b 555 54 444 -8 505 13 b 639 218 604 96 632 150 l 618 219 l 618 0 l 668 0 l 668 708 l 618 708 l 618 315 b 589 171 618 261 608 213 b 506 74 569 129 542 97 b 382 39 469 50 428 39 b 216 102 313 39 257 60 b 154 283 175 144 154 205 l 154 708 l 104 708 l 104 283 b 137 125 104 221 115 169 b 229 26 159 81 189 48 b 369 -8 269 3 316 -8 z m 492 819 l 542 819 l 542 965 l 492 965 z m 239 819 l 289 819 l 289 965 l 239 965 z "},"ý":{"ha":715,"x_min":0,"x_max":0,"o":"m 74 -278 l 110 -278 b 209 -268 151 -278 184 -275 b 274 -226 234 -262 255 -248 b 329 -128 293 -205 312 -172 l 654 708 l 603 708 l 353 64 l 351 64 l 82 708 l 28 708 l 335 -17 l 333 13 l 271 -150 b 244 -199 263 -171 254 -188 b 210 -224 235 -211 224 -219 b 157 -231 197 -228 179 -231 l 74 -231 z m 318 819 l 365 819 l 471 1028 l 413 1028 z "},"þ":{"ha":836,"x_min":0,"x_max":0,"o":"m 111 -272 l 161 -272 l 161 236 l 139 235 b 247 56 156 158 191 98 b 447 -8 302 13 369 -8 b 621 37 515 -8 573 7 b 731 163 669 67 706 109 b 768 354 756 217 768 281 b 728 550 768 430 755 495 b 615 674 701 605 663 646 b 446 717 567 703 511 717 b 248 652 368 717 302 695 b 140 478 194 609 158 551 l 161 468 l 161 1003 l 111 1003 z m 438 39 b 289 78 380 39 331 52 b 194 188 247 104 216 141 b 161 354 172 236 161 291 b 196 524 161 420 173 477 b 293 633 219 572 251 608 b 439 669 335 657 383 669 b 642 584 526 669 594 641 b 715 354 691 527 715 450 b 681 184 715 288 704 232 b 583 76 657 136 625 100 b 438 39 542 51 493 39 z "},"ÿ":{"ha":715,"x_min":0,"x_max":0,"o":"m 74 -278 l 110 -278 b 209 -268 151 -278 184 -275 b 274 -226 234 -262 255 -248 b 329 -128 293 -205 312 -172 l 654 708 l 603 708 l 353 64 l 351 64 l 82 708 l 28 708 l 335 -17 l 333 13 l 271 -150 b 244 -199 263 -171 254 -188 b 210 -224 235 -211 224 -219 b 157 -231 197 -228 179 -231 l 74 -231 z m 446 819 l 496 819 l 496 965 l 446 965 z m 193 819 l 243 819 l 243 965 l 193 965 z "},"Ā":{"ha":969,"x_min":0,"x_max":0,"o":"m 40 0 l 94 0 l 483 932 l 485 932 l 875 0 l 928 0 l 517 978 l 453 978 z m 192 311 l 778 311 l 764 358 l 206 358 z m 285 1154 l 683 1154 l 683 1201 l 285 1201 z "},"ā":{"ha":724,"x_min":0,"x_max":0,"o":"m 275 -8 b 464 47 345 -8 408 10 b 578 194 519 84 557 133 l 564 199 l 564 0 l 614 0 l 614 478 b 584 608 614 529 604 572 b 499 689 564 643 536 670 b 371 717 463 707 420 717 b 201 663 304 717 247 699 b 103 515 154 626 121 577 l 151 504 b 232 626 168 556 195 597 b 371 669 269 655 315 669 b 515 617 434 669 482 652 b 564 469 547 581 564 532 l 564 403 l 267 364 b 116 306 203 356 153 336 b 61 174 79 276 61 232 b 121 38 61 114 81 69 b 275 -8 161 7 212 -8 z m 279 39 b 160 74 232 39 192 50 b 111 176 127 97 111 131 b 153 273 111 219 125 251 b 274 317 181 295 221 309 l 564 356 l 564 314 b 524 174 564 263 550 216 b 418 75 497 132 462 99 b 279 39 375 51 328 39 z m 182 890 l 581 890 l 581 938 l 182 938 z "},"Ă":{"ha":969,"x_min":0,"x_max":0,"o":"m 40 0 l 94 0 l 483 932 l 485 932 l 875 0 l 928 0 l 517 978 l 453 978 z m 192 311 l 778 311 l 764 358 l 206 358 z m 485 1090 b 610 1125 537 1090 578 1102 b 674 1238 641 1148 663 1186 l 625 1238 b 578 1157 615 1201 599 1175 b 485 1131 558 1139 526 1131 b 390 1157 442 1131 410 1139 b 344 1238 369 1175 354 1201 l 296 1238 b 359 1125 307 1186 328 1148 b 485 1090 390 1102 432 1090 z "},"ă":{"ha":724,"x_min":0,"x_max":0,"o":"m 275 -8 b 464 47 345 -8 408 10 b 578 194 519 84 557 133 l 564 199 l 564 0 l 614 0 l 614 478 b 584 608 614 529 604 572 b 499 689 564 643 536 670 b 371 717 463 707 420 717 b 201 663 304 717 247 699 b 103 515 154 626 121 577 l 151 504 b 232 626 168 556 195 597 b 371 669 269 655 315 669 b 515 617 434 669 482 652 b 564 469 547 581 564 532 l 564 403 l 267 364 b 116 306 203 356 153 336 b 61 174 79 276 61 232 b 121 38 61 114 81 69 b 275 -8 161 7 212 -8 z m 279 39 b 160 74 232 39 192 50 b 111 176 127 97 111 131 b 153 273 111 219 125 251 b 274 317 181 295 221 309 l 564 356 l 564 314 b 524 174 564 263 550 216 b 418 75 497 132 462 99 b 279 39 375 51 328 39 z m 381 835 b 506 869 432 835 474 846 b 569 982 537 893 558 930 l 521 982 b 474 901 511 946 495 919 b 381 875 453 884 422 875 b 285 901 338 875 306 884 b 240 982 265 919 250 946 l 192 982 b 255 869 203 930 224 893 b 381 835 286 846 328 835 z "},"Ą":{"ha":969,"x_min":0,"x_max":0,"o":"m 40 0 l 94 0 l 483 932 l 485 932 l 875 0 l 928 0 l 517 978 l 453 978 z m 192 311 l 778 311 l 764 358 l 206 358 z m 871 -219 b 949 -215 898 -219 924 -218 l 949 -172 b 878 -178 913 -176 890 -178 b 833 -162 858 -178 843 -173 b 817 -121 822 -152 817 -138 b 833 -72 817 -104 822 -88 b 885 -24 844 -56 862 -40 b 903 -12 890 -20 896 -16 b 922 0 909 -8 916 -4 l 906 29 l 892 22 b 827 -19 866 7 844 -6 b 786 -65 810 -32 796 -47 b 771 -124 776 -82 771 -101 b 797 -194 771 -153 779 -177 b 871 -219 814 -211 838 -219 z "},"ą":{"ha":724,"x_min":0,"x_max":0,"o":"m 275 -8 b 464 47 345 -8 408 10 b 578 194 519 84 557 133 l 564 199 l 564 0 l 614 0 l 614 478 b 584 608 614 529 604 572 b 499 689 564 643 536 670 b 371 717 463 707 420 717 b 201 663 304 717 247 699 b 103 515 154 626 121 577 l 151 504 b 232 626 168 556 195 597 b 371 669 269 655 315 669 b 515 617 434 669 482 652 b 564 469 547 581 564 532 l 564 403 l 267 364 b 116 306 203 356 153 336 b 61 174 79 276 61 232 b 121 38 61 114 81 69 b 275 -8 161 7 212 -8 z m 279 39 b 160 74 232 39 192 50 b 111 176 127 97 111 131 b 153 273 111 219 125 251 b 274 317 181 295 221 309 l 564 356 l 564 314 b 524 174 564 263 550 216 b 418 75 497 132 462 99 b 279 39 375 51 328 39 z m 563 -219 b 640 -215 589 -219 615 -218 l 640 -172 b 569 -178 605 -176 581 -178 b 524 -162 550 -178 535 -173 b 508 -121 514 -152 508 -138 b 525 -72 508 -104 514 -88 b 576 -24 536 -56 553 -40 b 594 -12 582 -20 588 -16 b 614 0 601 -8 607 -4 l 597 29 l 583 22 b 519 -19 557 7 536 -6 b 478 -65 502 -32 488 -47 b 463 -124 468 -82 463 -101 b 488 -194 463 -153 471 -177 b 563 -219 505 -211 530 -219 z "},"Ć":{"ha":1040,"x_min":0,"x_max":0,"o":"m 533 -8 b 803 74 645 -8 735 19 b 942 315 872 129 918 210 l 893 324 b 769 110 870 228 829 157 b 532 39 710 63 631 39 b 323 93 453 39 384 57 b 181 249 262 129 215 181 b 129 488 146 316 129 396 b 181 724 129 577 146 656 b 323 879 215 791 262 843 b 532 933 384 915 453 933 b 765 866 630 933 708 911 b 883 661 823 821 862 753 l 932 669 b 858 840 917 737 893 794 b 725 945 824 887 780 922 b 533 981 670 969 606 981 b 299 920 446 981 368 960 b 138 747 230 880 176 822 b 79 486 99 672 79 585 b 137 225 79 387 98 300 b 297 52 175 150 229 92 b 533 -8 366 12 444 -8 z m 507 1083 l 554 1083 l 660 1292 l 601 1292 z "},"ć":{"ha":763,"x_min":0,"x_max":0,"o":"m 394 -8 b 594 53 475 -8 542 12 b 699 235 647 94 682 154 l 649 242 b 562 91 633 176 604 126 b 396 39 520 56 464 39 b 202 124 315 39 251 67 b 129 356 153 181 129 258 b 164 522 129 419 141 475 b 263 631 187 569 220 606 b 410 669 305 657 354 669 b 563 621 473 669 524 653 b 640 478 603 588 628 541 l 693 486 b 642 609 684 533 667 574 b 547 689 618 644 586 670 b 410 717 507 707 462 717 b 236 673 344 717 286 702 b 120 547 186 644 147 602 b 79 354 93 491 79 427 b 118 163 79 281 92 217 b 228 36 144 108 181 66 b 394 -8 276 6 331 -8 z m 367 819 l 414 819 l 519 1028 l 461 1028 z "},"Ċ":{"ha":1040,"x_min":0,"x_max":0,"o":"m 533 -8 b 803 74 645 -8 735 19 b 942 315 872 129 918 210 l 893 324 b 769 110 870 228 829 157 b 532 39 710 63 631 39 b 323 93 453 39 384 57 b 181 249 262 129 215 181 b 129 488 146 316 129 396 b 181 724 129 577 146 656 b 323 879 215 791 262 843 b 532 933 384 915 453 933 b 765 866 630 933 708 911 b 883 661 823 821 862 753 l 932 669 b 858 840 917 737 893 794 b 725 945 824 887 780 922 b 533 981 670 969 606 981 b 299 920 446 981 368 960 b 138 747 230 880 176 822 b 79 486 99 672 79 585 b 137 225 79 387 98 300 b 297 52 175 150 229 92 b 533 -8 366 12 444 -8 z m 506 1079 l 556 1079 l 556 1225 l 506 1225 z "},"ċ":{"ha":763,"x_min":0,"x_max":0,"o":"m 394 -8 b 594 53 475 -8 542 12 b 699 235 647 94 682 154 l 649 242 b 562 91 633 176 604 126 b 396 39 520 56 464 39 b 202 124 315 39 251 67 b 129 356 153 181 129 258 b 164 522 129 419 141 475 b 263 631 187 569 220 606 b 410 669 305 657 354 669 b 563 621 473 669 524 653 b 640 478 603 588 628 541 l 693 486 b 642 609 684 533 667 574 b 547 689 618 644 586 670 b 410 717 507 707 462 717 b 236 673 344 717 286 702 b 120 547 186 644 147 602 b 79 354 93 491 79 427 b 118 163 79 281 92 217 b 228 36 144 108 181 66 b 394 -8 276 6 331 -8 z m 369 822 l 419 822 l 419 968 l 369 968 z "},"Č":{"ha":1040,"x_min":0,"x_max":0,"o":"m 533 -8 b 803 74 645 -8 735 19 b 942 315 872 129 918 210 l 893 324 b 769 110 870 228 829 157 b 532 39 710 63 631 39 b 323 93 453 39 384 57 b 181 249 262 129 215 181 b 129 488 146 316 129 396 b 181 724 129 577 146 656 b 323 879 215 791 262 843 b 532 933 384 915 453 933 b 765 866 630 933 708 911 b 883 661 823 821 862 753 l 932 669 b 858 840 917 737 893 794 b 725 945 824 887 780 922 b 533 981 670 969 606 981 b 299 920 446 981 368 960 b 138 747 230 880 176 822 b 79 486 99 672 79 585 b 137 225 79 387 98 300 b 297 52 175 150 229 92 b 533 -8 366 12 444 -8 z m 501 1075 l 557 1075 l 726 1231 l 669 1231 l 515 1089 l 543 1089 l 389 1231 l 333 1231 z "},"č":{"ha":763,"x_min":0,"x_max":0,"o":"m 394 -8 b 594 53 475 -8 542 12 b 699 235 647 94 682 154 l 649 242 b 562 91 633 176 604 126 b 396 39 520 56 464 39 b 202 124 315 39 251 67 b 129 356 153 181 129 258 b 164 522 129 419 141 475 b 263 631 187 569 220 606 b 410 669 305 657 354 669 b 563 621 473 669 524 653 b 640 478 603 588 628 541 l 693 486 b 642 609 684 533 667 574 b 547 689 618 644 586 670 b 410 717 507 707 462 717 b 236 673 344 717 286 702 b 120 547 186 644 147 602 b 79 354 93 491 79 427 b 118 163 79 281 92 217 b 228 36 144 108 181 66 b 394 -8 276 6 331 -8 z m 368 819 l 418 819 l 571 1028 l 519 1028 l 383 829 l 403 829 l 267 1028 l 217 1028 z "},"Ď":{"ha":1044,"x_min":0,"x_max":0,"o":"m 150 0 l 493 0 b 737 64 588 0 669 21 b 892 239 805 106 857 165 b 946 488 928 313 946 396 b 892 734 946 578 928 660 b 736 908 857 808 805 866 b 493 972 668 951 587 972 l 150 972 z m 482 47 l 200 47 l 200 925 l 483 925 b 704 868 569 925 642 906 b 847 712 766 830 814 778 b 896 488 879 646 896 571 b 848 261 896 403 880 328 b 706 104 816 194 769 142 b 482 47 644 66 569 47 z m 468 1075 l 524 1075 l 693 1231 l 636 1231 l 482 1089 l 510 1089 l 356 1231 l 300 1231 z "},"ď":{"ha":850,"x_min":0,"x_max":0,"o":"m 819 792 l 867 792 l 871 1003 l 824 1003 z m 404 -8 b 599 54 482 -8 547 13 b 701 224 652 96 686 152 l 683 242 l 683 0 l 733 0 l 733 1003 l 683 1003 l 683 474 l 700 493 b 595 658 683 563 648 618 b 404 717 542 697 478 717 b 228 672 336 717 277 702 b 117 546 180 643 143 600 b 79 356 92 491 79 428 b 117 165 79 283 92 220 b 228 37 143 109 180 67 b 404 -8 277 7 336 -8 z m 406 39 b 202 124 319 39 251 67 b 129 354 153 181 129 258 b 163 524 129 420 141 477 b 260 633 186 572 218 608 b 406 669 301 657 350 669 b 610 584 494 669 562 641 b 683 354 659 527 683 450 b 649 184 683 288 672 232 b 551 76 625 136 593 100 b 406 39 510 51 461 39 z "},"Đ":{"ha":1042,"x_min":0,"x_max":0,"o":"m 6 464 l 469 464 l 469 511 l 6 511 z m 147 0 l 490 0 b 734 64 585 0 666 21 b 890 239 802 106 854 165 b 943 488 925 313 943 396 b 890 734 943 578 925 660 b 733 908 854 808 802 866 b 490 972 665 951 584 972 l 147 972 z m 197 47 l 197 925 l 481 925 b 701 868 566 925 639 906 b 844 712 763 830 811 778 b 893 488 877 646 893 571 b 845 261 893 403 877 328 b 703 104 813 194 766 142 b 479 47 641 66 566 47 z "},"đ":{"ha":864,"x_min":0,"x_max":0,"o":"m 428 825 l 854 825 l 854 871 l 428 871 z m 404 -8 b 599 54 482 -8 547 13 b 701 224 652 96 686 152 l 683 242 l 683 0 l 733 0 l 733 1003 l 683 1003 l 683 474 l 700 493 b 595 658 683 563 648 618 b 404 717 542 697 478 717 b 228 672 336 717 277 702 b 117 546 180 643 143 600 b 79 356 92 491 79 428 b 117 165 79 283 92 220 b 228 37 143 109 180 67 b 404 -8 277 7 336 -8 z m 406 39 b 202 124 319 39 251 67 b 129 354 153 181 129 258 b 163 524 129 420 141 477 b 260 633 186 572 218 608 b 406 669 301 657 350 669 b 610 584 494 669 562 641 b 683 354 659 527 683 450 b 649 184 683 288 672 232 b 551 76 625 136 593 100 b 406 39 510 51 461 39 z "},"Ē":{"ha":872,"x_min":0,"x_max":0,"o":"m 150 0 l 768 0 l 768 47 l 200 47 l 200 450 l 719 450 l 719 497 l 200 497 l 200 925 l 761 925 l 761 972 l 150 972 z m 265 1154 l 664 1154 l 664 1201 l 265 1201 z "},"ē":{"ha":775,"x_min":0,"x_max":0,"o":"m 403 -10 b 592 48 481 -10 544 9 b 699 199 639 86 675 137 l 650 215 b 557 83 629 158 598 114 b 401 38 516 53 464 38 b 203 118 318 38 252 64 b 129 346 154 172 129 248 b 166 522 129 414 141 473 b 265 633 191 571 223 608 b 401 669 306 657 351 669 b 531 635 450 669 494 658 b 617 539 569 612 597 580 b 647 403 637 498 647 453 b 644 354 647 377 646 361 l 660 401 l 110 401 l 122 354 l 694 354 b 697 374 695 361 696 367 b 697 393 697 380 697 387 b 660 563 697 457 685 513 b 557 676 636 612 601 650 b 403 717 513 703 461 717 b 242 673 344 717 291 702 b 124 548 193 644 153 602 b 79 357 94 494 79 430 b 121 153 79 276 93 209 b 235 31 149 98 187 57 b 403 -10 284 4 340 -10 z m 193 890 l 592 890 l 592 938 l 193 938 z "},"Ĕ":{"ha":872,"x_min":0,"x_max":0,"o":"m 150 0 l 768 0 l 768 47 l 200 47 l 200 450 l 719 450 l 719 497 l 200 497 l 200 925 l 761 925 l 761 972 l 150 972 z m 465 1090 b 590 1125 517 1090 559 1102 b 654 1238 622 1148 643 1186 l 606 1238 b 559 1157 595 1201 580 1175 b 465 1131 538 1139 507 1131 b 370 1157 423 1131 391 1139 b 325 1238 349 1175 334 1201 l 276 1238 b 340 1125 288 1186 309 1148 b 465 1090 371 1102 413 1090 z "},"ĕ":{"ha":775,"x_min":0,"x_max":0,"o":"m 403 -10 b 592 48 481 -10 544 9 b 699 199 639 86 675 137 l 650 215 b 557 83 629 158 598 114 b 401 38 516 53 464 38 b 203 118 318 38 252 64 b 129 346 154 172 129 248 b 166 522 129 414 141 473 b 265 633 191 571 223 608 b 401 669 306 657 351 669 b 531 635 450 669 494 658 b 617 539 569 612 597 580 b 647 403 637 498 647 453 b 644 354 647 377 646 361 l 660 401 l 110 401 l 122 354 l 694 354 b 697 374 695 361 696 367 b 697 393 697 380 697 387 b 660 563 697 457 685 513 b 557 676 636 612 601 650 b 403 717 513 703 461 717 b 242 673 344 717 291 702 b 124 548 193 644 153 602 b 79 357 94 494 79 430 b 121 153 79 276 93 209 b 235 31 149 98 187 57 b 403 -10 284 4 340 -10 z m 392 835 b 517 869 444 835 485 846 b 581 982 548 893 569 930 l 532 982 b 485 901 522 946 506 919 b 392 875 465 884 433 875 b 297 901 349 875 317 884 b 251 982 276 919 261 946 l 203 982 b 266 869 214 930 235 893 b 392 835 297 846 339 835 z "},"Ė":{"ha":872,"x_min":0,"x_max":0,"o":"m 150 0 l 768 0 l 768 47 l 200 47 l 200 450 l 719 450 l 719 497 l 200 497 l 200 925 l 761 925 l 761 972 l 150 972 z m 440 1079 l 490 1079 l 490 1225 l 440 1225 z "},"ė":{"ha":775,"x_min":0,"x_max":0,"o":"m 403 -10 b 592 48 481 -10 544 9 b 699 199 639 86 675 137 l 650 215 b 557 83 629 158 598 114 b 401 38 516 53 464 38 b 203 118 318 38 252 64 b 129 346 154 172 129 248 b 166 522 129 414 141 473 b 265 633 191 571 223 608 b 401 669 306 657 351 669 b 531 635 450 669 494 658 b 617 539 569 612 597 580 b 647 403 637 498 647 453 b 644 354 647 377 646 361 l 660 401 l 110 401 l 122 354 l 694 354 b 697 374 695 361 696 367 b 697 393 697 380 697 387 b 660 563 697 457 685 513 b 557 676 636 612 601 650 b 403 717 513 703 461 717 b 242 673 344 717 291 702 b 124 548 193 644 153 602 b 79 357 94 494 79 430 b 121 153 79 276 93 209 b 235 31 149 98 187 57 b 403 -10 284 4 340 -10 z m 369 822 l 419 822 l 419 968 l 369 968 z "},"Ę":{"ha":872,"x_min":0,"x_max":0,"o":"m 150 0 l 768 0 l 768 47 l 200 47 l 200 450 l 719 450 l 719 497 l 200 497 l 200 925 l 761 925 l 761 972 l 150 972 z m 717 -219 b 794 -215 744 -219 769 -218 l 794 -172 b 724 -178 759 -176 736 -178 b 678 -162 704 -178 689 -173 b 663 -121 668 -152 663 -138 b 679 -72 663 -104 668 -88 b 731 -24 690 -56 707 -40 b 749 -12 736 -20 742 -16 b 768 0 755 -8 762 -4 l 751 29 l 738 22 b 673 -19 712 7 690 -6 b 632 -65 656 -32 642 -47 b 617 -124 622 -82 617 -101 b 642 -194 617 -153 625 -177 b 717 -219 659 -211 684 -219 z "},"ę":{"ha":775,"x_min":0,"x_max":0,"o":"m 586 -206 l 644 -206 l 644 -158 l 593 -158 b 526 -140 562 -158 539 -152 b 507 -83 513 -128 507 -109 b 530 -14 507 -60 515 -37 b 613 69 545 9 573 37 l 597 92 l 585 81 b 494 -7 544 48 514 19 b 464 -94 474 -33 464 -62 b 501 -181 464 -136 476 -165 b 586 -206 525 -197 554 -206 z m 403 -10 b 592 48 481 -10 544 9 b 699 199 639 86 675 137 l 650 215 b 557 83 629 158 598 114 b 401 38 516 53 464 38 b 203 118 318 38 252 64 b 129 346 154 172 129 248 b 166 522 129 414 141 473 b 265 633 191 571 223 608 b 401 669 306 657 351 669 b 531 635 450 669 494 658 b 617 539 569 612 597 580 b 647 403 637 498 647 453 b 644 354 647 377 646 361 l 660 401 l 110 401 l 122 354 l 694 354 b 697 374 695 361 696 367 b 697 393 697 380 697 387 b 660 563 697 457 685 513 b 557 676 636 612 601 650 b 403 717 513 703 461 717 b 242 673 344 717 291 702 b 124 548 193 644 153 602 b 79 357 94 494 79 430 b 121 153 79 276 93 209 b 235 31 149 98 187 57 b 403 -10 284 4 340 -10 z "},"Ě":{"ha":872,"x_min":0,"x_max":0,"o":"m 150 0 l 768 0 l 768 47 l 200 47 l 200 450 l 719 450 l 719 497 l 200 497 l 200 925 l 761 925 l 761 972 l 150 972 z m 436 1075 l 492 1075 l 661 1231 l 604 1231 l 450 1089 l 478 1089 l 324 1231 l 268 1231 z "},"ě":{"ha":775,"x_min":0,"x_max":0,"o":"m 403 -10 b 592 48 481 -10 544 9 b 699 199 639 86 675 137 l 650 215 b 557 83 629 158 598 114 b 401 38 516 53 464 38 b 203 118 318 38 252 64 b 129 346 154 172 129 248 b 166 522 129 414 141 473 b 265 633 191 571 223 608 b 401 669 306 657 351 669 b 531 635 450 669 494 658 b 617 539 569 612 597 580 b 647 403 637 498 647 453 b 644 354 647 377 646 361 l 660 401 l 110 401 l 122 354 l 694 354 b 697 374 695 361 696 367 b 697 393 697 380 697 387 b 660 563 697 457 685 513 b 557 676 636 612 601 650 b 403 717 513 703 461 717 b 242 673 344 717 291 702 b 124 548 193 644 153 602 b 79 357 94 494 79 430 b 121 153 79 276 93 209 b 235 31 149 98 187 57 b 403 -10 284 4 340 -10 z m 368 819 l 418 819 l 571 1028 l 519 1028 l 383 829 l 403 829 l 267 1028 l 217 1028 z "},"Ğ":{"ha":1078,"x_min":0,"x_max":0,"o":"m 558 -8 b 787 56 646 -8 722 13 b 928 238 851 99 898 160 l 922 246 l 922 0 l 972 0 l 972 465 l 572 465 l 572 418 l 943 418 l 921 440 l 921 430 l 921 421 l 921 411 l 921 403 b 874 221 921 337 905 276 b 743 88 842 165 799 121 b 557 39 688 55 625 39 b 336 92 471 39 397 57 b 197 246 275 128 228 179 b 149 485 165 313 149 392 b 200 724 149 576 166 656 b 344 881 234 792 282 844 b 554 933 405 917 475 934 b 788 866 652 933 730 911 b 906 661 845 821 884 753 l 957 669 b 882 842 942 738 917 795 b 747 946 847 888 802 923 b 553 981 691 969 627 981 b 319 920 466 981 388 960 b 157 747 250 880 196 822 b 99 485 118 672 99 585 b 154 217 99 380 117 291 b 313 49 191 144 244 88 b 558 -8 381 11 463 -8 z m 635 1090 b 760 1125 687 1090 728 1102 b 824 1238 791 1148 813 1186 l 775 1238 b 728 1157 765 1201 749 1175 b 635 1131 708 1139 676 1131 b 540 1157 592 1131 560 1139 b 494 1238 519 1175 504 1201 l 446 1238 b 509 1125 457 1186 478 1148 b 635 1090 540 1102 582 1090 z "},"ğ":{"ha":844,"x_min":0,"x_max":0,"o":"m 408 -278 b 647 -185 510 -278 590 -247 b 733 79 705 -123 733 -35 l 733 708 l 683 708 l 683 467 l 703 483 b 649 609 694 532 677 574 b 545 689 622 644 587 670 b 404 717 503 707 456 717 b 231 675 338 717 280 703 b 119 554 183 647 145 607 b 79 368 92 501 79 439 b 119 183 79 297 92 235 b 232 62 145 130 183 90 b 404 19 281 34 338 19 b 543 46 455 19 501 28 b 647 124 585 63 619 90 b 703 250 675 159 694 201 l 683 263 l 683 76 b 610 -152 683 -24 659 -100 b 411 -231 562 -204 495 -231 b 264 -201 356 -231 307 -221 b 161 -106 220 -181 186 -149 l 118 -132 b 231 -239 141 -177 179 -213 b 408 -278 284 -265 343 -278 z m 407 67 b 202 151 319 67 251 95 b 129 368 153 207 129 279 b 161 524 129 426 140 478 b 256 631 182 569 214 605 b 407 669 298 656 349 669 b 610 586 494 669 562 642 b 683 368 659 531 683 458 b 651 213 683 310 673 258 b 557 106 630 167 599 131 b 407 67 515 80 465 67 z m 447 835 b 572 869 499 835 541 846 b 636 982 604 893 625 930 l 588 982 b 541 901 577 946 562 919 b 447 875 520 884 489 875 b 352 901 405 875 373 884 b 307 982 331 919 316 946 l 258 982 b 322 869 269 930 291 893 b 447 835 353 846 394 835 z "},"Ġ":{"ha":1078,"x_min":0,"x_max":0,"o":"m 558 -8 b 787 56 646 -8 722 13 b 928 238 851 99 898 160 l 922 246 l 922 0 l 972 0 l 972 465 l 572 465 l 572 418 l 943 418 l 921 440 l 921 430 l 921 421 l 921 411 l 921 403 b 874 221 921 337 905 276 b 743 88 842 165 799 121 b 557 39 688 55 625 39 b 336 92 471 39 397 57 b 197 246 275 128 228 179 b 149 485 165 313 149 392 b 200 724 149 576 166 656 b 344 881 234 792 282 844 b 554 933 405 917 475 934 b 788 866 652 933 730 911 b 906 661 845 821 884 753 l 957 669 b 882 842 942 738 917 795 b 747 946 847 888 802 923 b 553 981 691 969 627 981 b 319 920 466 981 388 960 b 157 747 250 880 196 822 b 99 485 118 672 99 585 b 154 217 99 380 117 291 b 313 49 191 144 244 88 b 558 -8 381 11 463 -8 z m 610 1079 l 660 1079 l 660 1225 l 610 1225 z "},"ġ":{"ha":844,"x_min":0,"x_max":0,"o":"m 408 -278 b 647 -185 510 -278 590 -247 b 733 79 705 -123 733 -35 l 733 708 l 683 708 l 683 467 l 703 483 b 649 609 694 532 677 574 b 545 689 622 644 587 670 b 404 717 503 707 456 717 b 231 675 338 717 280 703 b 119 554 183 647 145 607 b 79 368 92 501 79 439 b 119 183 79 297 92 235 b 232 62 145 130 183 90 b 404 19 281 34 338 19 b 543 46 455 19 501 28 b 647 124 585 63 619 90 b 703 250 675 159 694 201 l 683 263 l 683 76 b 610 -152 683 -24 659 -100 b 411 -231 562 -204 495 -231 b 264 -201 356 -231 307 -221 b 161 -106 220 -181 186 -149 l 118 -132 b 231 -239 141 -177 179 -213 b 408 -278 284 -265 343 -278 z m 407 67 b 202 151 319 67 251 95 b 129 368 153 207 129 279 b 161 524 129 426 140 478 b 256 631 182 569 214 605 b 407 669 298 656 349 669 b 610 586 494 669 562 642 b 683 368 659 531 683 458 b 651 213 683 310 673 258 b 557 106 630 167 599 131 b 407 67 515 80 465 67 z m 425 822 l 475 822 l 475 968 l 425 968 z "},"Ģ":{"ha":1078,"x_min":0,"x_max":0,"o":"m 558 -8 b 787 56 646 -8 722 13 b 928 238 851 99 898 160 l 922 246 l 922 0 l 972 0 l 972 465 l 572 465 l 572 418 l 943 418 l 921 440 l 921 430 l 921 421 l 921 411 l 921 403 b 874 221 921 337 905 276 b 743 88 842 165 799 121 b 557 39 688 55 625 39 b 336 92 471 39 397 57 b 197 246 275 128 228 179 b 149 485 165 313 149 392 b 200 724 149 576 166 656 b 344 881 234 792 282 844 b 554 933 405 917 475 934 b 788 866 652 933 730 911 b 906 661 845 821 884 753 l 957 669 b 882 842 942 738 917 795 b 747 946 847 888 802 923 b 553 981 691 969 627 981 b 319 920 466 981 388 960 b 157 747 250 880 196 822 b 99 485 118 672 99 585 b 154 217 99 380 117 291 b 313 49 191 144 244 88 b 558 -8 381 11 463 -8 z m 565 -276 l 578 -310 b 645 -265 607 -300 630 -285 b 668 -178 660 -246 668 -217 l 631 -178 b 613 -246 631 -208 625 -231 b 565 -276 600 -261 584 -271 z m 597 -178 l 668 -178 l 668 -103 l 597 -103 z "},"ģ":{"ha":844,"x_min":0,"x_max":0,"o":"m 408 -278 b 647 -185 510 -278 590 -247 b 733 79 705 -123 733 -35 l 733 708 l 683 708 l 683 467 l 703 483 b 649 609 694 532 677 574 b 545 689 622 644 587 670 b 404 717 503 707 456 717 b 231 675 338 717 280 703 b 119 554 183 647 145 607 b 79 368 92 501 79 439 b 119 183 79 297 92 235 b 232 62 145 130 183 90 b 404 19 281 34 338 19 b 543 46 455 19 501 28 b 647 124 585 63 619 90 b 703 250 675 159 694 201 l 683 263 l 683 76 b 610 -152 683 -24 659 -100 b 411 -231 562 -204 495 -231 b 264 -201 356 -231 307 -221 b 161 -106 220 -181 186 -149 l 118 -132 b 231 -239 141 -177 179 -213 b 408 -278 284 -265 343 -278 z m 407 67 b 202 151 319 67 251 95 b 129 368 153 207 129 279 b 161 524 129 426 140 478 b 256 631 182 569 214 605 b 407 669 298 656 349 669 b 610 586 494 669 562 642 b 683 368 659 531 683 458 b 651 213 683 310 673 258 b 557 106 630 167 599 131 b 407 67 515 80 465 67 z m 544 1007 l 532 1040 b 465 996 502 1030 480 1015 b 442 908 449 976 442 947 l 479 908 b 497 976 478 939 484 962 b 544 1007 510 991 526 1001 z m 513 908 l 442 908 l 442 833 l 513 833 z "},"Ħ":{"ha":1049,"x_min":0,"x_max":0,"o":"m 72 742 l 976 740 l 976 786 l 72 786 z m 164 0 l 214 0 l 214 461 l 826 461 l 826 0 l 876 0 l 876 972 l 826 972 l 826 508 l 214 508 l 214 972 l 164 972 z "},"ħ":{"ha":806,"x_min":0,"x_max":0,"o":"m 1 825 l 400 825 l 400 871 l 1 871 z m 122 0 l 172 0 l 172 407 b 201 531 172 450 182 491 b 287 631 220 572 248 605 b 428 669 325 656 372 669 b 592 613 497 669 552 650 b 651 431 631 575 651 514 l 651 0 l 701 0 l 701 447 b 631 645 701 531 678 597 b 433 717 584 693 519 717 b 267 669 367 717 311 701 b 167 557 223 638 190 600 l 172 544 l 172 1003 l 122 1003 z "},"Ĩ":{"ha":356,"x_min":0,"x_max":0,"o":"m 153 0 l 203 0 l 203 972 l 153 972 z m 4 1126 l 42 1126 b 52 1178 42 1149 45 1166 b 86 1197 59 1191 70 1197 b 126 1189 100 1197 113 1194 b 174 1165 139 1183 155 1175 b 225 1140 194 1154 211 1146 b 269 1132 239 1135 254 1132 b 328 1160 294 1132 313 1141 b 350 1244 343 1178 350 1206 l 313 1244 b 301 1192 313 1222 309 1205 b 267 1174 294 1180 282 1174 b 226 1182 253 1174 239 1176 b 181 1206 213 1188 198 1195 b 129 1231 159 1217 142 1225 b 86 1239 116 1236 102 1239 b 26 1212 61 1239 41 1230 b 4 1126 12 1194 4 1165 z "},"ĩ":{"ha":269,"x_min":0,"x_max":0,"o":"m 111 0 l 158 0 l 158 708 l 111 708 z m -39 863 l -1 863 b 9 915 -1 885 2 902 b 43 933 16 927 27 933 b 83 925 57 933 70 931 b 131 901 96 919 112 912 b 182 876 151 890 168 882 b 226 868 196 871 211 868 b 285 896 250 868 270 877 b 307 981 300 914 307 943 l 269 981 b 258 928 269 958 266 941 b 224 910 251 916 239 910 b 183 918 210 910 196 913 b 138 942 170 924 155 931 b 86 967 116 953 99 961 b 43 975 73 972 59 975 b -17 948 18 975 -2 966 b -39 863 -31 930 -39 901 z "},"Ī":{"ha":356,"x_min":0,"x_max":0,"o":"m 153 0 l 203 0 l 203 972 l 153 972 z m -22 1154 l 376 1154 l 376 1201 l -22 1201 z "},"ī":{"ha":269,"x_min":0,"x_max":0,"o":"m 111 0 l 158 0 l 158 708 l 111 708 z m -65 890 l 333 890 l 333 938 l -65 938 z "},"Ĭ":{"ha":356,"x_min":0,"x_max":0,"o":"m 153 0 l 203 0 l 203 972 l 153 972 z m 178 1090 b 303 1125 230 1090 271 1102 b 367 1238 334 1148 356 1186 l 318 1238 b 272 1157 308 1201 292 1175 b 178 1131 251 1139 219 1131 b 83 1157 135 1131 103 1139 b 38 1238 62 1175 47 1201 l -11 1238 b 52 1125 0 1186 21 1148 b 178 1090 83 1102 125 1090 z "},"ĭ":{"ha":269,"x_min":0,"x_max":0,"o":"m 111 0 l 158 0 l 158 708 l 111 708 z m 133 835 b 258 869 185 835 227 846 b 322 982 290 893 311 930 l 274 982 b 227 901 263 946 248 919 b 133 875 206 884 175 875 b 38 901 91 875 59 884 b -7 982 17 919 2 946 l -56 982 b 8 869 -44 930 -23 893 b 133 835 39 846 81 835 z "},"Į":{"ha":356,"x_min":0,"x_max":0,"o":"m 153 0 l 203 0 l 203 972 l 153 972 z m 151 -219 b 229 -215 178 -219 204 -218 l 229 -172 b 158 -178 194 -176 170 -178 b 113 -162 139 -178 124 -173 b 97 -121 103 -152 97 -138 b 114 -72 97 -104 103 -88 b 165 -24 125 -56 142 -40 b 183 -12 171 -20 177 -16 b 203 0 190 -8 196 -4 l 186 29 l 172 22 b 108 -19 146 7 125 -6 b 67 -65 91 -32 77 -47 b 51 -124 56 -82 51 -101 b 77 -194 51 -153 60 -177 b 151 -219 94 -211 119 -219 z "},"į":{"ha":272,"x_min":0,"x_max":0,"o":"m 111 0 l 161 0 l 161 708 l 111 708 z m 111 858 l 161 858 l 161 1003 l 111 1003 z m 110 -219 b 188 -215 137 -219 163 -218 l 188 -172 b 117 -178 152 -176 129 -178 b 72 -162 97 -178 82 -173 b 56 -121 61 -152 56 -138 b 72 -72 56 -104 61 -88 b 124 -24 83 -56 100 -40 b 142 -12 129 -20 135 -16 b 161 0 148 -8 155 -4 l 144 29 l 131 22 b 66 -19 105 7 83 -6 b 25 -65 49 -32 35 -47 b 10 -124 15 -82 10 -101 b 35 -194 10 -153 18 -177 b 110 -219 53 -211 77 -219 z "},"İ":{"ha":356,"x_min":0,"x_max":0,"o":"m 153 0 l 203 0 l 203 972 l 153 972 z m 153 1079 l 203 1079 l 203 1225 l 153 1225 z "},"ı":{"ha":269,"x_min":0,"x_max":0,"o":"m 111 0 l 158 0 l 158 708 l 111 708 z "},"Ĳ":{"ha":1078,"x_min":0,"x_max":0,"o":"m 153 0 l 203 0 l 203 972 l 153 972 z m 689 -8 b 819 25 736 -8 779 3 b 913 126 858 47 890 81 b 949 292 937 172 949 227 l 949 972 l 899 972 l 899 286 b 869 146 899 230 889 183 b 790 65 849 109 823 82 b 688 39 758 47 724 39 b 529 101 616 39 563 59 b 465 256 495 142 474 194 l 419 238 b 497 62 426 167 452 109 b 689 -8 543 15 606 -8 z "},"ĳ":{"ha":564,"x_min":0,"x_max":0,"o":"m 111 0 l 161 0 l 161 708 l 111 708 z m 111 858 l 161 858 l 161 1003 l 111 1003 z m 249 -235 l 289 -235 b 401 -197 336 -235 374 -222 b 443 -72 429 -171 443 -130 l 443 708 l 393 708 l 393 -92 b 373 -165 393 -125 386 -149 b 308 -187 359 -180 338 -187 l 249 -187 z m 394 858 l 444 858 l 444 1003 l 394 1003 z "},"Ķ":{"ha":926,"x_min":0,"x_max":0,"o":"m 150 0 l 200 0 l 200 329 l 185 289 l 836 972 l 772 972 l 185 361 l 200 353 l 200 972 l 150 972 z m 811 0 l 871 0 l 479 624 l 443 586 z m 410 -276 l 422 -310 b 490 -265 452 -300 474 -285 b 513 -178 505 -246 513 -217 l 475 -178 b 457 -246 476 -208 470 -231 b 410 -276 444 -261 428 -271 z m 442 -178 l 513 -178 l 513 -103 l 442 -103 z "},"ķ":{"ha":672,"x_min":0,"x_max":0,"o":"m 122 0 l 172 0 l 172 239 l 642 708 l 572 708 l 172 303 l 169 304 b 172 387 170 330 171 358 b 172 472 172 416 172 444 l 172 522 l 172 549 l 172 1003 l 122 1003 z m 576 0 l 639 0 l 326 421 l 290 388 z m 285 -276 l 297 -310 b 365 -265 327 -300 349 -285 b 388 -178 380 -246 388 -217 l 350 -178 b 332 -246 351 -208 345 -231 b 285 -276 319 -261 303 -271 z m 317 -178 l 388 -178 l 388 -103 l 317 -103 z "},"ĸ":{"ha":665,"x_min":0,"x_max":0,"o":"m 111 0 l 161 0 l 161 239 l 635 713 l 565 710 l 161 303 l 158 304 b 160 395 159 333 160 363 b 161 488 161 427 161 458 l 161 549 l 161 710 l 111 710 z m 565 0 l 628 0 l 315 421 l 279 388 z "},"Ĺ":{"ha":740,"x_min":0,"x_max":0,"o":"m 150 0 l 704 0 l 704 47 l 203 47 l 203 972 l 150 972 z m 153 1083 l 200 1083 l 306 1292 l 247 1292 z "},"ĺ":{"ha":318,"x_min":0,"x_max":0,"o":"m 228 0 l 279 0 l 279 47 l 204 47 b 169 82 181 47 169 59 l 169 1003 l 119 1003 l 119 103 b 145 24 119 67 128 41 b 228 0 162 8 190 0 z m 121 1114 l 168 1114 l 274 1322 l 215 1322 z "},"Ļ":{"ha":740,"x_min":0,"x_max":0,"o":"m 150 0 l 704 0 l 704 47 l 203 47 l 203 972 l 150 972 z m 371 -276 l 383 -310 b 451 -265 413 -300 435 -285 b 474 -178 466 -246 474 -217 l 436 -178 b 418 -246 437 -208 431 -231 b 371 -276 405 -261 389 -271 z m 403 -178 l 474 -178 l 474 -103 l 403 -103 z "},"ļ":{"ha":318,"x_min":0,"x_max":0,"o":"m 228 0 l 279 0 l 279 47 l 204 47 b 169 82 181 47 169 59 l 169 1003 l 119 1003 l 119 103 b 145 24 119 67 128 41 b 228 0 162 8 190 0 z m 129 -276 l 142 -310 b 209 -265 171 -300 194 -285 b 232 -178 224 -246 232 -217 l 194 -178 b 176 -246 195 -208 189 -231 b 129 -276 163 -261 148 -271 z m 161 -178 l 232 -178 l 232 -103 l 161 -103 z "},"Ľ":{"ha":746,"x_min":0,"x_max":0,"o":"m 150 0 l 704 0 l 704 47 l 203 47 l 203 972 l 150 972 z m 372 761 l 408 761 l 433 972 l 386 972 z "},"ľ":{"ha":307,"x_min":0,"x_max":0,"o":"m 263 792 l 310 792 l 310 1003 l 263 1003 z m 228 0 l 279 0 l 279 47 l 204 47 b 169 82 181 47 169 59 l 169 1003 l 119 1003 l 119 103 b 145 24 119 67 128 41 b 228 0 162 8 190 0 z "},"Ł":{"ha":740,"x_min":0,"x_max":0,"o":"m 14 356 l 411 593 l 411 639 l 14 400 z m 150 0 l 704 0 l 704 47 l 203 47 l 203 972 l 150 972 z "},"ł":{"ha":335,"x_min":0,"x_max":0,"o":"m 28 371 l 108 428 l 197 483 l 279 540 l 279 590 l 197 533 l 108 478 l 28 421 z m 249 0 l 300 0 l 300 47 l 225 47 b 190 82 202 47 190 59 l 190 1003 l 140 1003 l 140 103 b 166 24 140 67 149 41 b 249 0 183 8 211 0 z "},"Ń":{"ha":1022,"x_min":0,"x_max":0,"o":"m 150 0 l 200 0 l 200 446 l 200 482 l 200 517 b 199 705 200 581 200 643 b 196 893 198 766 197 829 l 199 893 l 822 0 l 872 0 l 872 972 l 822 972 l 822 379 b 824 172 822 288 823 219 l 826 81 l 824 79 l 200 972 l 150 972 z m 506 1083 l 553 1083 l 658 1292 l 600 1292 z "},"ń":{"ha":794,"x_min":0,"x_max":0,"o":"m 111 0 l 161 0 l 161 393 b 190 522 161 437 171 479 b 276 627 209 564 237 599 b 417 669 314 655 361 669 b 581 609 486 669 541 649 b 640 417 620 569 640 505 l 640 0 l 690 0 l 690 433 b 620 642 690 522 667 592 b 422 717 573 692 507 717 b 283 683 369 717 322 706 b 190 602 244 661 213 634 b 142 507 167 570 151 538 l 161 471 l 161 708 l 111 708 z m 367 819 l 414 819 l 519 1028 l 461 1028 z "},"Ņ":{"ha":1022,"x_min":0,"x_max":0,"o":"m 150 0 l 200 0 l 200 446 l 200 482 l 200 517 b 199 705 200 581 200 643 b 196 893 198 766 197 829 l 199 893 l 822 0 l 872 0 l 872 972 l 822 972 l 822 379 b 824 172 822 288 823 219 l 826 81 l 824 79 l 200 972 l 150 972 z m 432 -276 l 444 -310 b 512 -265 474 -300 497 -285 b 535 -178 527 -246 535 -217 l 497 -178 b 479 -246 498 -208 492 -231 b 432 -276 466 -261 450 -271 z m 464 -178 l 535 -178 l 535 -103 l 464 -103 z "},"ņ":{"ha":794,"x_min":0,"x_max":0,"o":"m 111 0 l 161 0 l 161 393 b 190 522 161 437 171 479 b 276 627 209 564 237 599 b 417 669 314 655 361 669 b 581 609 486 669 541 649 b 640 417 620 569 640 505 l 640 0 l 690 0 l 690 433 b 620 642 690 522 667 592 b 422 717 573 692 507 717 b 283 683 369 717 322 706 b 190 602 244 661 213 634 b 142 507 167 570 151 538 l 161 471 l 161 708 l 111 708 z m 325 -276 l 338 -310 b 405 -265 367 -300 390 -285 b 428 -178 420 -246 428 -217 l 390 -178 b 372 -246 391 -208 385 -231 b 325 -276 359 -261 344 -271 z m 357 -178 l 428 -178 l 428 -103 l 357 -103 z "},"Ň":{"ha":1022,"x_min":0,"x_max":0,"o":"m 150 0 l 200 0 l 200 446 l 200 482 l 200 517 b 199 705 200 581 200 643 b 196 893 198 766 197 829 l 199 893 l 822 0 l 872 0 l 872 972 l 822 972 l 822 379 b 824 172 822 288 823 219 l 826 81 l 824 79 l 200 972 l 150 972 z m 500 1075 l 556 1075 l 725 1231 l 668 1231 l 514 1089 l 542 1089 l 388 1231 l 332 1231 z "},"ň":{"ha":794,"x_min":0,"x_max":0,"o":"m 111 0 l 161 0 l 161 393 b 190 522 161 437 171 479 b 276 627 209 564 237 599 b 417 669 314 655 361 669 b 581 609 486 669 541 649 b 640 417 620 569 640 505 l 640 0 l 690 0 l 690 433 b 620 642 690 522 667 592 b 422 717 573 692 507 717 b 283 683 369 717 322 706 b 190 602 244 661 213 634 b 142 507 167 570 151 538 l 161 471 l 161 708 l 111 708 z m 368 819 l 418 819 l 571 1028 l 519 1028 l 383 829 l 403 829 l 267 1028 l 217 1028 z "},"Ŋ":{"ha":1036,"x_min":0,"x_max":0,"o":"m 150 0 l 200 0 l 200 450 l 200 590 b 199 724 200 636 200 680 l 196 897 l 199 897 l 836 0 l 886 0 l 886 972 l 836 972 l 836 379 l 836 295 l 836 213 l 836 151 l 836 85 l 833 83 l 200 972 l 150 972 z m 692 -235 l 732 -235 b 844 -197 779 -235 817 -222 b 886 -72 872 -171 886 -130 l 886 38 l 836 38 l 836 -92 b 816 -165 836 -125 829 -149 b 751 -187 803 -180 781 -187 l 692 -187 z "},"ŋ":{"ha":794,"x_min":0,"x_max":0,"o":"m 485 -235 l 525 -235 b 638 -197 572 -235 610 -222 b 679 -72 665 -171 679 -130 l 679 286 l 629 286 l 629 -92 b 609 -165 629 -125 622 -149 b 544 -187 596 -180 574 -187 l 485 -187 z m 100 0 l 150 0 l 150 393 b 178 522 150 437 159 479 b 265 627 197 564 226 599 b 406 669 303 655 350 669 b 569 609 475 669 530 649 b 629 417 609 569 629 505 l 629 0 l 679 0 l 679 433 b 609 642 679 522 656 592 b 411 717 562 692 496 717 b 272 683 357 717 311 706 b 179 602 233 661 202 634 b 131 507 156 570 140 538 l 150 471 l 150 708 l 100 708 z "},"Ō":{"ha":1113,"x_min":0,"x_max":0,"o":"m 557 -8 b 796 53 647 -8 726 12 b 957 227 865 95 919 153 b 1014 483 995 302 1014 387 b 957 742 1014 581 995 667 b 796 918 919 818 865 876 b 557 981 726 960 647 981 b 317 918 466 981 386 960 b 156 742 247 876 194 818 b 99 483 118 667 99 581 b 156 227 99 387 118 302 b 317 53 194 153 247 95 b 557 -8 386 12 466 -8 z m 557 39 b 343 94 476 39 405 57 b 199 251 281 131 233 184 b 149 483 166 318 149 395 b 200 719 149 572 166 651 b 344 877 234 787 282 840 b 557 933 405 915 476 933 b 770 877 638 933 709 915 b 913 719 832 840 879 787 b 964 483 947 651 964 572 b 913 251 964 395 947 318 b 770 94 879 184 832 131 b 557 39 709 57 638 39 z m 357 1154 l 756 1154 l 756 1201 l 357 1201 z "},"ō":{"ha":825,"x_min":0,"x_max":0,"o":"m 413 -8 b 584 35 476 -8 534 6 b 703 162 634 65 674 107 b 746 354 731 217 746 281 b 703 544 746 426 731 490 b 584 672 674 599 634 641 b 413 717 534 702 476 717 b 241 673 349 717 291 702 b 122 547 191 644 151 602 b 79 354 94 491 79 427 b 122 162 79 281 94 217 b 241 35 151 107 191 65 b 413 -8 291 6 349 -8 z m 413 39 b 266 76 358 39 309 51 b 165 184 223 100 189 136 b 129 354 141 232 129 288 b 165 524 129 420 141 477 b 266 633 189 572 223 608 b 413 669 309 657 358 669 b 559 633 467 669 516 657 b 660 524 602 608 636 572 b 696 354 684 477 696 420 b 660 184 696 288 684 232 b 559 76 636 136 602 100 b 413 39 516 51 467 39 z m 213 890 l 611 890 l 611 938 l 213 938 z "},"Ŏ":{"ha":1113,"x_min":0,"x_max":0,"o":"m 557 -8 b 796 53 647 -8 726 12 b 957 227 865 95 919 153 b 1014 483 995 302 1014 387 b 957 742 1014 581 995 667 b 796 918 919 818 865 876 b 557 981 726 960 647 981 b 317 918 466 981 386 960 b 156 742 247 876 194 818 b 99 483 118 667 99 581 b 156 227 99 387 118 302 b 317 53 194 153 247 95 b 557 -8 386 12 466 -8 z m 557 39 b 343 94 476 39 405 57 b 199 251 281 131 233 184 b 149 483 166 318 149 395 b 200 719 149 572 166 651 b 344 877 234 787 282 840 b 557 933 405 915 476 933 b 770 877 638 933 709 915 b 913 719 832 840 879 787 b 964 483 947 651 964 572 b 913 251 964 395 947 318 b 770 94 879 184 832 131 b 557 39 709 57 638 39 z m 557 1090 b 682 1125 609 1090 650 1102 b 746 1238 713 1148 735 1186 l 697 1238 b 651 1157 687 1201 672 1175 b 557 1131 630 1139 599 1131 b 462 1157 514 1131 483 1139 b 417 1238 441 1175 426 1201 l 368 1238 b 431 1125 379 1186 400 1148 b 557 1090 462 1102 504 1090 z "},"ŏ":{"ha":825,"x_min":0,"x_max":0,"o":"m 413 -8 b 584 35 476 -8 534 6 b 703 162 634 65 674 107 b 746 354 731 217 746 281 b 703 544 746 426 731 490 b 584 672 674 599 634 641 b 413 717 534 702 476 717 b 241 673 349 717 291 702 b 122 547 191 644 151 602 b 79 354 94 491 79 427 b 122 162 79 281 94 217 b 241 35 151 107 191 65 b 413 -8 291 6 349 -8 z m 413 39 b 266 76 358 39 309 51 b 165 184 223 100 189 136 b 129 354 141 232 129 288 b 165 524 129 420 141 477 b 266 633 189 572 223 608 b 413 669 309 657 358 669 b 559 633 467 669 516 657 b 660 524 602 608 636 572 b 696 354 684 477 696 420 b 660 184 696 288 684 232 b 559 76 636 136 602 100 b 413 39 516 51 467 39 z m 411 835 b 536 869 463 835 505 846 b 600 982 568 893 589 930 l 551 982 b 505 901 541 946 526 919 b 411 875 484 884 453 875 b 316 901 369 875 337 884 b 271 982 295 919 280 946 l 222 982 b 285 869 233 930 254 893 b 411 835 316 846 358 835 z "},"Ő":{"ha":1113,"x_min":0,"x_max":0,"o":"m 557 -8 b 796 53 647 -8 726 12 b 957 227 865 95 919 153 b 1014 483 995 302 1014 387 b 957 742 1014 581 995 667 b 796 918 919 818 865 876 b 557 981 726 960 647 981 b 317 918 466 981 386 960 b 156 742 247 876 194 818 b 99 483 118 667 99 581 b 156 227 99 387 118 302 b 317 53 194 153 247 95 b 557 -8 386 12 466 -8 z m 557 39 b 343 94 476 39 405 57 b 199 251 281 131 233 184 b 149 483 166 318 149 395 b 200 719 149 572 166 651 b 344 877 234 787 282 840 b 557 933 405 915 476 933 b 770 877 638 933 709 915 b 913 719 832 840 879 787 b 964 483 947 651 964 572 b 913 251 964 395 947 318 b 770 94 879 184 832 131 b 557 39 709 57 638 39 z m 604 1068 l 643 1068 l 717 1219 l 668 1219 z m 444 1068 l 483 1068 l 557 1219 l 508 1219 z "},"ő":{"ha":825,"x_min":0,"x_max":0,"o":"m 413 -8 b 584 35 476 -8 534 6 b 703 162 634 65 674 107 b 746 354 731 217 746 281 b 703 544 746 426 731 490 b 584 672 674 599 634 641 b 413 717 534 702 476 717 b 241 673 349 717 291 702 b 122 547 191 644 151 602 b 79 354 94 491 79 427 b 122 162 79 281 94 217 b 241 35 151 107 191 65 b 413 -8 291 6 349 -8 z m 413 39 b 266 76 358 39 309 51 b 165 184 223 100 189 136 b 129 354 141 232 129 288 b 165 524 129 420 141 477 b 266 633 189 572 223 608 b 413 669 309 657 358 669 b 559 633 467 669 516 657 b 660 524 602 608 636 572 b 696 354 684 477 696 420 b 660 184 696 288 684 232 b 559 76 636 136 602 100 b 413 39 516 51 467 39 z m 460 819 l 499 819 l 572 1028 l 524 1028 z m 300 819 l 339 819 l 413 1028 l 364 1028 z "},"Œ":{"ha":1524,"x_min":0,"x_max":0,"o":"m 626 0 l 1419 0 l 1419 47 l 819 47 l 819 450 l 1311 450 l 1311 497 l 819 497 l 819 925 l 1394 925 l 1394 972 l 626 972 b 351 913 523 972 431 953 b 165 744 272 874 210 817 b 99 483 121 670 99 583 b 165 226 99 384 121 298 b 351 58 210 153 272 97 b 626 0 431 19 523 0 z m 626 47 b 380 99 534 47 452 64 b 212 248 308 133 252 183 b 151 483 172 313 151 392 b 212 722 151 576 172 655 b 380 873 252 788 308 838 b 626 925 452 908 534 925 l 769 925 l 769 47 z "},"œ":{"ha":1419,"x_min":0,"x_max":0,"o":"m 413 -8 b 584 35 476 -8 534 6 b 703 162 634 65 674 107 b 746 354 731 217 746 281 b 703 544 746 426 731 490 b 584 672 674 599 634 641 b 413 717 534 702 476 717 b 241 673 349 717 291 702 b 122 547 191 644 151 602 b 79 354 94 491 79 427 b 122 162 79 281 94 217 b 241 35 151 107 191 65 b 413 -8 291 6 349 -8 z m 413 39 b 266 76 358 39 309 51 b 165 184 223 100 189 136 b 129 354 141 232 129 288 b 165 524 129 420 141 477 b 266 633 189 572 223 608 b 413 669 309 657 358 669 b 559 633 467 669 516 657 b 660 524 602 608 636 572 b 696 354 684 477 696 420 b 660 184 696 288 684 232 b 559 76 636 136 602 100 b 413 39 516 51 467 39 z m 1047 -10 b 1236 48 1126 -10 1189 9 b 1343 199 1283 86 1319 137 l 1294 215 b 1201 83 1273 158 1242 114 b 1046 38 1161 53 1109 38 b 847 118 963 38 896 64 b 774 346 798 172 774 248 b 810 522 774 414 786 473 b 909 633 835 571 868 608 b 1046 669 950 657 996 669 b 1176 635 1095 669 1138 658 b 1262 539 1213 612 1242 580 b 1292 403 1282 498 1292 453 b 1289 354 1292 377 1291 361 l 1304 401 l 754 401 l 767 354 l 1339 354 b 1341 374 1340 361 1341 367 b 1342 393 1341 380 1342 387 b 1305 563 1342 457 1329 513 b 1201 676 1280 612 1246 650 b 1047 717 1157 703 1106 717 b 886 673 989 717 935 702 b 768 548 837 644 798 602 b 724 357 738 494 724 430 b 765 153 724 276 738 209 b 880 31 793 98 831 57 b 1047 -10 928 4 984 -10 z "},"Ŕ":{"ha":890,"x_min":0,"x_max":0,"o":"m 150 0 l 200 0 l 200 429 l 461 429 b 610 391 523 429 573 416 b 679 267 647 366 670 324 l 724 0 l 778 0 l 729 274 b 670 399 720 325 700 366 b 529 461 640 431 593 452 l 524 438 b 672 485 584 444 633 460 b 757 580 711 511 739 542 b 783 703 775 617 783 658 b 703 897 783 782 756 847 b 469 972 649 947 571 972 l 150 972 z m 460 476 l 200 476 l 200 925 l 460 925 b 663 867 549 925 616 906 b 733 703 710 829 733 774 b 702 581 733 656 723 615 b 609 503 681 547 650 522 b 460 476 568 485 518 476 z m 404 1083 l 451 1083 l 557 1292 l 499 1292 z "},"ŕ":{"ha":429,"x_min":0,"x_max":0,"o":"m 111 0 l 161 0 l 161 522 b 194 622 161 563 172 596 b 297 661 216 648 250 661 l 400 661 l 400 708 l 333 708 b 197 669 275 708 230 695 b 133 557 165 642 144 605 l 161 538 l 161 708 l 111 708 z m 199 819 l 246 819 l 351 1028 l 293 1028 z "},"Ŗ":{"ha":890,"x_min":0,"x_max":0,"o":"m 150 0 l 200 0 l 200 429 l 461 429 b 610 391 523 429 573 416 b 679 267 647 366 670 324 l 724 0 l 778 0 l 729 274 b 670 399 720 325 700 366 b 529 461 640 431 593 452 l 524 438 b 672 485 584 444 633 460 b 757 580 711 511 739 542 b 783 703 775 617 783 658 b 703 897 783 782 756 847 b 469 972 649 947 571 972 l 150 972 z m 460 476 l 200 476 l 200 925 l 460 925 b 663 867 549 925 616 906 b 733 703 710 829 733 774 b 702 581 733 656 723 615 b 609 503 681 547 650 522 b 460 476 568 485 518 476 z m 425 -276 l 438 -310 b 505 -265 467 -300 490 -285 b 528 -178 520 -246 528 -217 l 490 -178 b 472 -246 491 -208 485 -231 b 425 -276 459 -261 444 -271 z m 457 -178 l 528 -178 l 528 -103 l 457 -103 z "},"ŗ":{"ha":429,"x_min":0,"x_max":0,"o":"m 111 0 l 161 0 l 161 522 b 194 622 161 563 172 596 b 297 661 216 648 250 661 l 400 661 l 400 708 l 333 708 b 197 669 275 708 230 695 b 133 557 165 642 144 605 l 161 538 l 161 708 l 111 708 z m 67 -276 l 79 -310 b 147 -265 109 -300 131 -285 b 169 -178 162 -246 169 -217 l 132 -178 b 114 -246 133 -208 127 -231 b 67 -276 101 -261 85 -271 z m 99 -178 l 169 -178 l 169 -103 l 99 -103 z "},"Ř":{"ha":890,"x_min":0,"x_max":0,"o":"m 150 0 l 200 0 l 200 429 l 461 429 b 610 391 523 429 573 416 b 679 267 647 366 670 324 l 724 0 l 778 0 l 729 274 b 670 399 720 325 700 366 b 529 461 640 431 593 452 l 524 438 b 672 485 584 444 633 460 b 757 580 711 511 739 542 b 783 703 775 617 783 658 b 703 897 783 782 756 847 b 469 972 649 947 571 972 l 150 972 z m 460 476 l 200 476 l 200 925 l 460 925 b 663 867 549 925 616 906 b 733 703 710 829 733 774 b 702 581 733 656 723 615 b 609 503 681 547 650 522 b 460 476 568 485 518 476 z m 399 1075 l 454 1075 l 624 1231 l 567 1231 l 413 1089 l 440 1089 l 286 1231 l 231 1231 z "},"ř":{"ha":429,"x_min":0,"x_max":0,"o":"m 111 0 l 161 0 l 161 522 b 194 622 161 563 172 596 b 297 661 216 648 250 661 l 400 661 l 400 708 l 333 708 b 197 669 275 708 230 695 b 133 557 165 642 144 605 l 161 538 l 161 708 l 111 708 z m 200 819 l 250 819 l 403 1028 l 351 1028 l 215 829 l 235 829 l 99 1028 l 49 1028 z "},"Ś":{"ha":825,"x_min":0,"x_max":0,"o":"m 425 -8 b 592 22 491 -8 547 2 b 697 111 638 43 673 72 b 732 253 720 150 732 197 b 668 419 732 324 711 380 b 460 513 625 459 556 490 l 360 536 b 213 608 295 551 246 575 b 163 736 179 641 163 683 b 191 844 163 779 172 815 b 273 911 210 874 237 896 b 400 933 309 926 351 933 b 580 883 479 933 539 917 b 653 732 621 850 645 800 l 704 739 b 615 919 696 819 666 879 b 401 981 564 960 493 981 b 249 951 343 981 292 971 b 148 867 205 932 172 904 b 113 733 124 830 113 785 b 173 574 113 668 133 614 b 344 486 213 533 270 504 l 446 463 b 627 385 530 443 591 417 b 682 250 664 352 682 307 b 616 94 682 182 660 130 b 428 39 572 57 509 39 b 237 92 346 39 283 57 b 136 244 191 128 157 179 l 88 225 b 203 52 111 150 149 92 b 425 -8 256 12 331 -8 z m 397 1083 l 444 1083 l 550 1292 l 492 1292 z "},"ś":{"ha":638,"x_min":0,"x_max":0,"o":"m 328 -8 b 460 13 380 -8 424 -1 b 544 78 497 28 525 49 b 574 183 564 106 574 142 b 557 268 574 216 568 244 b 501 331 546 292 527 313 b 392 372 474 348 438 362 l 279 396 b 169 441 229 407 193 422 b 135 533 146 460 135 491 b 183 633 135 575 151 608 b 315 669 216 657 260 669 b 449 631 375 669 419 656 b 494 519 478 605 494 568 l 546 528 b 483 667 543 587 522 633 b 317 717 443 700 388 717 b 192 694 269 717 227 709 b 113 629 158 678 131 657 b 85 532 94 601 85 569 b 131 409 85 478 100 437 b 261 350 162 381 206 361 l 375 326 b 383 324 378 325 381 325 b 392 322 386 324 389 323 b 493 273 439 311 473 295 b 524 182 513 251 524 221 b 472 75 524 135 506 99 b 326 39 438 51 389 39 b 177 76 265 39 216 51 b 108 192 139 101 116 140 l 60 181 b 141 40 67 119 94 73 b 328 -8 188 8 250 -8 z m 283 819 l 331 819 l 436 1028 l 378 1028 z "},"Ş":{"ha":825,"x_min":0,"x_max":0,"o":"m 425 -8 b 592 22 491 -8 547 2 b 697 111 638 43 673 72 b 732 253 720 150 732 197 b 668 419 732 324 711 380 b 460 513 625 459 556 490 l 360 536 b 213 608 295 551 246 575 b 163 736 179 641 163 683 b 191 844 163 779 172 815 b 273 911 210 874 237 896 b 400 933 309 926 351 933 b 580 883 479 933 539 917 b 653 732 621 850 645 800 l 704 739 b 615 919 696 819 666 879 b 401 981 564 960 493 981 b 249 951 343 981 292 971 b 148 867 205 932 172 904 b 113 733 124 830 113 785 b 173 574 113 668 133 614 b 344 486 213 533 270 504 l 446 463 b 627 385 530 443 591 417 b 682 250 664 352 682 307 b 616 94 682 182 660 130 b 428 39 572 57 509 39 b 237 92 346 39 283 57 b 136 244 191 128 157 179 l 88 225 b 203 52 111 150 149 92 b 425 -8 256 12 331 -8 z m 399 -296 b 509 -267 446 -296 483 -286 b 549 -186 535 -247 549 -220 b 506 -103 549 -151 534 -123 b 386 -72 477 -82 437 -72 l 397 -100 l 431 15 l 389 15 l 354 -106 b 471 -124 408 -106 447 -112 b 507 -185 495 -137 507 -157 b 480 -239 507 -209 498 -227 b 397 -257 462 -251 434 -257 b 329 -253 374 -257 351 -256 l 329 -292 b 399 -296 353 -294 376 -296 z "},"ş":{"ha":638,"x_min":0,"x_max":0,"o":"m 328 -8 b 460 13 380 -8 424 -1 b 544 78 497 28 525 49 b 574 183 564 106 574 142 b 557 268 574 216 568 244 b 501 331 546 292 527 313 b 392 372 474 348 438 362 l 279 396 b 169 441 229 407 193 422 b 135 533 146 460 135 491 b 183 633 135 575 151 608 b 315 669 216 657 260 669 b 449 631 375 669 419 656 b 494 519 478 605 494 568 l 546 528 b 483 667 543 587 522 633 b 317 717 443 700 388 717 b 192 694 269 717 227 709 b 113 629 158 678 131 657 b 85 532 94 601 85 569 b 131 409 85 478 100 437 b 261 350 162 381 206 361 l 375 326 b 383 324 378 325 381 325 b 392 322 386 324 389 323 b 493 273 439 311 473 295 b 524 182 513 251 524 221 b 472 75 524 135 506 99 b 326 39 438 51 389 39 b 177 76 265 39 216 51 b 108 192 139 101 116 140 l 60 181 b 141 40 67 119 94 73 b 328 -8 188 8 250 -8 z m 296 -296 b 406 -267 343 -296 380 -286 b 446 -186 433 -247 446 -220 b 403 -103 446 -151 431 -123 b 283 -72 374 -82 334 -72 l 294 -100 l 328 15 l 286 15 l 251 -106 b 368 -124 305 -106 344 -112 b 404 -185 392 -137 404 -157 b 377 -239 404 -209 395 -227 b 294 -257 359 -251 331 -257 b 226 -253 271 -257 249 -256 l 226 -292 b 296 -296 250 -294 274 -296 z "},"Š":{"ha":825,"x_min":0,"x_max":0,"o":"m 425 -8 b 592 22 491 -8 547 2 b 697 111 638 43 673 72 b 732 253 720 150 732 197 b 668 419 732 324 711 380 b 460 513 625 459 556 490 l 360 536 b 213 608 295 551 246 575 b 163 736 179 641 163 683 b 191 844 163 779 172 815 b 273 911 210 874 237 896 b 400 933 309 926 351 933 b 580 883 479 933 539 917 b 653 732 621 850 645 800 l 704 739 b 615 919 696 819 666 879 b 401 981 564 960 493 981 b 249 951 343 981 292 971 b 148 867 205 932 172 904 b 113 733 124 830 113 785 b 173 574 113 668 133 614 b 344 486 213 533 270 504 l 446 463 b 627 385 530 443 591 417 b 682 250 664 352 682 307 b 616 94 682 182 660 130 b 428 39 572 57 509 39 b 237 92 346 39 283 57 b 136 244 191 128 157 179 l 88 225 b 203 52 111 150 149 92 b 425 -8 256 12 331 -8 z m 392 1075 l 447 1075 l 617 1231 l 560 1231 l 406 1089 l 433 1089 l 279 1231 l 224 1231 z "},"š":{"ha":638,"x_min":0,"x_max":0,"o":"m 328 -8 b 460 13 380 -8 424 -1 b 544 78 497 28 525 49 b 574 183 564 106 574 142 b 557 268 574 216 568 244 b 501 331 546 292 527 313 b 392 372 474 348 438 362 l 279 396 b 169 441 229 407 193 422 b 135 533 146 460 135 491 b 183 633 135 575 151 608 b 315 669 216 657 260 669 b 449 631 375 669 419 656 b 494 519 478 605 494 568 l 546 528 b 483 667 543 587 522 633 b 317 717 443 700 388 717 b 192 694 269 717 227 709 b 113 629 158 678 131 657 b 85 532 94 601 85 569 b 131 409 85 478 100 437 b 261 350 162 381 206 361 l 375 326 b 383 324 378 325 381 325 b 392 322 386 324 389 323 b 493 273 439 311 473 295 b 524 182 513 251 524 221 b 472 75 524 135 506 99 b 326 39 438 51 389 39 b 177 76 265 39 216 51 b 108 192 139 101 116 140 l 60 181 b 141 40 67 119 94 73 b 328 -8 188 8 250 -8 z m 285 819 l 335 819 l 488 1028 l 436 1028 l 300 829 l 319 829 l 183 1028 l 133 1028 z "},"Ţ":{"ha":831,"x_min":0,"x_max":0,"o":"m 390 0 l 440 0 l 440 925 l 794 925 l 794 972 l 36 972 l 36 925 l 390 925 z m 346 -276 l 358 -310 b 426 -265 388 -300 410 -285 b 449 -178 441 -246 449 -217 l 411 -178 b 393 -246 412 -208 406 -231 b 346 -276 380 -261 364 -271 z m 378 -178 l 449 -178 l 449 -103 l 378 -103 z "},"ţ":{"ha":407,"x_min":0,"x_max":0,"o":"m 318 0 l 372 0 l 372 47 l 275 47 b 219 65 249 47 231 53 b 203 124 208 76 203 96 l 203 663 l 369 661 l 369 708 l 203 707 l 203 914 l 156 914 l 156 753 b 146 716 156 734 152 722 b 110 707 139 710 127 707 l 24 708 l 24 661 l 153 663 l 153 144 b 192 32 153 91 166 53 b 318 0 218 11 260 0 z m 208 -276 l 221 -310 b 288 -265 250 -300 273 -285 b 311 -178 303 -246 311 -217 l 274 -178 b 256 -246 275 -208 269 -231 b 208 -276 243 -261 227 -271 z m 240 -178 l 311 -178 l 311 -103 l 240 -103 z "},"Ť":{"ha":831,"x_min":0,"x_max":0,"o":"m 390 0 l 440 0 l 440 925 l 794 925 l 794 972 l 36 972 l 36 925 l 390 925 z m 386 1075 l 442 1075 l 611 1231 l 554 1231 l 400 1089 l 428 1089 l 274 1231 l 218 1231 z "},"ť":{"ha":407,"x_min":0,"x_max":0,"o":"m 318 0 l 372 0 l 372 47 l 275 47 b 219 65 249 47 231 53 b 203 124 208 76 203 96 l 203 663 l 369 661 l 369 708 l 203 707 l 203 914 l 156 914 l 156 753 b 146 716 156 734 152 722 b 110 707 139 710 127 707 l 24 708 l 24 661 l 153 663 l 153 144 b 192 32 153 91 166 53 b 318 0 218 11 260 0 z m 293 857 l 329 857 l 354 1068 l 307 1068 z "},"Ŧ":{"ha":831,"x_min":0,"x_max":0,"o":"m 126 471 l 706 471 l 706 518 l 126 518 z m 390 0 l 440 0 l 440 925 l 794 925 l 794 972 l 36 972 l 36 925 l 390 925 z "},"ŧ":{"ha":417,"x_min":0,"x_max":0,"o":"m 24 444 l 379 444 l 379 492 l 24 492 z m 328 0 l 382 0 l 382 47 l 285 47 b 229 65 259 47 240 53 b 213 124 218 76 213 96 l 213 663 l 379 661 l 379 708 l 213 707 l 213 914 l 165 914 l 165 753 b 156 716 165 734 162 722 b 119 707 149 710 137 707 l 33 708 l 33 661 l 163 663 l 163 144 b 201 32 163 91 175 53 b 328 0 227 11 269 0 z "},"Ũ":{"ha":979,"x_min":0,"x_max":0,"o":"m 490 -8 b 674 35 558 -8 619 6 b 803 163 728 63 771 106 b 850 371 834 220 850 289 l 850 972 l 797 972 l 797 381 b 714 128 797 272 769 188 b 490 39 658 69 584 39 b 328 78 429 39 375 52 b 220 195 282 105 246 144 b 182 381 195 247 182 308 l 182 972 l 129 972 l 129 371 b 176 165 129 290 145 222 b 305 35 208 108 251 65 b 490 -8 359 6 421 -8 z m 317 1126 l 354 1126 b 365 1178 354 1149 358 1166 b 399 1197 372 1191 383 1197 b 439 1189 413 1197 426 1194 b 486 1165 452 1183 468 1175 b 538 1140 506 1154 524 1146 b 582 1132 551 1135 566 1132 b 640 1160 606 1132 625 1141 b 663 1244 655 1178 663 1206 l 625 1244 b 614 1192 625 1222 621 1205 b 579 1174 606 1180 595 1174 b 539 1182 565 1174 552 1176 b 493 1206 526 1188 511 1195 b 442 1231 472 1217 455 1225 b 399 1239 429 1236 414 1239 b 339 1212 374 1239 354 1230 b 317 1126 324 1194 317 1165 z "},"ũ":{"ha":779,"x_min":0,"x_max":0,"o":"m 369 -8 b 555 54 444 -8 505 13 b 639 218 604 96 632 150 l 618 219 l 618 0 l 668 0 l 668 708 l 618 708 l 618 315 b 589 171 618 261 608 213 b 506 74 569 129 542 97 b 382 39 469 50 428 39 b 216 102 313 39 257 60 b 154 283 175 144 154 205 l 154 708 l 104 708 l 104 283 b 137 125 104 221 115 169 b 229 26 159 81 189 48 b 369 -8 269 3 316 -8 z m 217 863 l 254 863 b 265 915 254 885 258 902 b 299 933 272 927 283 933 b 339 925 313 933 326 931 b 386 901 352 919 368 912 b 438 876 406 890 424 882 b 482 868 451 871 466 868 b 540 896 506 868 525 877 b 563 981 555 914 563 943 l 525 981 b 514 928 525 958 521 941 b 479 910 506 916 495 910 b 439 918 465 910 452 913 b 393 942 426 924 411 931 b 342 967 372 953 355 961 b 299 975 329 972 314 975 b 239 948 274 975 254 966 b 217 863 224 930 217 901 z "},"Ū":{"ha":979,"x_min":0,"x_max":0,"o":"m 490 -8 b 674 35 558 -8 619 6 b 803 163 728 63 771 106 b 850 371 834 220 850 289 l 850 972 l 797 972 l 797 381 b 714 128 797 272 769 188 b 490 39 658 69 584 39 b 328 78 429 39 375 52 b 220 195 282 105 246 144 b 182 381 195 247 182 308 l 182 972 l 129 972 l 129 371 b 176 165 129 290 145 222 b 305 35 208 108 251 65 b 490 -8 359 6 421 -8 z m 290 1154 l 689 1154 l 689 1201 l 290 1201 z "},"ū":{"ha":779,"x_min":0,"x_max":0,"o":"m 369 -8 b 555 54 444 -8 505 13 b 639 218 604 96 632 150 l 618 219 l 618 0 l 668 0 l 668 708 l 618 708 l 618 315 b 589 171 618 261 608 213 b 506 74 569 129 542 97 b 382 39 469 50 428 39 b 216 102 313 39 257 60 b 154 283 175 144 154 205 l 154 708 l 104 708 l 104 283 b 137 125 104 221 115 169 b 229 26 159 81 189 48 b 369 -8 269 3 316 -8 z m 190 890 l 589 890 l 589 938 l 190 938 z "},"Ů":{"ha":979,"x_min":0,"x_max":0,"o":"m 490 -8 b 674 35 558 -8 619 6 b 803 163 728 63 771 106 b 850 371 834 220 850 289 l 850 972 l 797 972 l 797 381 b 714 128 797 272 769 188 b 490 39 658 69 584 39 b 328 78 429 39 375 52 b 220 195 282 105 246 144 b 182 381 195 247 182 308 l 182 972 l 129 972 l 129 371 b 176 165 129 290 145 222 b 305 35 208 108 251 65 b 490 -8 359 6 421 -8 z m 490 1093 b 558 1108 515 1093 538 1098 b 605 1150 578 1117 593 1131 b 622 1215 616 1169 622 1190 b 585 1306 622 1254 610 1284 b 490 1338 561 1327 529 1338 b 395 1306 451 1338 420 1327 b 358 1215 371 1284 358 1254 b 395 1126 358 1177 371 1147 b 490 1093 420 1104 451 1093 z m 489 1126 b 424 1150 463 1126 441 1134 b 399 1215 407 1166 399 1188 b 424 1281 399 1243 407 1265 b 489 1304 441 1296 463 1304 b 556 1281 516 1304 538 1296 b 582 1215 573 1265 582 1243 b 556 1150 582 1188 573 1166 b 489 1126 538 1134 516 1126 z "},"ů":{"ha":779,"x_min":0,"x_max":0,"o":"m 369 -8 b 555 54 444 -8 505 13 b 639 218 604 96 632 150 l 618 219 l 618 0 l 668 0 l 668 708 l 618 708 l 618 315 b 589 171 618 261 608 213 b 506 74 569 129 542 97 b 382 39 469 50 428 39 b 216 102 313 39 257 60 b 154 283 175 144 154 205 l 154 708 l 104 708 l 104 283 b 137 125 104 221 115 169 b 229 26 159 81 189 48 b 369 -8 269 3 316 -8 z m 390 829 b 458 844 415 829 438 834 b 505 886 478 853 493 868 b 522 951 516 905 522 926 b 485 1042 522 990 510 1020 b 390 1074 461 1063 429 1074 b 295 1042 351 1074 320 1063 b 258 951 271 1020 258 990 b 295 862 258 913 271 884 b 390 829 320 840 351 829 z m 389 863 b 324 886 363 863 341 870 b 299 951 307 902 299 924 b 324 1017 299 979 307 1001 b 389 1040 341 1032 363 1040 b 456 1017 416 1040 438 1032 b 482 951 473 1001 482 979 b 456 886 482 924 473 902 b 389 863 438 870 416 863 z "},"Ű":{"ha":979,"x_min":0,"x_max":0,"o":"m 490 -8 b 674 35 558 -8 619 6 b 803 163 728 63 771 106 b 850 371 834 220 850 289 l 850 972 l 797 972 l 797 381 b 714 128 797 272 769 188 b 490 39 658 69 584 39 b 328 78 429 39 375 52 b 220 195 282 105 246 144 b 182 381 195 247 182 308 l 182 972 l 129 972 l 129 371 b 176 165 129 290 145 222 b 305 35 208 108 251 65 b 490 -8 359 6 421 -8 z m 538 1068 l 576 1068 l 650 1219 l 601 1219 z m 378 1068 l 417 1068 l 490 1219 l 442 1219 z "},"ű":{"ha":779,"x_min":0,"x_max":0,"o":"m 369 -8 b 555 54 444 -8 505 13 b 639 218 604 96 632 150 l 618 219 l 618 0 l 668 0 l 668 708 l 618 708 l 618 315 b 589 171 618 261 608 213 b 506 74 569 129 542 97 b 382 39 469 50 428 39 b 216 102 313 39 257 60 b 154 283 175 144 154 205 l 154 708 l 104 708 l 104 283 b 137 125 104 221 115 169 b 229 26 159 81 189 48 b 369 -8 269 3 316 -8 z m 438 819 l 476 819 l 550 1028 l 501 1028 z m 278 819 l 317 819 l 390 1028 l 342 1028 z "},"Ų":{"ha":979,"x_min":0,"x_max":0,"o":"m 574 -206 b 651 -201 600 -206 626 -204 l 651 -158 b 581 -164 616 -162 593 -164 b 524 -149 556 -164 537 -159 b 506 -100 512 -138 506 -122 b 536 -37 506 -80 516 -59 b 626 14 556 -15 587 2 l 608 43 b 599 39 605 42 601 41 b 589 35 596 37 593 36 b 522 -2 563 24 541 11 b 476 -47 503 -16 488 -31 b 460 -103 465 -64 460 -82 b 489 -180 460 -137 469 -163 b 574 -206 508 -197 537 -206 z m 490 -8 b 674 35 558 -8 619 6 b 803 163 728 63 771 106 b 850 371 834 220 850 289 l 850 972 l 797 972 l 797 381 b 714 128 797 272 769 188 b 490 39 658 69 584 39 b 328 78 429 39 375 52 b 220 195 282 105 246 144 b 182 381 195 247 182 308 l 182 972 l 129 972 l 129 371 b 176 165 129 290 145 222 b 305 35 208 108 251 65 b 490 -8 359 6 421 -8 z "},"ų":{"ha":779,"x_min":0,"x_max":0,"o":"m 369 -8 b 555 54 444 -8 505 13 b 639 218 604 96 632 150 l 618 219 l 618 0 l 668 0 l 668 708 l 618 708 l 618 315 b 589 171 618 261 608 213 b 506 74 569 129 542 97 b 382 39 469 50 428 39 b 216 102 313 39 257 60 b 154 283 175 144 154 205 l 154 708 l 104 708 l 104 283 b 137 125 104 221 115 169 b 229 26 159 81 189 48 b 369 -8 269 3 316 -8 z m 617 -219 b 694 -215 644 -219 669 -218 l 694 -172 b 624 -178 659 -176 636 -178 b 578 -162 604 -178 589 -173 b 563 -121 568 -152 563 -138 b 579 -72 563 -104 568 -88 b 631 -24 590 -56 607 -40 b 649 -12 636 -20 642 -16 b 668 0 655 -8 662 -4 l 651 29 l 638 22 b 573 -19 612 7 590 -6 b 532 -65 556 -32 542 -47 b 517 -124 522 -82 517 -101 b 542 -194 517 -153 525 -177 b 617 -219 559 -211 584 -219 z "},"Ŵ":{"ha":1417,"x_min":0,"x_max":0,"o":"m 344 0 l 417 0 l 708 907 l 711 907 l 1001 0 l 1074 0 l 1371 972 l 1322 972 l 1039 56 l 1036 56 l 744 972 l 678 972 l 383 56 l 381 56 l 101 972 l 46 972 z m 508 1075 l 564 1075 l 718 1217 l 690 1217 l 844 1075 l 901 1075 l 732 1231 l 676 1231 z "},"ŵ":{"ha":1032,"x_min":0,"x_max":0,"o":"m 256 0 l 318 0 l 515 639 l 517 639 l 714 0 l 778 0 l 1007 708 l 957 708 l 750 57 l 747 57 l 546 708 l 490 708 l 286 57 l 285 57 l 79 708 l 25 708 z m 340 819 l 390 819 l 526 1018 l 507 1018 l 643 819 l 694 819 l 542 1028 l 492 1028 z "},"Ŷ":{"ha":826,"x_min":0,"x_max":0,"o":"m 399 413 l 428 413 l 776 972 l 715 972 l 401 461 l 426 461 l 111 972 l 50 972 z m 390 0 l 440 0 l 440 468 l 390 468 z m 218 1075 l 274 1075 l 428 1217 l 400 1217 l 554 1075 l 611 1075 l 442 1231 l 386 1231 z "},"ŷ":{"ha":715,"x_min":0,"x_max":0,"o":"m 74 -278 l 110 -278 b 209 -268 151 -278 184 -275 b 274 -226 234 -262 255 -248 b 329 -128 293 -205 312 -172 l 654 708 l 603 708 l 353 64 l 351 64 l 82 708 l 28 708 l 335 -17 l 333 13 l 271 -150 b 244 -199 263 -171 254 -188 b 210 -224 235 -211 224 -219 b 157 -231 197 -228 179 -231 l 74 -231 z m 169 819 l 219 819 l 356 1018 l 336 1018 l 472 819 l 524 819 l 371 1028 l 321 1028 z "},"Ÿ":{"ha":826,"x_min":0,"x_max":0,"o":"m 399 413 l 428 413 l 776 972 l 715 972 l 401 461 l 426 461 l 111 972 l 50 972 z m 390 0 l 440 0 l 440 468 l 390 468 z m 515 1121 l 565 1121 l 565 1267 l 515 1267 z m 263 1121 l 313 1121 l 313 1267 l 263 1267 z "},"Ź":{"ha":815,"x_min":0,"x_max":0,"o":"m 40 0 l 765 0 l 765 47 l 94 47 l 96 33 l 765 931 l 765 972 l 58 972 l 58 925 l 710 925 l 708 938 l 40 42 z m 385 1083 l 432 1083 l 538 1292 l 479 1292 z "},"ź":{"ha":610,"x_min":0,"x_max":0,"o":"m 29 0 l 579 0 l 579 47 l 83 47 l 78 29 l 579 660 l 579 708 l 39 708 l 39 661 l 536 661 l 532 679 l 29 47 z m 276 819 l 324 819 l 429 1028 l 371 1028 z "},"Ż":{"ha":815,"x_min":0,"x_max":0,"o":"m 40 0 l 765 0 l 765 47 l 94 47 l 96 33 l 765 931 l 765 972 l 58 972 l 58 925 l 710 925 l 708 938 l 40 42 z m 383 1079 l 433 1079 l 433 1225 l 383 1225 z "},"ż":{"ha":610,"x_min":0,"x_max":0,"o":"m 29 0 l 579 0 l 579 47 l 83 47 l 78 29 l 579 660 l 579 708 l 39 708 l 39 661 l 536 661 l 532 679 l 29 47 z m 279 822 l 329 822 l 329 968 l 279 968 z "},"Ž":{"ha":815,"x_min":0,"x_max":0,"o":"m 40 0 l 765 0 l 765 47 l 94 47 l 96 33 l 765 931 l 765 972 l 58 972 l 58 925 l 710 925 l 708 938 l 40 42 z m 379 1075 l 435 1075 l 604 1231 l 547 1231 l 393 1089 l 421 1089 l 267 1231 l 211 1231 z "},"ž":{"ha":610,"x_min":0,"x_max":0,"o":"m 29 0 l 579 0 l 579 47 l 83 47 l 78 29 l 579 660 l 579 708 l 39 708 l 39 661 l 536 661 l 532 679 l 29 47 z m 278 819 l 328 819 l 481 1028 l 429 1028 l 293 829 l 313 829 l 176 1028 l 126 1028 z "},"Ǵ":{"ha":1078,"x_min":0,"x_max":0,"o":"m 558 -8 b 787 56 646 -8 722 13 b 928 238 851 99 898 160 l 922 246 l 922 0 l 972 0 l 972 465 l 572 465 l 572 418 l 943 418 l 921 440 l 921 430 l 921 421 l 921 411 l 921 403 b 874 221 921 337 905 276 b 743 88 842 165 799 121 b 557 39 688 55 625 39 b 336 92 471 39 397 57 b 197 246 275 128 228 179 b 149 485 165 313 149 392 b 200 724 149 576 166 656 b 344 881 234 792 282 844 b 554 933 405 917 475 934 b 788 866 652 933 730 911 b 906 661 845 821 884 753 l 957 669 b 882 842 942 738 917 795 b 747 946 847 888 802 923 b 553 981 691 969 627 981 b 319 920 466 981 388 960 b 157 747 250 880 196 822 b 99 485 118 672 99 585 b 154 217 99 380 117 291 b 313 49 191 144 244 88 b 558 -8 381 11 463 -8 z m 611 1083 l 658 1083 l 764 1292 l 706 1292 z "},"ǵ":{"ha":844,"x_min":0,"x_max":0,"o":"m 408 -278 b 647 -185 510 -278 590 -247 b 733 79 705 -123 733 -35 l 733 708 l 683 708 l 683 467 l 703 483 b 649 609 694 532 677 574 b 545 689 622 644 587 670 b 404 717 503 707 456 717 b 231 675 338 717 280 703 b 119 554 183 647 145 607 b 79 368 92 501 79 439 b 119 183 79 297 92 235 b 232 62 145 130 183 90 b 404 19 281 34 338 19 b 543 46 455 19 501 28 b 647 124 585 63 619 90 b 703 250 675 159 694 201 l 683 263 l 683 76 b 610 -152 683 -24 659 -100 b 411 -231 562 -204 495 -231 b 264 -201 356 -231 307 -221 b 161 -106 220 -181 186 -149 l 118 -132 b 231 -239 141 -177 179 -213 b 408 -278 284 -265 343 -278 z m 407 67 b 202 151 319 67 251 95 b 129 368 153 207 129 279 b 161 524 129 426 140 478 b 256 631 182 569 214 605 b 407 669 298 656 349 669 b 610 586 494 669 562 642 b 683 368 659 531 683 458 b 651 213 683 310 673 258 b 557 106 630 167 599 131 b 407 67 515 80 465 67 z m 422 819 l 469 819 l 575 1028 l 517 1028 z "},"Ǽ":{"ha":1346,"x_min":0,"x_max":0,"o":"m -18 0 l 36 0 l 618 929 l 624 929 l 624 333 l 231 333 l 201 286 l 624 286 l 624 0 l 1242 0 l 1242 47 l 674 47 l 674 450 l 1193 450 l 1193 497 l 674 497 l 674 925 l 1235 925 l 1235 972 l 586 972 z m 897 1083 l 944 1083 l 1050 1292 l 992 1292 z "},"ǽ":{"ha":1307,"x_min":0,"x_max":0,"o":"m 286 -8 b 435 24 338 -8 388 2 b 556 113 482 45 522 75 b 626 247 590 152 613 196 l 642 229 l 642 478 b 609 608 642 529 631 572 b 517 689 587 643 556 670 b 378 717 477 707 431 717 b 182 656 297 717 232 696 b 93 490 132 615 102 560 l 143 479 b 216 618 150 538 175 584 b 381 669 257 652 312 669 b 538 617 449 669 501 652 b 592 469 574 581 592 532 l 592 392 l 276 364 b 119 309 211 358 158 340 b 61 174 81 278 61 233 b 124 38 61 114 82 69 b 286 -8 165 7 219 -8 z m 290 39 b 163 74 240 39 198 50 b 111 176 128 97 111 131 b 156 276 111 219 126 252 b 283 318 186 299 229 313 l 592 346 l 592 314 b 549 174 592 263 578 216 b 438 75 521 132 484 99 b 290 39 391 51 342 39 z m 935 -10 b 1124 48 1013 -10 1076 9 b 1231 199 1171 86 1206 137 l 1182 215 b 1089 83 1161 158 1130 114 b 933 38 1048 53 996 38 b 735 118 850 38 784 64 b 661 346 686 172 661 248 b 698 522 661 414 673 473 b 797 633 722 571 755 608 b 933 669 838 657 883 669 b 1063 635 982 669 1026 658 b 1149 539 1101 612 1129 580 b 1179 403 1169 498 1179 453 b 1176 354 1179 377 1178 361 l 1192 401 l 642 401 l 654 354 l 1226 354 b 1228 374 1227 361 1228 367 b 1229 393 1229 380 1229 387 b 1192 563 1229 457 1217 513 b 1089 676 1168 612 1133 650 b 935 717 1044 703 993 717 b 774 673 876 717 823 702 b 656 548 725 644 685 602 b 611 357 626 494 611 430 b 653 153 611 276 625 209 b 767 31 681 98 719 57 b 935 -10 816 4 872 -10 z m 597 819 l 644 819 l 750 1028 l 692 1028 z "},"Ǿ":{"ha":1113,"x_min":0,"x_max":0,"o":"m 168 69 l 981 871 l 946 904 l 135 106 z m 557 -8 b 796 53 647 -8 726 12 b 957 227 865 95 919 153 b 1014 483 995 302 1014 387 b 957 742 1014 581 995 667 b 796 918 919 818 865 876 b 557 981 726 960 647 981 b 317 918 466 981 386 960 b 156 742 247 876 194 818 b 99 483 118 667 99 581 b 156 227 99 387 118 302 b 317 53 194 153 247 95 b 557 -8 386 12 466 -8 z m 557 39 b 343 94 476 39 405 57 b 199 251 281 131 233 184 b 149 483 166 318 149 395 b 200 719 149 572 166 651 b 344 877 234 787 282 840 b 557 933 405 915 476 933 b 770 877 638 933 709 915 b 913 719 832 840 879 787 b 964 483 947 651 964 572 b 913 251 964 395 947 318 b 770 94 879 184 832 131 b 557 39 709 57 638 39 z m 533 1083 l 581 1083 l 686 1292 l 628 1292 z "},"ǿ":{"ha":851,"x_min":0,"x_max":0,"o":"m 107 14 l 761 661 l 733 690 l 79 43 z m 439 -8 b 610 35 503 -8 560 6 b 729 162 661 65 700 107 b 772 354 758 217 772 281 b 729 544 772 426 758 490 b 610 672 700 599 661 641 b 439 717 560 702 503 717 b 267 673 375 717 318 702 b 149 547 217 644 177 602 b 106 354 120 491 106 427 b 149 162 106 281 120 217 b 267 35 177 107 217 65 b 439 -8 318 6 375 -8 z m 439 39 b 292 76 384 39 335 51 b 192 184 249 100 216 136 b 156 354 168 232 156 288 b 192 524 156 420 168 477 b 292 633 216 572 249 608 b 439 669 335 657 384 669 b 585 633 494 669 542 657 b 686 524 628 608 662 572 b 722 354 710 477 722 420 b 686 184 722 288 710 232 b 585 76 662 136 628 100 b 439 39 542 51 494 39 z m 413 819 l 460 819 l 565 1028 l 507 1028 z "},"Ș":{"ha":825,"x_min":0,"x_max":0,"o":"m 425 -8 b 592 22 491 -8 547 2 b 697 111 638 43 673 72 b 732 253 720 150 732 197 b 668 419 732 324 711 380 b 460 513 625 459 556 490 l 360 536 b 213 608 295 551 246 575 b 163 736 179 641 163 683 b 191 844 163 779 172 815 b 273 911 210 874 237 896 b 400 933 309 926 351 933 b 580 883 479 933 539 917 b 653 732 621 850 645 800 l 704 739 b 615 919 696 819 666 879 b 401 981 564 960 493 981 b 249 951 343 981 292 971 b 148 867 205 932 172 904 b 113 733 124 830 113 785 b 173 574 113 668 133 614 b 344 486 213 533 270 504 l 446 463 b 627 385 530 443 591 417 b 682 250 664 352 682 307 b 616 94 682 182 660 130 b 428 39 572 57 509 39 b 237 92 346 39 283 57 b 136 244 191 128 157 179 l 88 225 b 203 52 111 150 149 92 b 425 -8 256 12 331 -8 z m 347 -276 l 360 -310 b 427 -265 389 -300 412 -285 b 450 -178 442 -246 450 -217 l 413 -178 b 394 -246 413 -208 407 -231 b 347 -276 381 -261 366 -271 z m 379 -178 l 450 -178 l 450 -103 l 379 -103 z "},"ș":{"ha":638,"x_min":0,"x_max":0,"o":"m 328 -8 b 460 13 380 -8 424 -1 b 544 78 497 28 525 49 b 574 183 564 106 574 142 b 557 268 574 216 568 244 b 501 331 546 292 527 313 b 392 372 474 348 438 362 l 279 396 b 169 441 229 407 193 422 b 135 533 146 460 135 491 b 183 633 135 575 151 608 b 315 669 216 657 260 669 b 449 631 375 669 419 656 b 494 519 478 605 494 568 l 546 528 b 483 667 543 587 522 633 b 317 717 443 700 388 717 b 192 694 269 717 227 709 b 113 629 158 678 131 657 b 85 532 94 601 85 569 b 131 409 85 478 100 437 b 261 350 162 381 206 361 l 375 326 b 383 324 378 325 381 325 b 392 322 386 324 389 323 b 493 273 439 311 473 295 b 524 182 513 251 524 221 b 472 75 524 135 506 99 b 326 39 438 51 389 39 b 177 76 265 39 216 51 b 108 192 139 101 116 140 l 60 181 b 141 40 67 119 94 73 b 328 -8 188 8 250 -8 z m 244 -276 l 257 -310 b 324 -265 287 -300 309 -285 b 347 -178 340 -246 347 -217 l 310 -178 b 292 -246 311 -208 305 -231 b 244 -276 279 -261 263 -271 z m 276 -178 l 347 -178 l 347 -103 l 276 -103 z "},"Ț":{"ha":831,"x_min":0,"x_max":0,"o":"m 390 0 l 440 0 l 440 925 l 794 925 l 794 972 l 36 972 l 36 925 l 390 925 z m 346 -276 l 358 -310 b 426 -265 388 -300 410 -285 b 449 -178 441 -246 449 -217 l 411 -178 b 393 -246 412 -208 406 -231 b 346 -276 380 -261 364 -271 z m 378 -178 l 449 -178 l 449 -103 l 378 -103 z "},"ț":{"ha":407,"x_min":0,"x_max":0,"o":"m 318 0 l 372 0 l 372 47 l 275 47 b 219 65 249 47 231 53 b 203 124 208 76 203 96 l 203 663 l 369 661 l 369 708 l 203 707 l 203 914 l 156 914 l 156 753 b 146 716 156 734 152 722 b 110 707 139 710 127 707 l 24 708 l 24 661 l 153 663 l 153 144 b 192 32 153 91 166 53 b 318 0 218 11 260 0 z m 208 -276 l 221 -310 b 288 -265 250 -300 273 -285 b 311 -178 303 -246 311 -217 l 274 -178 b 256 -246 275 -208 269 -231 b 208 -276 243 -261 227 -271 z m 240 -178 l 311 -178 l 311 -103 l 240 -103 z "},"ȷ":{"ha":319,"x_min":0,"x_max":0,"o":"m 46 -233 b 158 -190 93 -233 131 -219 b 200 -44 186 -160 200 -112 l 200 708 l 150 708 l 150 -39 b 123 -153 150 -94 141 -132 b 44 -186 105 -175 79 -186 b -22 -176 24 -186 2 -183 l -24 -225 b 12 -231 -13 -228 -2 -230 b 46 -233 25 -233 37 -233 z "},"ˆ":{"ha":438,"x_min":0,"x_max":0,"o":"m 42 833 l 92 833 l 228 1032 l 208 1032 l 344 833 l 396 833 l 243 1042 l 193 1042 z "},"ˇ":{"ha":438,"x_min":0,"x_max":0,"o":"m 193 833 l 243 833 l 396 1042 l 344 1042 l 208 843 l 228 843 l 92 1042 l 42 1042 z "},"˘":{"ha":461,"x_min":0,"x_max":0,"o":"m 231 835 b 356 869 282 835 324 846 b 419 982 387 893 408 930 l 371 982 b 324 901 361 946 345 919 b 231 875 303 884 272 875 b 135 901 188 875 156 884 b 90 982 115 919 100 946 l 42 982 b 105 869 53 930 74 893 b 231 835 136 846 178 835 z "},"˙":{"ha":133,"x_min":0,"x_max":0,"o":"m 42 836 l 92 836 l 92 982 l 42 982 z "},"˚":{"ha":347,"x_min":0,"x_max":0,"o":"m 174 843 b 241 858 199 843 221 848 b 288 900 261 867 277 881 b 306 965 300 919 306 940 b 269 1056 306 1004 293 1034 b 174 1088 244 1077 213 1088 b 78 1056 135 1088 103 1077 b 42 965 54 1034 42 1004 b 78 876 42 927 54 897 b 174 843 103 854 135 843 z m 172 876 b 108 900 146 876 125 884 b 82 965 91 916 82 938 b 108 1031 82 993 91 1015 b 172 1054 125 1046 146 1054 b 239 1031 199 1054 221 1046 b 265 965 256 1015 265 993 b 239 900 265 938 256 916 b 172 876 221 884 199 876 z "},"˛":{"ha":261,"x_min":0,"x_max":0,"o":"m 142 -219 b 219 -215 169 -219 194 -218 l 219 -172 b 149 -178 184 -176 161 -178 b 103 -162 129 -178 114 -173 b 88 -121 93 -152 88 -138 b 104 -72 88 -104 93 -88 b 156 -24 115 -56 132 -40 b 174 -12 161 -20 167 -16 b 193 0 180 -8 187 -4 l 176 29 l 163 22 b 98 -19 137 7 115 -6 b 57 -65 81 -32 67 -47 b 42 -124 47 -82 42 -101 b 67 -194 42 -153 50 -177 b 142 -219 84 -211 109 -219 z "},"˜":{"ha":429,"x_min":0,"x_max":0,"o":"m 42 863 l 79 863 b 90 915 79 885 83 902 b 124 933 97 927 108 933 b 164 925 138 933 151 931 b 211 901 177 919 193 912 b 263 876 231 890 249 882 b 307 868 276 871 291 868 b 365 896 331 868 350 877 b 388 981 380 914 388 943 l 350 981 b 339 928 350 958 346 941 b 304 910 331 916 320 910 b 264 918 290 910 277 913 b 218 942 251 924 236 931 b 167 967 197 953 180 961 b 124 975 154 972 139 975 b 64 948 99 975 79 966 b 42 863 49 930 42 901 z "},"˝":{"ha":356,"x_min":0,"x_max":0,"o":"m 201 819 l 240 819 l 314 1028 l 265 1028 z m 42 819 l 81 819 l 154 1028 l 106 1028 z "},"̀":{"ha":0,"x_min":0,"x_max":0,"o":"m -81 833 l -42 833 l -106 1042 l -154 1042 z "},"́":{"ha":0,"x_min":0,"x_max":0,"o":"m -194 819 l -147 819 l -42 1028 l -100 1028 z "},"̦":{"ha":0,"x_min":0,"x_max":0,"o":"m -144 -276 l -132 -310 b -65 -265 -102 -300 -80 -285 b -42 -178 -49 -246 -42 -217 l -79 -178 b -97 -246 -78 -208 -84 -231 b -144 -276 -110 -261 -126 -271 z m -112 -178 l -42 -178 l -42 -103 l -112 -103 z "},"Ѐ":{"ha":872,"x_min":0,"x_max":0,"o":"m 150 0 l 768 0 l 768 47 l 200 47 l 200 450 l 719 450 l 719 497 l 200 497 l 200 925 l 761 925 l 761 972 l 150 972 z m 465 1083 l 504 1083 l 440 1292 l 392 1292 z "},"Ё":{"ha":872,"x_min":0,"x_max":0,"o":"m 150 0 l 768 0 l 768 47 l 200 47 l 200 450 l 719 450 l 719 497 l 200 497 l 200 925 l 761 925 l 761 972 l 150 972 z m 567 1121 l 617 1121 l 617 1267 l 567 1267 z m 314 1121 l 364 1121 l 364 1267 l 314 1267 z "},"Ђ":{"ha":1032,"x_min":0,"x_max":0,"o":"m 258 0 l 308 0 l 308 925 l 783 925 l 783 972 l 58 972 l 58 925 l 258 925 z m 632 -10 b 803 29 699 -10 756 3 b 910 140 850 55 886 92 b 946 311 934 188 946 245 b 853 528 946 408 915 481 b 615 600 792 576 713 600 b 467 583 565 600 516 594 b 301 526 419 571 363 552 l 304 468 b 453 530 351 495 401 516 b 615 551 506 544 560 551 b 825 488 708 551 778 530 b 896 307 872 446 896 386 b 863 158 896 249 885 199 b 771 67 840 118 810 87 b 638 38 732 47 688 38 b 531 51 598 38 562 42 b 432 85 499 59 466 71 l 431 85 b 429 86 431 86 430 86 l 429 31 b 632 -10 498 4 565 -10 z "},"Ѓ":{"ha":736,"x_min":0,"x_max":0,"o":"m 143 0 l 193 0 l 193 925 l 692 925 l 692 972 l 143 972 z m 417 1083 l 464 1083 l 569 1292 l 511 1292 z "},"Є":{"ha":1040,"x_min":0,"x_max":0,"o":"m 126 463 l 661 463 l 661 510 l 126 510 z m 533 -8 b 803 74 645 -8 735 19 b 942 315 872 129 918 210 l 893 324 b 769 110 870 228 829 157 b 532 39 710 63 631 39 b 323 93 453 39 384 57 b 181 249 262 129 215 181 b 129 488 146 316 129 396 b 181 724 129 577 146 656 b 323 879 215 791 262 843 b 532 933 384 915 453 933 b 765 866 630 933 708 911 b 883 661 823 821 862 753 l 932 669 b 858 840 917 737 893 794 b 725 945 824 887 780 922 b 533 981 670 969 606 981 b 299 920 446 981 368 960 b 138 747 230 880 176 822 b 79 486 99 672 79 585 b 137 225 79 387 98 300 b 297 52 175 150 229 92 b 533 -8 366 12 444 -8 z "},"Ѕ":{"ha":825,"x_min":0,"x_max":0,"o":"m 425 -8 b 592 22 491 -8 547 2 b 697 111 638 43 673 72 b 732 253 720 150 732 197 b 668 419 732 324 711 380 b 460 513 625 459 556 490 l 360 536 b 213 608 295 551 246 575 b 163 736 179 641 163 683 b 191 844 163 779 172 815 b 273 911 210 874 237 896 b 400 933 309 926 351 933 b 580 883 479 933 539 917 b 653 732 621 850 645 800 l 704 739 b 615 919 696 819 666 879 b 401 981 564 960 493 981 b 249 951 343 981 292 971 b 148 867 205 932 172 904 b 113 733 124 830 113 785 b 173 574 113 668 133 614 b 344 486 213 533 270 504 l 446 463 b 627 385 530 443 591 417 b 682 250 664 352 682 307 b 616 94 682 182 660 130 b 428 39 572 57 509 39 b 237 92 346 39 283 57 b 136 244 191 128 157 179 l 88 225 b 203 52 111 150 149 92 b 425 -8 256 12 331 -8 z "},"І":{"ha":356,"x_min":0,"x_max":0,"o":"m 153 0 l 203 0 l 203 972 l 153 972 z "},"Ї":{"ha":356,"x_min":0,"x_max":0,"o":"m 153 0 l 203 0 l 203 972 l 153 972 z m 279 1121 l 329 1121 l 329 1267 l 279 1267 z m 26 1121 l 76 1121 l 76 1267 l 26 1267 z "},"Ј":{"ha":722,"x_min":0,"x_max":0,"o":"m 333 -8 b 463 25 381 -8 424 3 b 558 126 503 47 534 81 b 593 292 581 172 593 227 l 593 972 l 543 972 l 543 286 b 513 146 543 230 533 183 b 435 65 493 109 467 82 b 332 39 402 47 368 39 b 174 101 261 39 208 59 b 110 256 139 142 118 194 l 64 238 b 142 62 70 167 96 109 b 333 -8 187 15 251 -8 z "},"Љ":{"ha":1594,"x_min":0,"x_max":0,"o":"m 143 0 l 194 0 b 306 41 249 0 286 14 b 336 169 326 68 336 111 l 336 925 l 861 925 l 861 0 l 1215 0 b 1386 41 1280 0 1337 14 b 1499 152 1435 68 1473 105 b 1539 308 1526 199 1539 251 b 1502 454 1539 360 1527 409 b 1392 565 1478 500 1441 536 b 1215 607 1344 593 1285 607 l 911 607 l 911 972 l 286 972 l 286 164 l 286 161 l 286 158 b 281 101 286 135 284 116 b 256 63 278 85 269 73 b 193 47 242 52 221 47 l 143 47 z m 1199 47 l 911 47 l 911 560 l 1199 560 b 1414 491 1292 560 1364 537 b 1489 307 1464 445 1489 384 b 1416 120 1489 231 1465 169 b 1199 47 1367 72 1295 47 z "},"Њ":{"ha":1528,"x_min":0,"x_max":0,"o":"m 150 0 l 200 0 l 200 532 l 794 532 l 794 0 l 1149 0 b 1319 39 1213 0 1270 13 b 1433 145 1369 65 1406 100 b 1472 294 1459 190 1472 240 b 1435 434 1472 344 1460 391 b 1326 539 1411 477 1374 512 b 1149 579 1277 566 1218 579 l 844 579 l 844 972 l 794 972 l 794 579 l 200 579 l 200 972 l 150 972 z m 1132 47 l 844 47 l 844 532 l 1132 532 b 1347 467 1225 532 1297 510 b 1422 293 1397 423 1422 365 b 1349 116 1422 221 1398 162 b 1132 47 1301 70 1228 47 z "},"Ћ":{"ha":1035,"x_min":0,"x_max":0,"o":"m 258 0 l 308 0 l 308 925 l 801 925 l 801 972 l 58 972 l 58 925 l 258 925 z m 882 329 l 882 0 l 932 0 l 932 331 b 897 482 932 389 920 439 b 796 580 874 525 840 557 b 636 614 751 603 698 614 b 485 594 590 614 539 607 b 303 532 430 580 369 560 l 303 472 b 476 542 358 502 416 525 b 640 567 537 558 591 567 b 771 538 691 567 735 557 b 853 456 807 519 834 492 b 882 329 872 421 882 378 z "},"Ќ":{"ha":926,"x_min":0,"x_max":0,"o":"m 150 0 l 200 0 l 200 329 l 185 289 l 836 972 l 772 972 l 185 361 l 200 353 l 200 972 l 150 972 z m 811 0 l 871 0 l 479 624 l 443 586 z m 435 1083 l 482 1083 l 588 1292 l 529 1292 z "},"Ѝ":{"ha":1058,"x_min":0,"x_max":0,"o":"m 150 0 l 204 0 l 860 903 l 865 901 b 863 841 864 882 864 862 b 861 779 863 820 862 800 b 858 515 859 719 858 631 l 858 0 l 908 0 l 908 972 l 850 972 l 197 71 l 193 72 b 196 143 195 100 196 124 b 199 293 198 187 199 237 b 200 447 200 350 200 401 l 200 972 l 150 972 z m 531 1083 l 569 1083 l 506 1292 l 457 1292 z "},"Ў":{"ha":915,"x_min":0,"x_max":0,"o":"m 113 0 l 213 0 b 336 23 263 0 304 8 b 417 88 369 38 395 60 b 482 199 438 115 460 152 l 847 972 l 793 972 l 456 244 l 476 246 l 108 972 l 54 972 l 446 196 l 446 236 l 417 172 b 349 83 401 135 378 105 b 226 47 320 60 279 48 l 214 47 l 113 47 z m 456 1090 b 581 1125 507 1090 549 1102 b 644 1238 612 1148 633 1186 l 596 1238 b 549 1157 586 1201 570 1175 b 456 1131 528 1139 497 1131 b 360 1157 413 1131 381 1139 b 315 1238 340 1175 325 1201 l 267 1238 b 330 1125 278 1186 299 1148 b 456 1090 361 1102 403 1090 z "},"Џ":{"ha":1011,"x_min":0,"x_max":0,"o":"m 481 -236 l 531 -236 l 531 0 l 871 0 l 871 972 l 818 972 l 818 47 l 193 47 l 193 972 l 140 972 l 140 0 l 481 0 z "},"А":{"ha":969,"x_min":0,"x_max":0,"o":"m 40 0 l 94 0 l 483 932 l 485 932 l 875 0 l 928 0 l 517 978 l 453 978 z m 192 311 l 778 311 l 764 358 l 206 358 z "},"Б":{"ha":940,"x_min":0,"x_max":0,"o":"m 150 0 l 531 0 b 703 34 596 0 654 11 b 816 132 752 57 790 89 b 856 281 842 175 856 224 b 769 475 856 360 827 425 b 513 550 711 525 625 550 l 200 550 l 200 925 l 801 925 l 801 972 l 150 972 z m 525 49 l 200 49 l 200 503 l 517 503 b 729 444 607 503 678 483 b 806 279 780 406 806 350 b 773 158 806 233 795 192 b 677 77 751 123 719 96 b 525 49 635 58 584 49 z "},"В":{"ha":936,"x_min":0,"x_max":0,"o":"m 150 0 l 558 0 b 704 31 613 0 662 10 b 804 119 747 51 780 80 b 840 254 828 157 840 202 b 810 381 840 302 830 345 b 731 468 791 418 764 447 b 624 504 698 489 663 501 l 628 486 b 722 534 664 496 695 512 b 785 615 749 556 770 583 b 807 725 800 648 807 684 b 770 858 807 777 795 821 b 669 943 746 895 712 924 b 528 972 627 963 580 972 l 150 972 z m 551 47 l 200 47 l 200 471 l 553 471 b 731 408 632 471 692 450 b 790 258 771 367 790 317 b 758 145 790 215 780 177 b 672 72 737 113 708 89 b 551 47 636 56 596 47 z m 542 518 l 200 518 l 200 925 l 526 925 b 641 901 568 925 606 917 b 725 830 676 884 704 861 b 757 718 746 799 757 762 b 731 615 757 679 748 645 b 657 544 714 584 689 561 b 542 518 625 527 586 518 z "},"Г":{"ha":736,"x_min":0,"x_max":0,"o":"m 143 0 l 193 0 l 193 925 l 692 925 l 692 972 l 143 972 z "},"Д":{"ha":1040,"x_min":0,"x_max":0,"o":"m 53 -194 l 103 -194 l 103 0 l 949 0 l 949 -194 l 999 -194 l 999 47 l 843 47 l 864 18 l 864 972 l 282 972 l 282 243 b 263 144 282 207 275 174 b 204 74 250 115 230 91 b 110 47 178 56 147 47 l 53 47 z m 229 47 b 308 135 266 61 293 90 b 332 300 324 179 332 234 l 332 944 l 310 925 l 814 925 l 814 47 z "},"Е":{"ha":872,"x_min":0,"x_max":0,"o":"m 150 0 l 768 0 l 768 47 l 200 47 l 200 450 l 719 450 l 719 497 l 200 497 l 200 925 l 761 925 l 761 972 l 150 972 z "},"Ж":{"ha":1400,"x_min":0,"x_max":0,"o":"m 8 0 l 68 0 l 428 560 l 651 321 l 651 0 l 701 0 l 701 321 l 925 560 l 1285 0 l 1344 0 l 960 599 l 1310 972 l 1246 972 l 701 389 l 701 972 l 651 972 l 651 389 l 107 972 l 43 972 l 392 597 z "},"З":{"ha":846,"x_min":0,"x_max":0,"o":"m 408 -10 b 578 21 471 -10 528 0 b 697 111 629 41 669 71 b 740 258 726 151 740 200 b 681 420 740 326 721 380 b 514 496 642 460 586 486 l 515 489 b 625 536 557 499 594 515 b 699 619 656 557 681 585 b 726 738 717 653 726 692 b 689 872 726 790 714 835 b 584 953 664 908 629 935 b 429 981 539 972 488 981 b 209 917 338 981 265 959 b 101 736 153 875 117 815 l 151 729 b 243 881 165 796 196 847 b 431 933 290 916 353 933 b 609 884 505 933 564 917 b 676 733 654 851 676 801 b 590 563 676 653 647 596 b 393 513 532 529 466 513 l 258 513 l 258 465 l 393 465 b 608 418 482 465 554 450 b 690 261 663 387 690 334 b 651 135 690 210 677 168 b 547 61 624 101 590 77 b 410 38 505 45 459 38 b 226 88 331 38 270 54 b 126 243 182 122 149 174 l 79 224 b 191 53 101 151 139 94 b 408 -10 243 11 316 -10 z "},"И":{"ha":1058,"x_min":0,"x_max":0,"o":"m 150 0 l 204 0 l 860 903 l 865 901 b 863 841 864 882 864 862 b 861 779 863 820 862 800 b 858 515 859 719 858 631 l 858 0 l 908 0 l 908 972 l 850 972 l 197 71 l 193 72 b 196 143 195 100 196 124 b 199 293 198 187 199 237 b 200 447 200 350 200 401 l 200 972 l 150 972 z "},"Й":{"ha":1058,"x_min":0,"x_max":0,"o":"m 326 1115 l 742 1115 l 742 1164 l 326 1164 z m 150 0 l 204 0 l 860 903 l 865 901 b 863 841 864 882 864 862 b 861 779 863 820 862 800 b 858 515 859 719 858 631 l 858 0 l 908 0 l 908 972 l 850 972 l 197 71 l 193 72 b 196 143 195 100 196 124 b 199 293 198 187 199 237 b 200 447 200 350 200 401 l 200 972 l 150 972 z "},"К":{"ha":926,"x_min":0,"x_max":0,"o":"m 150 0 l 200 0 l 200 329 l 185 289 l 836 972 l 772 972 l 185 361 l 200 353 l 200 972 l 150 972 z m 811 0 l 871 0 l 479 624 l 443 586 z "},"Л":{"ha":1061,"x_min":0,"x_max":0,"o":"m 143 0 l 194 0 b 302 39 244 0 279 13 b 336 169 325 65 336 108 l 336 925 l 861 925 l 861 0 l 911 0 l 911 972 l 286 972 l 286 164 b 277 95 286 135 283 112 b 248 58 271 78 261 66 b 193 47 234 51 216 47 l 143 47 z "},"М":{"ha":1219,"x_min":0,"x_max":0,"o":"m 150 0 l 200 0 l 200 444 l 200 489 b 193 894 200 626 198 761 l 194 894 l 590 83 l 628 83 l 1028 894 l 1029 894 b 1019 444 1023 684 1019 534 l 1019 0 l 1069 0 l 1069 972 l 1011 972 l 611 154 l 608 154 l 211 972 l 150 972 z "},"Н":{"ha":1013,"x_min":0,"x_max":0,"o":"m 150 0 l 200 0 l 200 461 l 813 461 l 813 0 l 863 0 l 863 972 l 813 972 l 813 508 l 200 508 l 200 972 l 150 972 z "},"О":{"ha":1113,"x_min":0,"x_max":0,"o":"m 557 -8 b 796 53 647 -8 726 12 b 957 227 865 95 919 153 b 1014 483 995 302 1014 387 b 957 742 1014 581 995 667 b 796 918 919 818 865 876 b 557 981 726 960 647 981 b 317 918 466 981 386 960 b 156 742 247 876 194 818 b 99 483 118 667 99 581 b 156 227 99 387 118 302 b 317 53 194 153 247 95 b 557 -8 386 12 466 -8 z m 557 39 b 343 94 476 39 405 57 b 199 251 281 131 233 184 b 149 483 166 318 149 395 b 200 719 149 572 166 651 b 344 877 234 787 282 840 b 557 933 405 915 476 933 b 770 877 638 933 709 915 b 913 719 832 840 879 787 b 964 483 947 651 964 572 b 913 251 964 395 947 318 b 770 94 879 184 832 131 b 557 39 709 57 638 39 z "},"П":{"ha":1007,"x_min":0,"x_max":0,"o":"m 150 0 l 200 0 l 200 925 l 807 925 l 807 0 l 857 0 l 857 972 l 150 972 z "},"Р":{"ha":833,"x_min":0,"x_max":0,"o":"m 150 0 l 200 0 l 200 444 l 436 444 b 613 476 506 444 566 455 b 720 566 661 497 697 527 b 756 708 744 605 756 653 b 720 851 756 764 744 811 b 613 941 697 890 661 920 b 436 972 566 962 506 972 l 150 972 z m 426 492 l 200 492 l 200 925 l 426 925 b 641 868 526 925 598 906 b 706 708 684 830 706 777 b 640 549 706 640 684 587 b 426 492 597 511 525 492 z "},"С":{"ha":1040,"x_min":0,"x_max":0,"o":"m 533 -8 b 803 74 645 -8 735 19 b 942 315 872 129 918 210 l 893 324 b 769 110 870 228 829 157 b 532 39 710 63 631 39 b 323 93 453 39 384 57 b 181 249 262 129 215 181 b 129 488 146 316 129 396 b 181 724 129 577 146 656 b 323 879 215 791 262 843 b 532 933 384 915 453 933 b 765 866 630 933 708 911 b 883 661 823 821 862 753 l 932 669 b 858 840 917 737 893 794 b 725 945 824 887 780 922 b 533 981 670 969 606 981 b 299 920 446 981 368 960 b 138 747 230 880 176 822 b 79 486 99 672 79 585 b 137 225 79 387 98 300 b 297 52 175 150 229 92 b 533 -8 366 12 444 -8 z "},"Т":{"ha":831,"x_min":0,"x_max":0,"o":"m 390 0 l 440 0 l 440 925 l 794 925 l 794 972 l 36 972 l 36 925 l 390 925 z "},"У":{"ha":915,"x_min":0,"x_max":0,"o":"m 113 0 l 213 0 b 336 23 263 0 304 8 b 417 88 369 38 395 60 b 482 199 438 115 460 152 l 847 972 l 793 972 l 456 244 l 476 246 l 108 972 l 54 972 l 446 196 l 446 236 l 417 172 b 349 83 401 135 378 105 b 226 47 320 60 279 48 l 214 47 l 113 47 z "},"Ф":{"ha":1232,"x_min":0,"x_max":0,"o":"m 590 54 l 590 -33 l 642 -33 l 642 54 b 905 109 744 57 831 75 b 1074 255 978 143 1035 191 b 1133 483 1114 318 1133 394 b 1074 714 1133 573 1113 650 b 903 861 1034 778 977 827 b 642 917 830 895 743 914 l 642 1000 l 590 1000 l 590 917 b 329 860 490 913 403 894 b 158 713 255 825 198 776 b 99 483 119 649 99 572 b 159 254 99 394 119 317 b 330 109 199 191 256 143 b 590 54 403 75 490 57 z m 590 869 l 590 101 b 265 205 451 106 343 141 b 149 483 188 269 149 362 b 202 691 149 565 166 634 b 355 821 238 748 289 791 b 590 869 421 850 500 867 z m 642 101 l 642 869 b 968 766 781 866 890 831 b 1085 483 1046 701 1085 606 b 1031 278 1085 403 1067 334 b 878 150 996 222 945 180 b 642 101 812 120 733 104 z "},"Х":{"ha":851,"x_min":0,"x_max":0,"o":"m 22 0 l 88 0 l 439 460 l 404 475 l 767 0 l 831 0 l 438 518 l 446 464 l 828 972 l 764 972 l 414 501 l 439 500 l 85 972 l 21 972 l 403 463 l 407 497 z "},"Ц":{"ha":1050,"x_min":0,"x_max":0,"o":"m 954 -236 l 1004 -236 l 1004 47 l 871 47 l 871 972 l 821 972 l 821 47 l 193 47 l 193 972 l 143 972 l 143 0 l 954 0 z "},"Ч":{"ha":921,"x_min":0,"x_max":0,"o":"m 422 371 b 566 390 473 371 521 377 b 719 450 611 402 662 422 l 718 504 b 567 439 663 475 613 453 b 422 418 520 425 472 418 b 276 447 366 418 317 428 b 183 528 236 466 205 493 b 151 656 162 564 151 606 l 151 972 l 100 972 l 100 654 b 137 503 100 596 112 546 b 247 406 161 461 198 429 b 422 371 295 382 354 371 z m 714 0 l 767 0 l 767 972 l 714 972 z "},"Ш":{"ha":1474,"x_min":0,"x_max":0,"o":"m 150 0 l 1324 0 l 1324 972 l 1274 972 l 1274 47 l 761 47 l 761 972 l 711 972 l 711 47 l 200 47 l 200 972 l 150 972 z "},"Щ":{"ha":1499,"x_min":0,"x_max":0,"o":"m 1403 -236 l 1453 -236 l 1453 47 l 1322 47 l 1322 972 l 1272 972 l 1272 47 l 760 47 l 760 972 l 710 972 l 710 47 l 199 47 l 199 972 l 149 972 l 149 0 l 1403 0 z "},"Ъ":{"ha":1064,"x_min":0,"x_max":0,"o":"m 299 0 l 668 0 b 847 41 736 0 795 14 b 967 152 899 68 939 105 b 1010 308 996 199 1010 251 b 971 454 1010 360 997 409 b 855 565 945 500 906 536 b 668 607 803 593 741 607 l 351 607 l 351 972 l 4 972 l 4 925 l 299 925 z m 654 47 l 351 47 l 351 560 l 654 560 b 878 491 751 560 826 537 b 957 307 931 445 957 384 b 881 120 957 231 931 169 b 654 47 830 72 754 47 z "},"Ы":{"ha":1240,"x_min":0,"x_max":0,"o":"m 144 0 l 496 0 b 667 41 561 0 618 14 b 781 152 717 68 755 105 b 821 308 808 199 821 251 b 785 454 821 360 809 409 b 674 565 760 500 723 536 b 496 607 625 593 565 607 l 192 607 l 192 972 l 144 972 z m 483 47 l 192 47 l 192 560 l 483 560 b 698 491 576 560 648 537 b 773 307 748 445 773 384 b 700 120 773 231 749 169 b 483 47 651 72 579 47 z m 1038 0 l 1088 0 l 1088 972 l 1038 972 z "},"Ь":{"ha":911,"x_min":0,"x_max":0,"o":"m 150 0 l 517 0 b 695 41 584 0 644 14 b 814 152 747 68 786 105 b 856 308 842 199 856 251 b 817 454 856 360 843 409 b 702 565 792 500 753 536 b 517 607 651 593 589 607 l 200 607 l 200 972 l 150 972 z m 503 47 l 200 47 l 200 560 l 503 560 b 727 491 600 560 675 537 b 806 307 779 445 806 384 b 729 120 806 231 780 169 b 503 47 678 72 603 47 z "},"Э":{"ha":1049,"x_min":0,"x_max":0,"o":"m 494 -8 b 729 51 582 -8 661 12 b 890 224 798 91 851 149 b 949 486 929 299 949 386 b 896 747 949 586 931 673 b 745 918 861 821 810 878 b 517 978 680 958 604 978 b 251 893 411 978 322 950 b 97 654 179 837 128 757 l 147 646 b 286 858 177 739 223 810 b 517 931 349 906 426 931 b 718 877 594 931 661 913 b 851 723 775 841 820 790 b 899 485 883 656 899 576 b 847 247 899 394 881 315 b 705 92 813 180 766 128 b 496 39 644 57 575 39 b 262 106 398 39 320 61 b 143 311 204 151 164 219 l 93 303 b 167 132 108 235 133 178 b 301 27 202 86 247 51 b 494 -8 356 3 420 -8 z m 367 463 l 901 463 l 901 510 l 367 510 z "},"Ю":{"ha":1376,"x_min":0,"x_max":0,"o":"m 826 -8 b 1062 53 915 -8 994 12 b 1221 227 1130 95 1183 153 b 1278 483 1259 302 1278 387 b 1221 742 1278 581 1259 667 b 1062 918 1183 818 1130 876 b 826 981 994 960 915 981 b 590 918 738 981 659 960 b 431 742 522 876 469 818 b 374 483 393 667 374 581 b 431 227 374 387 393 302 b 590 53 469 153 522 95 b 826 -8 659 12 738 -8 z m 150 0 l 200 0 l 200 463 l 382 463 l 382 510 l 200 510 l 200 972 l 150 972 z m 826 39 b 616 94 747 39 677 57 b 474 251 555 131 508 184 b 424 483 441 318 424 395 b 474 719 424 572 441 651 b 616 877 508 787 555 840 b 826 933 677 915 747 933 b 1035 877 905 933 975 915 b 1177 719 1096 840 1143 787 b 1228 483 1211 651 1228 572 b 1177 251 1228 395 1211 318 b 1035 94 1143 184 1096 131 b 826 39 975 57 905 39 z "},"Я":{"ha":897,"x_min":0,"x_max":0,"o":"m 176 232 l 88 0 l 142 0 l 226 225 b 283 318 240 263 259 294 b 367 371 307 342 335 360 b 474 388 398 382 434 388 l 693 388 l 693 0 l 743 0 l 743 972 l 451 972 b 263 935 376 972 313 960 b 148 831 212 910 173 875 b 110 681 122 787 110 737 b 180 489 110 606 133 542 b 397 396 227 436 299 405 l 406 419 b 288 383 356 413 317 401 b 220 322 258 366 235 345 b 176 232 205 298 190 268 z m 461 435 b 238 499 364 435 289 456 b 160 681 186 542 160 603 b 237 862 160 759 185 820 b 461 925 288 904 363 925 l 693 925 l 693 435 z "},"а":{"ha":724,"x_min":0,"x_max":0,"o":"m 275 -8 b 464 47 345 -8 408 10 b 578 194 519 84 557 133 l 564 199 l 564 0 l 614 0 l 614 478 b 584 608 614 529 604 572 b 499 689 564 643 536 670 b 371 717 463 707 420 717 b 201 663 304 717 247 699 b 103 515 154 626 121 577 l 151 504 b 232 626 168 556 195 597 b 371 669 269 655 315 669 b 515 617 434 669 482 652 b 564 469 547 581 564 532 l 564 403 l 267 364 b 116 306 203 356 153 336 b 61 174 79 276 61 232 b 121 38 61 114 81 69 b 275 -8 161 7 212 -8 z m 279 39 b 160 74 232 39 192 50 b 111 176 127 97 111 131 b 153 273 111 219 125 251 b 274 317 181 295 221 309 l 564 356 l 564 314 b 524 174 564 263 550 216 b 418 75 497 132 462 99 b 279 39 375 51 328 39 z "},"б":{"ha":819,"x_min":0,"x_max":0,"o":"m 426 -10 b 604 38 497 -10 556 6 b 712 165 652 70 688 112 b 747 336 735 217 747 274 b 714 503 747 395 736 451 b 612 628 692 555 658 596 b 442 675 566 659 509 675 b 242 614 366 675 299 655 b 136 446 185 573 150 517 l 154 444 l 154 611 b 181 771 154 673 163 726 b 263 878 198 815 225 851 b 404 931 300 905 347 922 b 540 947 436 935 481 941 b 701 968 597 952 650 959 l 701 1019 b 599 1002 669 1013 635 1007 b 500 989 564 997 531 993 l 450 983 b 400 976 433 981 417 979 b 171 853 292 960 215 919 b 104 604 126 788 104 705 l 104 343 b 142 159 104 274 117 212 b 253 35 168 106 205 64 b 426 -10 301 5 359 -10 z m 428 38 b 288 70 376 38 329 48 b 190 168 247 92 214 125 b 154 326 166 212 154 264 b 187 486 154 388 165 441 b 282 591 209 531 240 566 b 431 628 324 616 373 628 b 626 551 513 628 578 602 b 697 336 673 500 697 429 b 663 174 697 273 686 219 b 567 72 639 129 608 95 b 428 38 527 49 481 38 z "},"в":{"ha":733,"x_min":0,"x_max":0,"o":"m 111 0 l 450 0 b 558 23 491 0 527 8 b 629 88 589 38 613 60 b 654 186 646 115 654 148 b 630 285 654 224 646 257 b 566 351 614 314 592 335 b 481 375 540 366 511 374 l 482 358 b 590 419 530 367 566 387 b 625 532 613 451 625 488 b 572 662 625 588 607 631 b 433 708 537 693 491 708 l 111 708 z m 450 47 l 161 47 l 161 339 l 439 339 b 560 299 490 339 530 325 b 604 190 589 272 604 236 b 585 112 604 160 598 134 b 531 63 572 90 554 74 b 450 47 507 53 481 47 z m 429 386 l 161 386 l 161 661 l 425 661 b 533 627 469 661 506 650 b 575 528 561 604 575 571 b 535 426 575 486 562 452 b 429 386 509 399 474 386 z "},"г":{"ha":560,"x_min":0,"x_max":0,"o":"m 111 0 l 161 0 l 161 661 l 531 661 l 531 708 l 111 708 z "},"д":{"ha":800,"x_min":0,"x_max":0,"o":"m 32 -164 l 82 -164 l 82 0 l 711 0 l 711 -164 l 761 -164 l 761 47 l 664 47 l 664 708 l 183 708 l 182 167 b 155 75 182 124 173 94 b 76 47 137 56 111 47 l 32 47 z m 108 26 b 197 53 144 26 173 35 b 232 160 220 70 232 106 l 232 703 l 207 661 l 614 661 l 614 47 l 76 47 z "},"е":{"ha":775,"x_min":0,"x_max":0,"o":"m 403 -10 b 592 48 481 -10 544 9 b 699 199 639 86 675 137 l 650 215 b 557 83 629 158 598 114 b 401 38 516 53 464 38 b 203 118 318 38 252 64 b 129 346 154 172 129 248 b 166 522 129 414 141 473 b 265 633 191 571 223 608 b 401 669 306 657 351 669 b 531 635 450 669 494 658 b 617 539 569 612 597 580 b 647 403 637 498 647 453 b 644 354 647 377 646 361 l 660 401 l 110 401 l 122 354 l 694 354 b 697 374 695 361 696 367 b 697 393 697 380 697 387 b 660 563 697 457 685 513 b 557 676 636 612 601 650 b 403 717 513 703 461 717 b 242 673 344 717 291 702 b 124 548 193 644 153 602 b 79 357 94 494 79 430 b 121 153 79 276 93 209 b 235 31 149 98 187 57 b 403 -10 284 4 340 -10 z "},"ж":{"ha":1144,"x_min":0,"x_max":0,"o":"m 31 0 l 92 0 l 393 383 l 547 238 l 547 0 l 597 0 l 597 238 l 761 392 l 778 410 l 1099 708 l 1025 708 l 599 306 l 596 307 b 597 431 596 362 596 403 l 597 491 l 597 551 l 597 1003 l 547 1003 l 547 551 l 547 491 l 547 431 b 549 369 548 410 549 390 l 549 307 l 546 306 l 119 708 l 46 708 l 357 418 z m 1053 0 l 1114 0 l 779 428 l 743 393 z "},"з":{"ha":697,"x_min":0,"x_max":0,"o":"m 343 -8 b 538 42 422 -8 487 8 b 614 188 588 75 614 124 b 569 308 614 238 599 278 b 440 365 539 339 496 358 l 440 357 b 557 415 489 365 528 384 b 600 533 586 445 600 484 b 533 669 600 592 578 637 b 358 717 489 701 431 717 b 176 665 285 717 225 699 b 83 507 128 630 97 577 l 133 500 b 208 626 144 556 169 598 b 357 669 247 655 297 669 b 497 631 415 669 462 657 b 550 522 532 606 550 569 b 497 419 550 474 532 440 b 365 385 462 399 418 388 l 354 385 l 343 385 l 225 385 l 225 338 l 346 338 b 507 302 415 338 469 326 b 564 189 545 278 564 241 b 501 74 564 136 543 98 b 343 39 460 51 407 39 b 181 85 276 40 222 55 b 106 221 140 114 115 160 l 58 211 b 145 49 69 142 97 88 b 343 -8 193 11 259 -8 z "},"и":{"ha":800,"x_min":0,"x_max":0,"o":"m 111 0 l 164 0 l 640 635 l 642 635 b 640 560 641 609 640 584 b 639 492 640 537 640 514 l 639 442 l 639 393 l 639 0 l 689 0 l 689 708 l 638 708 l 160 72 l 158 72 b 160 131 159 91 160 110 l 160 196 b 161 250 161 214 161 232 l 161 301 l 161 708 l 111 708 z "},"й":{"ha":835,"x_min":0,"x_max":0,"o":"m 240 829 l 561 829 l 561 875 l 240 875 z m 108 0 l 161 0 l 638 635 l 639 635 b 638 560 638 609 638 584 b 636 492 638 537 637 514 l 636 442 l 636 393 l 636 0 l 686 0 l 686 708 l 635 708 l 157 72 l 156 72 b 157 131 156 91 157 110 l 157 196 b 158 250 158 214 158 232 l 158 301 l 158 708 l 108 708 z "},"к":{"ha":661,"x_min":0,"x_max":0,"o":"m 111 0 l 161 0 l 161 239 l 631 708 l 561 708 l 161 303 l 158 304 b 161 493 160 376 161 439 l 161 549 l 161 708 l 111 708 z m 565 0 l 628 0 l 315 421 l 279 388 z "},"л":{"ha":736,"x_min":0,"x_max":0,"o":"m 19 0 l 64 0 b 171 40 116 0 151 13 b 200 153 190 66 200 104 l 200 661 l 575 661 l 575 0 l 625 0 l 625 708 l 150 708 l 150 150 b 131 71 150 113 144 87 b 61 47 118 55 94 47 l 19 47 z "},"м":{"ha":935,"x_min":0,"x_max":0,"o":"m 111 0 l 161 0 l 161 375 b 160 458 161 403 161 431 b 158 542 160 486 159 514 b 157 583 157 556 157 569 b 156 625 157 597 156 611 l 158 626 l 446 56 l 490 56 l 775 625 l 778 624 b 776 572 777 606 776 589 b 775 522 776 556 776 539 b 774 449 774 497 774 473 l 774 379 l 774 0 l 824 0 l 824 708 l 760 708 l 469 122 l 467 122 l 175 708 l 111 708 z "},"н":{"ha":800,"x_min":0,"x_max":0,"o":"m 111 0 l 161 0 l 161 332 l 639 332 l 639 0 l 689 0 l 689 708 l 639 708 l 639 379 l 161 379 l 161 708 l 111 708 z "},"о":{"ha":825,"x_min":0,"x_max":0,"o":"m 413 -8 b 584 35 476 -8 534 6 b 703 162 634 65 674 107 b 746 354 731 217 746 281 b 703 544 746 426 731 490 b 584 672 674 599 634 641 b 413 717 534 702 476 717 b 241 673 349 717 291 702 b 122 547 191 644 151 602 b 79 354 94 491 79 427 b 122 162 79 281 94 217 b 241 35 151 107 191 65 b 413 -8 291 6 349 -8 z m 413 39 b 266 76 358 39 309 51 b 165 184 223 100 189 136 b 129 354 141 232 129 288 b 165 524 129 420 141 477 b 266 633 189 572 223 608 b 413 669 309 657 358 669 b 559 633 467 669 516 657 b 660 524 602 608 636 572 b 696 354 684 477 696 420 b 660 184 696 288 684 232 b 559 76 636 136 602 100 b 413 39 516 51 467 39 z "},"п":{"ha":772,"x_min":0,"x_max":0,"o":"m 111 0 l 161 0 l 161 661 l 611 661 l 611 0 l 661 0 l 661 708 l 111 708 z "},"р":{"ha":844,"x_min":0,"x_max":0,"o":"m 111 -278 l 161 -278 l 161 236 l 139 235 b 247 56 156 158 191 98 b 447 -8 302 13 369 -8 b 619 37 514 -8 571 7 b 728 163 666 67 703 109 b 765 354 753 217 765 281 b 726 550 765 430 752 495 b 614 674 699 605 662 646 b 446 717 566 703 510 717 b 248 652 368 717 302 695 b 140 478 194 609 158 551 l 161 468 l 161 708 l 111 708 z m 438 39 b 234 124 350 39 283 67 b 161 354 185 181 161 258 b 196 524 161 420 173 477 b 293 633 219 572 251 608 b 439 669 335 657 383 669 b 642 584 526 669 594 641 b 715 354 691 527 715 450 b 681 184 715 288 704 232 b 583 76 657 136 625 100 b 438 39 542 51 493 39 z "},"с":{"ha":763,"x_min":0,"x_max":0,"o":"m 394 -8 b 594 53 475 -8 542 12 b 699 235 647 94 682 154 l 649 242 b 562 91 633 176 604 126 b 396 39 520 56 464 39 b 202 124 315 39 251 67 b 129 356 153 181 129 258 b 164 522 129 419 141 475 b 263 631 187 569 220 606 b 410 669 305 657 354 669 b 563 621 473 669 524 653 b 640 478 603 588 628 541 l 693 486 b 642 609 684 533 667 574 b 547 689 618 644 586 670 b 410 717 507 707 462 717 b 236 673 344 717 286 702 b 120 547 186 644 147 602 b 79 354 93 491 79 427 b 118 163 79 281 92 217 b 228 36 144 108 181 66 b 394 -8 276 6 331 -8 z "},"т":{"ha":613,"x_min":0,"x_max":0,"o":"m 282 0 l 332 0 l 332 661 l 594 661 l 594 708 l 18 708 l 18 661 l 282 661 z "},"у":{"ha":715,"x_min":0,"x_max":0,"o":"m 74 -278 l 110 -278 b 209 -268 151 -278 184 -275 b 274 -226 234 -262 255 -248 b 329 -128 293 -205 312 -172 l 654 708 l 603 708 l 353 64 l 351 64 l 82 708 l 28 708 l 335 -17 l 333 13 l 271 -150 b 244 -199 263 -171 254 -188 b 210 -224 235 -211 224 -219 b 157 -231 197 -228 179 -231 l 74 -231 z "},"ф":{"ha":983,"x_min":0,"x_max":0,"o":"m 493 -10 b 713 33 577 -11 650 4 b 855 160 775 63 822 105 b 904 354 888 216 904 280 b 854 549 904 428 888 493 b 711 676 821 604 773 647 b 492 721 649 706 576 721 b 272 676 407 721 334 706 b 129 548 210 646 163 603 b 79 354 96 493 79 428 b 129 162 79 280 96 216 b 273 36 163 108 210 66 b 493 -10 335 6 409 -9 z m 492 38 b 297 77 417 38 352 52 b 172 186 243 103 201 139 b 129 354 144 233 129 289 b 172 523 129 419 144 475 b 297 633 201 571 243 607 b 492 674 352 659 417 673 b 686 633 567 673 631 659 b 811 523 741 607 782 571 b 854 354 840 475 854 419 b 811 186 854 289 840 233 b 686 77 782 139 741 103 b 492 38 631 52 567 38 z m 467 -278 l 517 -278 l 517 1003 l 467 1003 z "},"х":{"ha":686,"x_min":0,"x_max":0,"o":"m 42 0 l 103 0 l 360 342 l 328 343 l 583 0 l 644 0 l 361 379 l 363 342 l 638 708 l 578 708 l 331 379 l 350 381 l 107 708 l 46 708 l 321 336 l 324 374 z "},"ц":{"ha":797,"x_min":0,"x_max":0,"o":"m 724 -164 l 772 -164 l 772 47 l 663 47 l 663 708 l 613 708 l 613 47 l 161 47 l 161 708 l 111 708 l 111 0 l 722 0 z "},"ч":{"ha":750,"x_min":0,"x_max":0,"o":"m 364 229 b 474 244 402 229 439 234 b 599 294 510 255 551 271 l 590 346 b 481 296 558 325 522 308 b 363 278 441 284 401 278 b 206 332 296 278 244 296 b 150 489 169 368 150 420 l 150 708 l 100 708 l 100 475 b 131 341 100 422 110 378 b 222 258 152 304 182 277 b 364 229 261 239 308 229 z m 589 0 l 639 0 l 639 708 l 589 708 z "},"ш":{"ha":1168,"x_min":0,"x_max":0,"o":"m 111 0 l 1057 0 l 1057 708 l 1007 708 l 1007 47 l 608 47 l 608 708 l 558 708 l 558 47 l 161 47 l 161 708 l 111 708 z "},"щ":{"ha":1197,"x_min":0,"x_max":0,"o":"m 1122 -164 l 1172 -164 l 1172 47 l 1060 47 l 1060 708 l 1010 708 l 1010 47 l 610 47 l 610 708 l 560 708 l 560 47 l 161 47 l 161 708 l 111 708 l 111 0 l 1122 0 z "},"ъ":{"ha":810,"x_min":0,"x_max":0,"o":"m 242 0 l 503 0 b 638 26 556 0 601 9 b 723 101 676 44 704 69 b 751 214 742 133 751 170 b 722 326 751 257 742 295 b 638 399 703 358 675 382 b 504 424 600 415 556 424 l 292 424 l 292 708 l 31 708 l 31 661 l 242 661 z m 503 47 l 292 47 l 292 378 l 503 378 b 650 337 567 378 616 364 b 701 213 684 309 701 268 b 651 88 701 157 684 116 b 503 47 617 61 568 47 z "},"ы":{"ha":946,"x_min":0,"x_max":0,"o":"m 111 0 l 356 0 b 488 26 407 0 451 9 b 570 101 524 44 551 69 b 599 214 589 133 599 170 b 570 326 599 257 589 295 b 487 399 551 358 523 382 b 356 424 450 415 406 424 l 161 424 l 161 708 l 111 708 z m 354 47 l 161 47 l 161 378 l 354 378 b 499 337 418 378 466 364 b 549 213 532 309 549 268 b 499 88 549 157 532 116 b 354 47 465 61 417 47 z m 788 0 l 835 0 l 835 708 l 788 708 z "},"ь":{"ha":704,"x_min":0,"x_max":0,"o":"m 111 0 l 375 0 b 506 26 426 0 469 9 b 588 101 542 44 569 69 b 615 214 606 133 615 170 b 587 326 615 257 606 295 b 505 399 568 358 541 382 b 376 424 469 415 426 424 l 161 424 l 161 708 l 111 708 z m 368 47 l 161 47 l 161 378 l 368 378 b 513 337 432 378 480 364 b 563 213 546 309 563 268 b 513 88 563 157 546 116 b 368 47 479 61 431 47 z "},"э":{"ha":778,"x_min":0,"x_max":0,"o":"m 279 336 l 668 336 l 668 383 l 279 383 z m 383 724 b 183 663 303 724 236 703 b 79 481 131 622 96 561 l 129 474 b 216 624 145 539 174 590 b 382 676 258 659 313 676 b 576 591 463 676 527 648 b 649 360 624 534 649 457 b 614 193 649 296 637 240 b 515 84 591 146 558 109 b 368 46 473 59 424 46 b 215 94 305 46 254 62 b 138 238 175 127 150 175 l 85 229 b 135 106 94 182 111 141 b 231 26 160 72 192 45 b 368 -1 271 8 316 -1 b 542 42 434 -1 492 13 b 658 169 592 72 630 114 b 699 361 685 224 699 288 b 660 553 699 434 686 498 b 549 679 634 607 597 650 b 383 724 502 709 446 724 z "},"ю":{"ha":1047,"x_min":0,"x_max":0,"o":"m 638 -10 b 807 34 700 -10 757 5 b 925 160 857 63 896 105 b 968 353 954 216 968 280 b 925 544 968 425 954 489 b 807 672 896 599 857 641 b 638 717 757 702 700 717 b 469 672 575 717 518 702 b 351 546 419 643 380 600 b 308 353 323 491 308 427 b 351 160 308 280 323 216 b 469 34 380 105 419 63 b 638 -10 518 5 575 -10 z m 111 0 l 160 0 l 160 338 l 317 338 l 317 382 l 160 382 l 160 708 l 111 708 z m 638 38 b 494 74 584 38 536 50 b 396 183 453 99 420 135 b 360 353 372 230 360 287 b 396 524 360 419 372 477 b 494 633 420 572 453 608 b 638 669 536 657 584 669 b 781 633 691 669 739 657 b 880 524 823 608 856 572 b 915 353 903 477 915 419 b 880 183 915 287 903 230 b 781 74 856 135 823 99 b 638 38 739 50 691 38 z "},"я":{"ha":715,"x_min":0,"x_max":0,"o":"m 133 169 l 68 0 l 121 0 l 183 164 b 253 252 199 205 222 234 b 364 279 283 270 320 279 l 554 279 l 554 0 l 604 0 l 604 708 l 344 708 b 209 683 294 708 248 700 b 117 610 170 667 139 642 b 85 494 96 578 85 540 b 136 353 85 439 102 392 b 294 283 170 315 223 292 l 300 306 b 215 280 265 301 237 292 b 166 236 194 267 178 253 b 135 174 154 219 144 199 z m 349 326 b 192 367 282 326 230 340 b 135 494 154 395 135 437 b 192 620 135 551 154 593 b 349 661 230 647 282 661 l 554 661 l 554 326 z "},"ѐ":{"ha":775,"x_min":0,"x_max":0,"o":"m 403 -10 b 592 48 481 -10 544 9 b 699 199 639 86 675 137 l 650 215 b 557 83 629 158 598 114 b 401 38 516 53 464 38 b 203 118 318 38 252 64 b 129 346 154 172 129 248 b 166 522 129 414 141 473 b 265 633 191 571 223 608 b 401 669 306 657 351 669 b 531 635 450 669 494 658 b 617 539 569 612 597 580 b 647 403 637 498 647 453 b 644 354 647 377 646 361 l 660 401 l 110 401 l 122 354 l 694 354 b 697 374 695 361 696 367 b 697 393 697 380 697 387 b 660 563 697 457 685 513 b 557 676 636 612 601 650 b 403 717 513 703 461 717 b 242 673 344 717 291 702 b 124 548 193 644 153 602 b 79 357 94 494 79 430 b 121 153 79 276 93 209 b 235 31 149 98 187 57 b 403 -10 284 4 340 -10 z m 393 819 l 432 819 l 368 1028 l 319 1028 z "},"ё":{"ha":775,"x_min":0,"x_max":0,"o":"m 403 -10 b 592 48 481 -10 544 9 b 699 199 639 86 675 137 l 650 215 b 557 83 629 158 598 114 b 401 38 516 53 464 38 b 203 118 318 38 252 64 b 129 346 154 172 129 248 b 166 522 129 414 141 473 b 265 633 191 571 223 608 b 401 669 306 657 351 669 b 531 635 450 669 494 658 b 617 539 569 612 597 580 b 647 403 637 498 647 453 b 644 354 647 377 646 361 l 660 401 l 110 401 l 122 354 l 694 354 b 697 374 695 361 696 367 b 697 393 697 380 697 387 b 660 563 697 457 685 513 b 557 676 636 612 601 650 b 403 717 513 703 461 717 b 242 673 344 717 291 702 b 124 548 193 644 153 602 b 79 357 94 494 79 430 b 121 153 79 276 93 209 b 235 31 149 98 187 57 b 403 -10 284 4 340 -10 z m 494 819 l 544 819 l 544 965 l 494 965 z m 242 819 l 292 819 l 292 965 l 242 965 z "},"ђ":{"ha":810,"x_min":0,"x_max":0,"o":"m 511 -235 l 551 -235 b 664 -197 599 -235 636 -222 b 706 -72 692 -171 706 -130 l 706 422 b 631 622 706 508 681 575 b 428 693 582 669 514 693 b 294 675 382 693 338 687 b 171 628 251 663 210 647 l 171 824 l 489 824 l 489 871 l 171 871 l 171 1003 l 121 1003 l 121 871 l -15 871 l -15 824 l 121 824 l 121 0 l 171 0 l 171 574 b 305 628 221 598 266 616 b 428 646 344 640 385 646 b 598 585 503 646 559 625 b 656 408 636 544 656 485 l 656 -92 b 635 -165 656 -125 649 -149 b 571 -187 622 -180 600 -187 l 511 -187 z "},"ѓ":{"ha":560,"x_min":0,"x_max":0,"o":"m 111 0 l 161 0 l 161 661 l 531 661 l 531 708 l 111 708 z m 317 819 l 364 819 l 469 1028 l 411 1028 z "},"є":{"ha":763,"x_min":0,"x_max":0,"o":"m 110 336 l 499 336 l 499 383 l 110 383 z m 394 -8 b 594 53 475 -8 542 12 b 699 235 647 94 682 154 l 649 242 b 562 91 633 176 604 126 b 396 39 520 56 464 39 b 202 124 315 39 251 67 b 129 356 153 181 129 258 b 164 522 129 419 141 475 b 263 631 187 569 220 606 b 410 669 305 657 354 669 b 563 621 473 669 524 653 b 640 478 603 588 628 541 l 693 486 b 642 609 684 533 667 574 b 547 689 618 644 586 670 b 410 717 507 707 462 717 b 236 673 344 717 286 702 b 120 547 186 644 147 602 b 79 354 93 491 79 427 b 118 163 79 281 92 217 b 228 36 144 108 181 66 b 394 -8 276 6 331 -8 z "},"ѕ":{"ha":638,"x_min":0,"x_max":0,"o":"m 328 -8 b 460 13 380 -8 424 -1 b 544 78 497 28 525 49 b 574 183 564 106 574 142 b 557 268 574 216 568 244 b 501 331 546 292 527 313 b 392 372 474 348 438 362 l 279 396 b 169 441 229 407 193 422 b 135 533 146 460 135 491 b 183 633 135 575 151 608 b 315 669 216 657 260 669 b 449 631 375 669 419 656 b 494 519 478 605 494 568 l 546 528 b 483 667 543 587 522 633 b 317 717 443 700 388 717 b 192 694 269 717 227 709 b 113 629 158 678 131 657 b 85 532 94 601 85 569 b 131 409 85 478 100 437 b 261 350 162 381 206 361 l 375 326 b 383 324 378 325 381 325 b 392 322 386 324 389 323 b 493 273 439 311 473 295 b 524 182 513 251 524 221 b 472 75 524 135 506 99 b 326 39 438 51 389 39 b 177 76 265 39 216 51 b 108 192 139 101 116 140 l 60 181 b 141 40 67 119 94 73 b 328 -8 188 8 250 -8 z "},"і":{"ha":272,"x_min":0,"x_max":0,"o":"m 111 0 l 161 0 l 161 708 l 111 708 z m 111 858 l 161 858 l 161 1003 l 111 1003 z "},"ї":{"ha":269,"x_min":0,"x_max":0,"o":"m 111 0 l 158 0 l 158 708 l 111 708 z m 236 819 l 286 819 l 286 965 l 236 965 z m -17 819 l 33 819 l 33 965 l -17 965 z "},"ј":{"ha":292,"x_min":0,"x_max":0,"o":"m -24 -235 l 17 -235 b 129 -197 64 -235 101 -222 b 171 -72 157 -171 171 -130 l 171 708 l 121 708 l 121 -92 b 101 -165 121 -125 114 -149 b 36 -187 87 -180 66 -187 l -24 -187 z m 122 858 l 172 858 l 172 1003 l 122 1003 z "},"љ":{"ha":1140,"x_min":0,"x_max":0,"o":"m 19 0 l 64 0 b 170 40 116 0 151 13 b 199 153 189 66 199 104 l 199 661 l 549 661 l 549 0 l 800 0 b 937 26 854 0 899 9 b 1022 101 974 44 1003 69 b 1051 214 1042 133 1051 170 b 1022 326 1051 257 1041 295 b 936 399 1002 358 973 382 b 801 424 899 415 854 424 l 599 424 l 599 708 l 147 708 l 147 150 b 128 71 147 113 141 87 b 60 47 115 55 92 47 l 19 47 z m 799 47 l 599 47 l 599 376 l 799 376 b 950 336 865 376 916 363 b 1001 213 984 309 1001 268 b 949 88 1001 157 984 116 b 799 47 915 61 864 47 z "},"њ":{"ha":1207,"x_min":0,"x_max":0,"o":"m 111 0 l 161 0 l 161 367 l 614 367 l 614 0 l 878 0 b 1008 26 929 0 972 9 b 1090 101 1044 44 1072 69 b 1118 214 1109 133 1118 170 b 1090 326 1118 257 1109 295 b 1008 399 1071 358 1043 382 b 879 424 972 415 929 424 l 664 424 l 664 708 l 614 708 l 614 413 l 161 413 l 161 708 l 111 708 z m 871 47 l 664 47 l 664 378 l 871 378 b 1016 337 935 378 983 364 b 1065 213 1049 309 1065 268 b 1015 88 1065 157 1049 116 b 871 47 982 61 934 47 z "},"ћ":{"ha":808,"x_min":0,"x_max":0,"o":"m 121 0 l 171 0 l 171 574 b 305 628 221 598 266 616 b 428 646 344 640 385 646 b 598 585 503 646 559 625 b 656 408 636 544 656 485 l 656 0 l 706 0 l 706 422 b 631 622 706 508 681 575 b 428 693 582 669 514 693 b 294 675 382 693 338 687 b 171 628 251 663 210 647 l 171 824 l 489 824 l 489 871 l 171 871 l 171 1003 l 121 1003 l 121 871 l -15 871 l -15 824 l 121 824 z "},"ќ":{"ha":661,"x_min":0,"x_max":0,"o":"m 111 0 l 161 0 l 161 239 l 631 708 l 561 708 l 161 303 l 158 304 b 161 493 160 376 161 439 l 161 549 l 161 708 l 111 708 z m 565 0 l 628 0 l 315 421 l 279 388 z m 304 819 l 351 819 l 457 1028 l 399 1028 z "},"ѝ":{"ha":800,"x_min":0,"x_max":0,"o":"m 111 0 l 164 0 l 640 635 l 642 635 b 640 560 641 609 640 584 b 639 492 640 537 640 514 l 639 442 l 639 393 l 639 0 l 689 0 l 689 708 l 638 708 l 160 72 l 158 72 b 160 131 159 91 160 110 l 160 196 b 161 250 161 214 161 232 l 161 301 l 161 708 l 111 708 z m 403 819 l 442 819 l 378 1028 l 329 1028 z "},"ў":{"ha":715,"x_min":0,"x_max":0,"o":"m 74 -278 l 110 -278 b 209 -268 151 -278 184 -275 b 274 -226 234 -262 255 -248 b 329 -128 293 -205 312 -172 l 654 708 l 603 708 l 353 64 l 351 64 l 82 708 l 28 708 l 335 -17 l 333 13 l 271 -150 b 244 -199 263 -171 254 -188 b 210 -224 235 -211 224 -219 b 157 -231 197 -228 179 -231 l 74 -231 z m -1 835 b 124 869 50 835 92 846 b 188 982 155 893 176 930 l 139 982 b 92 901 129 946 113 919 b -1 875 72 884 40 875 b -97 901 -44 875 -76 884 b -142 982 -117 919 -132 946 l -190 982 b -127 869 -179 930 -158 893 b -1 835 -96 846 -54 835 z "},"џ":{"ha":811,"x_min":0,"x_max":0,"o":"m 381 -179 l 431 -179 l 431 0 l 679 0 l 679 708 l 629 708 l 629 47 l 183 47 l 183 708 l 133 708 l 133 0 l 381 0 z "},"Ґ":{"ha":738,"x_min":0,"x_max":0,"o":"m 140 0 l 193 0 l 193 925 l 693 925 l 693 1126 l 640 1126 l 640 972 l 140 972 z "},"ґ":{"ha":560,"x_min":0,"x_max":0,"o":"m 111 0 l 161 0 l 161 661 l 531 661 l 531 851 l 492 851 l 486 708 l 111 708 z "},"Ӏ":{"ha":356,"x_min":0,"x_max":0,"o":"m 153 0 l 203 0 l 203 972 l 153 972 z "},"ӏ":{"ha":271,"x_min":0,"x_max":0,"o":"m 111 0 l 160 0 l 160 708 l 111 708 z "},"Ӣ":{"ha":1058,"x_min":0,"x_max":0,"o":"m 150 0 l 204 0 l 860 903 l 865 901 b 863 841 864 882 864 862 b 861 779 863 820 862 800 b 858 515 859 719 858 631 l 858 0 l 908 0 l 908 972 l 850 972 l 197 71 l 193 72 b 196 143 195 100 196 124 b 199 293 198 187 199 237 b 200 447 200 350 200 401 l 200 972 l 150 972 z m 331 1154 l 729 1154 l 729 1201 l 331 1201 z "},"ӣ":{"ha":779,"x_min":0,"x_max":0,"o":"m 369 -8 b 555 54 444 -8 505 13 b 639 218 604 96 632 150 l 618 219 l 618 0 l 668 0 l 668 708 l 618 708 l 618 315 b 589 171 618 261 608 213 b 506 74 569 129 542 97 b 382 39 469 50 428 39 b 216 102 313 39 257 60 b 154 283 175 144 154 205 l 154 708 l 104 708 l 104 283 b 137 125 104 221 115 169 b 229 26 159 81 189 48 b 369 -8 269 3 316 -8 z m 190 890 l 589 890 l 589 938 l 190 938 z "},"Ӯ":{"ha":915,"x_min":0,"x_max":0,"o":"m 113 0 l 213 0 b 336 23 263 0 304 8 b 417 88 369 38 395 60 b 482 199 438 115 460 152 l 847 972 l 793 972 l 456 244 l 476 246 l 108 972 l 54 972 l 446 196 l 446 236 l 417 172 b 349 83 401 135 378 105 b 226 47 320 60 279 48 l 214 47 l 113 47 z m 256 1154 l 654 1154 l 654 1201 l 256 1201 z "},"ӯ":{"ha":715,"x_min":0,"x_max":0,"o":"m 74 -278 l 110 -278 b 209 -268 151 -278 184 -275 b 274 -226 234 -262 255 -248 b 329 -128 293 -205 312 -172 l 654 708 l 603 708 l 353 64 l 351 64 l 82 708 l 28 708 l 335 -17 l 333 13 l 271 -150 b 244 -199 263 -171 254 -188 b 210 -224 235 -211 224 -219 b 157 -231 197 -228 179 -231 l 74 -231 z m 144 890 l 543 890 l 543 938 l 144 938 z "},"Ẁ":{"ha":1417,"x_min":0,"x_max":0,"o":"m 344 0 l 417 0 l 708 907 l 711 907 l 1001 0 l 1074 0 l 1371 972 l 1322 972 l 1039 56 l 1036 56 l 744 972 l 678 972 l 383 56 l 381 56 l 101 972 l 46 972 z m 704 1083 l 743 1083 l 679 1292 l 631 1292 z "},"ẁ":{"ha":1032,"x_min":0,"x_max":0,"o":"m 256 0 l 318 0 l 515 639 l 517 639 l 714 0 l 778 0 l 1007 708 l 957 708 l 750 57 l 747 57 l 546 708 l 490 708 l 286 57 l 285 57 l 79 708 l 25 708 z m 515 819 l 554 819 l 490 1028 l 442 1028 z "},"Ẃ":{"ha":1417,"x_min":0,"x_max":0,"o":"m 344 0 l 417 0 l 708 907 l 711 907 l 1001 0 l 1074 0 l 1371 972 l 1322 972 l 1039 56 l 1036 56 l 744 972 l 678 972 l 383 56 l 381 56 l 101 972 l 46 972 z m 681 1083 l 728 1083 l 833 1292 l 775 1292 z "},"ẃ":{"ha":1032,"x_min":0,"x_max":0,"o":"m 256 0 l 318 0 l 515 639 l 517 639 l 714 0 l 778 0 l 1007 708 l 957 708 l 750 57 l 747 57 l 546 708 l 490 708 l 286 57 l 285 57 l 79 708 l 25 708 z m 489 819 l 536 819 l 642 1028 l 583 1028 z "},"Ẅ":{"ha":1417,"x_min":0,"x_max":0,"o":"m 344 0 l 417 0 l 708 907 l 711 907 l 1001 0 l 1074 0 l 1371 972 l 1322 972 l 1039 56 l 1036 56 l 744 972 l 678 972 l 383 56 l 381 56 l 101 972 l 46 972 z m 806 1121 l 856 1121 l 856 1267 l 806 1267 z m 553 1121 l 603 1121 l 603 1267 l 553 1267 z "},"ẅ":{"ha":1032,"x_min":0,"x_max":0,"o":"m 256 0 l 318 0 l 515 639 l 517 639 l 714 0 l 778 0 l 1007 708 l 957 708 l 750 57 l 747 57 l 546 708 l 490 708 l 286 57 l 285 57 l 79 708 l 25 708 z m 617 819 l 667 819 l 667 965 l 617 965 z m 364 819 l 414 819 l 414 965 l 364 965 z "},"Ỳ":{"ha":826,"x_min":0,"x_max":0,"o":"m 399 413 l 428 413 l 776 972 l 715 972 l 401 461 l 426 461 l 111 972 l 50 972 z m 390 0 l 440 0 l 440 468 l 390 468 z m 414 1083 l 453 1083 l 389 1292 l 340 1292 z "},"ỳ":{"ha":715,"x_min":0,"x_max":0,"o":"m 74 -278 l 110 -278 b 209 -268 151 -278 184 -275 b 274 -226 234 -262 255 -248 b 329 -128 293 -205 312 -172 l 654 708 l 603 708 l 353 64 l 351 64 l 82 708 l 28 708 l 335 -17 l 333 13 l 271 -150 b 244 -199 263 -171 254 -188 b 210 -224 235 -211 224 -219 b 157 -231 197 -228 179 -231 l 74 -231 z m 344 819 l 383 819 l 319 1028 l 271 1028 z "}," ":{"ha":83,"x_min":0,"x_max":0,"o":""},"–":{"ha":811,"x_min":0,"x_max":0,"o":"m 101 357 l 708 357 l 708 397 l 101 397 z "},"—":{"ha":1222,"x_min":0,"x_max":0,"o":"m 101 357 l 1121 357 l 1121 397 l 101 397 z "},"‘":{"ha":368,"x_min":0,"x_max":0,"o":"m 257 976 l 242 1017 b 162 965 206 1006 180 988 b 135 860 144 941 135 906 l 179 860 b 200 940 177 896 184 923 b 257 976 216 958 235 970 z m 219 860 l 135 860 l 135 769 l 219 769 z "},"’":{"ha":368,"x_min":0,"x_max":0,"o":"m 113 796 l 128 756 b 208 808 163 767 190 784 b 235 913 226 831 235 866 l 190 913 b 169 832 192 876 185 850 b 113 796 154 814 135 802 z m 150 913 l 235 913 l 235 1003 l 150 1003 z "},"‚":{"ha":281,"x_min":0,"x_max":0,"o":"m 60 -117 l 75 -157 b 155 -105 110 -146 137 -128 b 182 0 173 -81 182 -46 l 138 0 b 117 -81 139 -36 132 -63 b 60 -117 101 -98 82 -110 z m 97 0 l 182 0 l 182 90 l 97 90 z "},"“":{"ha":549,"x_min":0,"x_max":0,"o":"m 257 976 l 242 1017 b 162 965 206 1006 180 988 b 135 860 144 941 135 906 l 135 769 l 219 769 l 219 860 l 179 860 b 200 940 177 896 184 923 b 257 976 216 958 235 970 z m 438 976 l 422 1017 b 342 965 387 1006 360 988 b 315 860 324 941 315 906 l 315 769 l 400 769 l 400 860 l 360 860 b 381 940 358 896 365 923 b 438 976 396 958 415 970 z "},"”":{"ha":549,"x_min":0,"x_max":0,"o":"m 293 796 l 308 756 b 388 808 344 767 370 784 b 415 913 406 831 415 866 l 415 1003 l 331 1003 l 331 913 l 371 913 b 350 832 373 876 366 850 b 293 796 334 814 315 802 z m 113 796 l 128 756 b 208 808 163 767 190 784 b 235 913 226 831 235 866 l 235 1003 l 150 1003 l 150 913 l 190 913 b 169 832 192 876 185 850 b 113 796 154 814 135 802 z "},"„":{"ha":549,"x_min":0,"x_max":0,"o":"m 293 -117 l 308 -157 b 388 -105 344 -146 370 -128 b 415 0 406 -81 415 -46 l 415 90 l 331 90 l 331 0 l 371 0 b 350 -81 373 -36 366 -63 b 293 -117 334 -98 315 -110 z m 113 -117 l 128 -157 b 208 -105 163 -146 190 -128 b 235 0 226 -81 235 -46 l 235 90 l 150 90 l 150 0 l 190 0 b 169 -81 192 -36 185 -63 b 113 -117 154 -98 135 -110 z "},"†":{"ha":497,"x_min":0,"x_max":0,"o":"m 228 -236 l 278 -236 l 278 661 l 446 661 l 446 708 l 278 708 l 278 972 l 228 972 l 228 708 l 58 708 l 58 661 l 228 661 z "},"‡":{"ha":504,"x_min":0,"x_max":0,"o":"m 228 -236 l 278 -236 l 278 0 l 446 0 l 446 47 l 278 47 l 278 661 l 446 661 l 446 708 l 278 708 l 278 972 l 228 972 l 228 708 l 58 708 l 58 661 l 228 661 l 228 47 l 58 47 l 58 0 l 228 0 z "},"•":{"ha":421,"x_min":0,"x_max":0,"o":"m 211 408 b 268 428 234 408 253 415 b 290 486 283 442 290 461 b 268 542 290 510 283 529 b 211 563 253 556 234 563 b 153 542 188 563 169 556 b 131 486 138 529 131 510 b 153 429 131 462 138 443 b 211 408 168 415 187 408 z "},"…":{"ha":864,"x_min":0,"x_max":0,"o":"m 82 0 l 171 0 l 171 90 l 82 90 z m 385 0 l 474 0 l 474 90 l 385 90 z m 693 0 l 782 0 l 782 90 l 693 90 z "}}}
